<svg width="24" height="25" viewBox="0 0 24 25" fill="none" xmlns="http://www.w3.org/2000/svg">
<g id="basil:dribbble-solid">
<path id="Vector" d="M19.0258 6.1302C19.0498 6.11459 19.0701 6.09389 19.0852 6.06956C19.1003 6.04523 19.1099 6.01786 19.1132 5.98941C19.1166 5.96096 19.1136 5.93213 19.1045 5.90496C19.0955 5.87778 19.0805 5.85294 19.0608 5.8322C18.1511 4.87493 17.056 4.11302 15.8422 3.59293C14.6284 3.07285 13.3213 2.8055 12.0008 2.8072C11.2638 2.8072 10.5458 2.8892 9.85578 3.0442C9.82347 3.05155 9.79355 3.06698 9.76882 3.08904C9.74409 3.11109 9.72535 3.13906 9.71436 3.17033C9.70338 3.20159 9.70049 3.23513 9.70599 3.26781C9.71148 3.30049 9.72518 3.33125 9.74578 3.3572C11.0794 5.07986 12.278 6.90295 13.3308 8.8102C13.3541 8.85205 13.3916 8.88416 13.4366 8.90067C13.4815 8.91719 13.5309 8.91702 13.5758 8.9002C15.4899 8.18264 17.3179 7.25355 19.0258 6.1302ZM2.67778 10.6172C2.64914 10.6161 2.62107 10.6088 2.59559 10.5956C2.57011 10.5825 2.54784 10.5639 2.53037 10.5412C2.51289 10.5185 2.50065 10.4922 2.4945 10.4642C2.48835 10.4362 2.48844 10.4072 2.49478 10.3792C2.82906 8.92615 3.49148 7.56889 4.43129 6.41137C5.3711 5.25385 6.56337 4.32679 7.91678 3.7012C7.95673 3.68287 8.00166 3.67842 8.04442 3.68857C8.08719 3.69872 8.12533 3.72288 8.15278 3.7572C9.53062 5.47904 10.7667 7.3097 11.8488 9.2312C11.9108 9.3412 11.8538 9.4812 11.7318 9.5182C8.79581 10.3851 5.73593 10.7559 2.67778 10.6172ZM4.80078 18.7732C4.78267 18.7964 4.75962 18.8152 4.73331 18.8283C4.70701 18.8415 4.67811 18.8486 4.64871 18.8492C4.61931 18.8497 4.59016 18.8437 4.56336 18.8316C4.53656 18.8195 4.51279 18.8016 4.49378 18.7792C2.98423 16.9637 2.1879 14.6604 2.25378 12.3002C2.2548 12.2738 2.26108 12.2479 2.27224 12.224C2.2834 12.2001 2.29923 12.1787 2.3188 12.161C2.33836 12.1433 2.36126 12.1297 2.38616 12.121C2.41106 12.1122 2.43745 12.1086 2.46378 12.1102C2.94178 12.1322 3.42378 12.1442 3.90678 12.1442C6.90678 12.1442 9.79979 11.6902 12.5228 10.8462C12.5679 10.8321 12.6165 10.8344 12.6601 10.8527C12.7036 10.871 12.7393 10.9041 12.7608 10.9462C13.0688 11.5592 13.3608 12.1812 13.6378 12.8102C13.6494 12.8369 13.6551 12.8657 13.6545 12.8948C13.6539 12.9239 13.647 12.9525 13.6342 12.9786C13.6215 13.0048 13.6032 13.0278 13.5807 13.0462C13.5582 13.0646 13.5319 13.0779 13.5038 13.0852C10.0709 14.0057 7.0218 15.9985 4.80078 18.7732ZM16.2728 21.1592C16.2815 21.2022 16.2757 21.247 16.2561 21.2863C16.2365 21.3256 16.2044 21.3572 16.1648 21.3762C14.8629 21.9913 13.4406 22.3093 12.0008 22.3072C9.77122 22.3105 7.60846 21.5463 5.87578 20.1432C5.83608 20.1109 5.81067 20.0642 5.80506 20.0133C5.79945 19.9625 5.81408 19.9114 5.84578 19.8712C7.9291 17.1951 10.8487 15.294 14.1388 14.4712C14.1854 14.4594 14.2348 14.4651 14.2775 14.4872C14.3203 14.5093 14.3534 14.5463 14.3708 14.5912C15.189 16.7229 15.8252 18.9201 16.2728 21.1592ZM21.3748 14.4432C21.4244 14.4551 21.4673 14.486 21.4944 14.5291C21.5215 14.5723 21.5306 14.6244 21.5198 14.6742C21.02 16.9193 19.7428 18.9155 17.9138 20.3102C17.8874 20.3301 17.8564 20.343 17.8236 20.3477C17.7909 20.3524 17.7575 20.3488 17.7266 20.3371C17.6956 20.3254 17.6681 20.3061 17.6467 20.2809C17.6252 20.2558 17.6104 20.2256 17.6038 20.1932C17.1756 18.2203 16.6054 16.2809 15.8978 14.3902C15.8871 14.362 15.8829 14.3318 15.8857 14.3018C15.8884 14.2719 15.898 14.2429 15.9136 14.2171C15.9292 14.1914 15.9505 14.1696 15.9758 14.1533C16.0012 14.137 16.0299 14.1267 16.0598 14.1232C17.8366 13.9192 19.6353 14.0275 21.3748 14.4432ZM19.9738 7.3022C19.9956 7.28749 20.0202 7.27729 20.046 7.2722C20.0719 7.2671 20.0985 7.26721 20.1243 7.27252C20.1501 7.27782 20.1745 7.28822 20.1963 7.30311C20.218 7.31799 20.2365 7.33706 20.2508 7.3592C21.2676 8.96871 21.7886 10.8418 21.7488 12.7452C21.7479 12.7747 21.7405 12.8036 21.7271 12.8298C21.7137 12.8561 21.6947 12.879 21.6713 12.897C21.648 12.915 21.6209 12.9276 21.5921 12.9338C21.5633 12.9401 21.5335 12.9399 21.5048 12.9332C19.4971 12.4808 17.4233 12.4012 15.3868 12.6982C15.3427 12.7047 15.2978 12.6964 15.2589 12.6747C15.22 12.653 15.1894 12.6191 15.1718 12.5782C14.8716 11.8765 14.5521 11.1833 14.2138 10.4992C14.2015 10.474 14.1946 10.4466 14.1935 10.4186C14.1924 10.3907 14.1972 10.3628 14.2074 10.3367C14.2176 10.3107 14.2332 10.2871 14.2531 10.2673C14.2729 10.2476 14.2967 10.2323 14.3228 10.2222C16.3228 9.4532 18.2168 8.4712 19.9738 7.3022Z" fill="#C4C4C4"/>
</g>
</svg>
