<svg width="16" height="17" viewBox="0 0 16 17" fill="none" xmlns="http://www.w3.org/2000/svg">
<g id="bi:stack" clip-path="url(#clip0_27_92)">
<g id="Group">
<path id="Vector" d="M14.1199 10.6629L15.8349 11.5209C16.0549 11.6309 16.0549 11.9449 15.8349 12.0549L8.26693 15.8399C8.184 15.8813 8.0926 15.9028 7.99993 15.9028C7.90725 15.9028 7.81585 15.8813 7.73293 15.8399L0.164927 12.0549C0.115489 12.03 0.0739401 11.9918 0.0449099 11.9447C0.0158797 11.8976 0.000508306 11.8433 0.000508306 11.7879C0.000508306 11.7326 0.0158797 11.6783 0.0449099 11.6311C0.0739401 11.584 0.115489 11.5458 0.164927 11.5209L1.88093 10.6629L7.19793 13.3219C7.70293 13.5739 8.29793 13.5739 8.80193 13.3219L14.1189 10.6619L14.1199 10.6629ZM7.73293 0.562916C7.81585 0.521539 7.90725 0.5 7.99993 0.5C8.0926 0.5 8.184 0.521539 8.26693 0.562916L15.8349 4.34692C15.8843 4.372 15.9258 4.41026 15.9548 4.45748C15.9838 4.5047 15.9991 4.55902 15.9991 4.61442C15.9991 4.66982 15.9838 4.72414 15.9548 4.77135C15.9258 4.81857 15.8843 4.85684 15.8349 4.88192L8.26693 8.66492C8.184 8.70629 8.0926 8.72783 7.99993 8.72783C7.90725 8.72783 7.81585 8.70629 7.73293 8.66492L0.164927 4.88192C0.115227 4.8571 0.0734238 4.81892 0.0442061 4.77167C0.0149884 4.72442 -0.000488281 4.66997 -0.000488281 4.61442C-0.000488281 4.55886 0.0149884 4.50441 0.0442061 4.45716C0.0734238 4.40991 0.115227 4.37174 0.164927 4.34692L7.73293 0.562916Z" fill="#616161"/>
<path id="Vector_2" d="M14.1199 7.07568L15.8349 7.93368C16.0549 8.04368 16.0549 8.35768 15.8349 8.46768L8.26691 12.2517C8.18398 12.2931 8.09258 12.3146 7.99991 12.3146C7.90723 12.3146 7.81583 12.2931 7.73291 12.2517L0.164907 8.46768C0.115469 8.44276 0.0739201 8.40461 0.0448899 8.35747C0.0158597 8.31032 0.000488281 8.25605 0.000488281 8.20068C0.000488281 8.14532 0.0158597 8.09104 0.0448899 8.0439C0.0739201 7.99676 0.115469 7.9586 0.164907 7.93368L1.88091 7.07568L7.19791 9.73468C7.70291 9.98668 8.29791 9.98668 8.80191 9.73468L14.1199 7.07568Z" fill="#616161"/>
</g>
</g>
<defs>
<clipPath id="clip0_27_92">
<rect width="16" height="16" fill="white" transform="translate(0 0.5)"/>
</clipPath>
</defs>
</svg>
