<svg width="32" height="32" viewBox="0 0 32 32" fill="none" xmlns="http://www.w3.org/2000/svg">
<g id="eva:email-outline">
<g id="evaEmailOutline0">
<g id="evaEmailOutline1">
<path id="evaEmailOutline2" d="M25.3332 5.33337L6.6665 5.33337C5.60564 5.33337 4.58822 5.7548 3.83808 6.50495C3.08793 7.25509 2.6665 8.27251 2.6665 9.33337L2.6665 22.6667C2.6665 23.7276 3.08793 24.745 3.83808 25.4951C4.58822 26.2453 5.60564 26.6667 6.6665 26.6667H25.3332C26.394 26.6667 27.4115 26.2453 28.1616 25.4951C28.9117 24.745 29.3332 23.7276 29.3332 22.6667V9.33337C29.3332 8.27251 28.9117 7.25509 28.1616 6.50495C27.4115 5.7548 26.394 5.33337 25.3332 5.33337ZM24.4398 8.00004L15.9998 14.3334L7.55984 8.00004H24.4398ZM25.3332 24H6.6665C6.31288 24 5.97374 23.8596 5.7237 23.6095C5.47365 23.3595 5.33317 23.0203 5.33317 22.6667V9.66671L15.1998 17.0667C15.4306 17.2398 15.7113 17.3334 15.9998 17.3334C16.2883 17.3334 16.569 17.2398 16.7998 17.0667L26.6665 9.66671V22.6667C26.6665 23.0203 26.526 23.3595 26.276 23.6095C26.0259 23.8596 25.6868 24 25.3332 24Z" fill="#C3C3C3"/>
</g>
</g>
</g>
</svg>
