<svg width="8" height="9" viewBox="0 0 8 9" fill="none" xmlns="http://www.w3.org/2000/svg">
<path id="Exclude" fill-rule="evenodd" clip-rule="evenodd" d="M6.62125 5.5213C7.19002 4.95581 7.54213 4.17263 7.54213 3.30721C7.54213 1.58289 6.1443 0.185059 4.41998 0.185059C2.84137 0.185059 1.53639 1.35665 1.32713 2.87775C0.758358 3.44324 0.40625 4.22642 0.40625 5.09184C0.40625 6.81616 1.80408 8.21399 3.5284 8.21399C5.10701 8.21399 6.41199 7.0424 6.62125 5.5213ZM4.41998 6.42935C5.27888 6.42935 6.05677 6.08253 6.62125 5.5213C6.64056 5.38091 6.65054 5.23754 6.65054 5.09184C6.65054 3.36753 5.25271 1.96969 3.5284 1.96969C2.6695 1.96969 1.89161 2.31651 1.32713 2.87775C1.30781 3.01814 1.29783 3.16151 1.29783 3.30721C1.29783 5.03152 2.69567 6.42935 4.41998 6.42935Z" fill="#8578C5"/>
</svg>
