<svg width="21" height="22" viewBox="0 0 21 22" fill="none" xmlns="http://www.w3.org/2000/svg">
<path d="M2.62616 11.0709C2.62616 11.419 2.76444 11.7529 3.01058 11.999C3.25672 12.2452 3.59056 12.3834 3.93866 12.3834L14.3337 12.3834L10.8862 15.8309C10.6543 16.0798 10.5281 16.4088 10.5341 16.7489C10.5401 17.0889 10.6778 17.4133 10.9183 17.6538C11.1588 17.8943 11.4832 18.032 11.8232 18.038C12.1633 18.044 12.4923 17.9178 12.7412 17.6859L18.4287 11.9984C18.6744 11.7524 18.8125 11.4188 18.8125 11.0709C18.8125 10.7231 18.6744 10.3895 18.4287 10.1434L12.7412 4.45595C12.621 4.327 12.4761 4.22357 12.3151 4.15183C12.1541 4.0801 11.9803 4.04152 11.8041 4.03841C11.6278 4.0353 11.4528 4.06772 11.2894 4.13373C11.1259 4.19974 10.9775 4.298 10.8528 4.42263C10.7282 4.54726 10.63 4.69572 10.5639 4.85915C10.4979 5.02258 10.4655 5.19763 10.4686 5.37386C10.4717 5.55009 10.5103 5.72389 10.582 5.88489C10.6538 6.04589 10.7572 6.19079 10.8862 6.31095L14.3337 9.75845L3.93866 9.75845C3.21416 9.75845 2.62616 10.3464 2.62616 11.0709Z" fill="white"/>
</svg>
