<svg width="12" height="13" viewBox="0 0 12 13" fill="none" xmlns="http://www.w3.org/2000/svg">
<path d="M10.5 6.49985C10.5 6.30093 10.421 6.11017 10.2803 5.96952C10.1397 5.82886 9.94892 5.74985 9.75001 5.74985L3.81001 5.74985L5.78001 3.77985C5.91249 3.63767 5.98461 3.44963 5.98119 3.25532C5.97776 3.06102 5.89905 2.87564 5.76163 2.73822C5.62422 2.60081 5.43883 2.5221 5.24453 2.51867C5.05023 2.51524 4.86219 2.58737 4.72001 2.71985L1.47001 5.96985C1.32956 6.11047 1.25067 6.3011 1.25067 6.49985C1.25067 6.6986 1.32956 6.88922 1.47001 7.02985L4.72001 10.2798C4.78867 10.3535 4.87147 10.4126 4.96347 10.4536C5.05547 10.4946 5.15479 10.5167 5.25549 10.5184C5.35619 10.5202 5.45622 10.5017 5.54961 10.464C5.643 10.4262 5.72783 10.3701 5.79905 10.2989C5.87027 10.2277 5.92641 10.1428 5.96413 10.0494C6.00186 9.95606 6.02038 9.85603 6.0186 9.75532C6.01683 9.65462 5.99478 9.55531 5.95379 9.46331C5.9128 9.37131 5.8537 9.28851 5.78001 9.21985L3.81001 7.24985L9.75001 7.24985C10.164 7.24985 10.5 6.91385 10.5 6.49985Z" fill="white"/>
</svg>
