<svg width="354" height="288" viewBox="0 0 354 288" fill="none" xmlns="http://www.w3.org/2000/svg">
<g clip-path="url(#clip0_272_4394)">
<path d="M333.101 0.210938H21.1405C9.73891 0.210938 0.496094 9.45375 0.496094 20.8553V267.442C0.496094 278.843 9.73891 288.086 21.1405 288.086H333.101C344.502 288.086 353.745 278.843 353.745 267.442V20.8553C353.745 9.45375 344.502 0.210938 333.101 0.210938Z" fill="url(#paint0_linear_272_4394)"/>
<path d="M353.178 149.309C346.344 149.308 330.169 134.171 325.312 129.31C319.241 123.234 313.166 133.107 310.892 151.337C308.824 167.918 292.03 206.018 275.982 174.123C263.496 149.309 254.153 163.962 254.153 185.243C254.153 218.663 242.618 226.228 232.752 237.621C227.591 242.782 230.802 248.173 220.709 253.678C208.093 260.559 200.065 258.839 191.463 264C182.861 269.161 182.861 271.455 181.141 274.896C179.421 278.336 178.847 280.057 175.406 281.204C171.966 282.351 169.672 282.924 169.672 288.085" stroke="#1F1F1F" stroke-width="2.29382"/>
<path d="M79.4307 31.9351H43.8431C38.9052 31.9351 34.9023 35.938 34.9023 40.8758V40.8758C34.9023 45.8137 38.9052 49.8166 43.8431 49.8166H79.4307C84.3685 49.8166 88.3714 45.8137 88.3714 40.8758V40.8758C88.3714 35.938 84.3685 31.9351 79.4307 31.9351Z" fill="#8578C5"/>
<path d="M43.8097 44.5374C43.3079 44.5374 42.8719 44.4597 42.5015 44.3044C42.1341 44.1491 41.8444 43.9325 41.6324 43.6548C41.4203 43.377 41.3008 43.0529 41.274 42.6826L41.2695 42.6199H42.3895L42.394 42.6647C42.4119 42.8469 42.4836 43.0052 42.609 43.1396C42.7375 43.274 42.9077 43.38 43.1198 43.4577C43.3318 43.5323 43.5738 43.5697 43.8456 43.5697C44.1054 43.5697 44.3354 43.5293 44.5355 43.4487C44.7356 43.368 44.8924 43.2575 45.0059 43.1172C45.1194 42.9738 45.1762 42.8095 45.1762 42.6243V42.6199C45.1762 42.3869 45.0851 42.1972 44.9029 42.0509C44.7207 41.9016 44.4205 41.7821 44.0024 41.6925L43.3079 41.5491C42.6449 41.4087 42.1625 41.1847 41.8609 40.8771C41.5622 40.5665 41.4128 40.1707 41.4128 39.6899V39.6854C41.4128 39.3001 41.5144 38.9626 41.7175 38.6729C41.9236 38.3832 42.2058 38.1577 42.5642 37.9964C42.9256 37.8321 43.3393 37.75 43.8052 37.75C44.2831 37.75 44.6968 37.8306 45.0462 37.9919C45.3957 38.1502 45.6705 38.3667 45.8706 38.6415C46.0707 38.9163 46.1827 39.2269 46.2066 39.5734L46.2111 39.6316H45.109L45.1 39.5779C45.0731 39.4076 45.0029 39.2598 44.8894 39.1343C44.7789 39.0059 44.6311 38.9044 44.4459 38.8297C44.2607 38.755 44.0442 38.7177 43.7963 38.7177C43.5603 38.7177 43.3498 38.755 43.1646 38.8297C42.9794 38.9014 42.833 39.0029 42.7255 39.1343C42.621 39.2658 42.5687 39.424 42.5687 39.6092V39.6137C42.5687 39.8407 42.6568 40.0289 42.833 40.1782C43.0123 40.3275 43.3035 40.444 43.7067 40.5277L44.4011 40.6755C45.0821 40.8189 45.5734 41.0354 45.8751 41.3251C46.1797 41.6118 46.332 42.0001 46.332 42.4899V42.4944C46.332 42.9126 46.229 43.274 46.0229 43.5786C45.8198 43.8833 45.5286 44.1192 45.1493 44.2865C44.7729 44.4537 44.3264 44.5374 43.8097 44.5374ZM47.6313 44.3761V37.9113H48.7871V44.3761H47.6313ZM53.1463 44.5374C52.5221 44.5374 51.983 44.4 51.529 44.1252C51.075 43.8504 50.724 43.4591 50.4761 42.9514C50.2312 42.4437 50.1088 41.8418 50.1088 41.1459V41.1369C50.1088 40.447 50.2327 39.8497 50.4806 39.3449C50.7285 38.8372 51.078 38.4444 51.529 38.1666C51.983 37.8889 52.5161 37.75 53.1284 37.75C53.6272 37.75 54.0722 37.8396 54.4634 38.0188C54.8577 38.195 55.1803 38.4429 55.4312 38.7625C55.682 39.0791 55.8418 39.4479 55.9105 39.8691L55.9195 39.9139H54.7726L54.7591 39.8691C54.6546 39.5137 54.4605 39.2389 54.1767 39.0447C53.893 38.8476 53.5435 38.749 53.1284 38.749C52.752 38.749 52.425 38.8461 52.1472 39.0403C51.8724 39.2344 51.6604 39.5092 51.511 39.8646C51.3617 40.22 51.287 40.6411 51.287 41.128V41.1369C51.287 41.6298 51.3632 42.0569 51.5155 42.4183C51.6678 42.7767 51.8844 43.0529 52.1651 43.2471C52.4459 43.4412 52.7789 43.5383 53.1642 43.5383C53.4928 43.5383 53.781 43.4741 54.0289 43.3456C54.2798 43.2172 54.4754 43.038 54.6158 42.808C54.7591 42.5781 54.8338 42.3107 54.8398 42.0061V41.8717H53.2897V40.9891H55.9688V41.7955C55.9688 42.354 55.8523 42.8379 55.6193 43.2471C55.3893 43.6563 55.0638 43.9744 54.6426 44.2014C54.2215 44.4254 53.7227 44.5374 53.1463 44.5374ZM57.3173 44.3761V37.9113H58.3208L61.7884 42.7722L60.991 42.3645H61.5689V37.9113H62.68V44.3761H61.6809L58.2133 39.5107L59.0108 39.9184H58.4328V44.3761H57.3173ZM66.9316 44.5374C66.388 44.5374 65.9176 44.4373 65.5204 44.2372C65.1231 44.0371 64.8155 43.7578 64.5975 43.3994C64.3824 43.041 64.2749 42.6243 64.2749 42.1495V37.9113H65.4263V42.0554C65.4263 42.5004 65.5577 42.8588 65.8206 43.1306C66.0834 43.4024 66.4552 43.5383 66.9361 43.5383C67.417 43.5383 67.7873 43.4024 68.0472 43.1306C68.307 42.8588 68.4369 42.5004 68.4369 42.0554V37.9113H69.5883V42.1495C69.5883 42.6243 69.4808 43.041 69.2658 43.3994C69.0507 43.7578 68.7446 44.0371 68.3473 44.2372C67.9531 44.4373 67.4812 44.5374 66.9316 44.5374ZM71.7567 42.2391V41.3072H73.4771C73.8922 41.3072 74.2148 41.2012 74.4448 40.9891C74.6748 40.7741 74.7898 40.4724 74.7898 40.0841V40.0752C74.7898 39.6839 74.6748 39.3822 74.4448 39.1702C74.2148 38.9581 73.8922 38.8521 73.4771 38.8521H71.7567V37.9113H73.7593C74.1984 37.9113 74.5822 38.0009 74.9107 38.1801C75.2393 38.3593 75.4961 38.6117 75.6813 38.9372C75.8665 39.2598 75.9591 39.6376 75.9591 40.0707V40.0796C75.9591 40.5097 75.8665 40.8876 75.6813 41.2131C75.4961 41.5357 75.2393 41.7881 74.9107 41.9703C74.5822 42.1495 74.1984 42.2391 73.7593 42.2391H71.7567ZM71.1788 44.3761V37.9113H72.3346V44.3761H71.1788ZM79.4804 44.5374C78.9787 44.5374 78.5426 44.4597 78.1722 44.3044C77.8049 44.1491 77.5152 43.9325 77.3031 43.6548C77.091 43.377 76.9716 43.0529 76.9447 42.6826L76.9402 42.6199H78.0602L78.0647 42.6647C78.0826 42.8469 78.1543 43.0052 78.2798 43.1396C78.4082 43.274 78.5784 43.38 78.7905 43.4577C79.0026 43.5323 79.2445 43.5697 79.5163 43.5697C79.7761 43.5697 80.0061 43.5293 80.2062 43.4487C80.4063 43.368 80.5631 43.2575 80.6766 43.1172C80.7901 42.9738 80.8469 42.8095 80.8469 42.6243V42.6199C80.8469 42.3869 80.7558 42.1972 80.5736 42.0509C80.3914 41.9016 80.0912 41.7821 79.6731 41.6925L78.9787 41.5491C78.3156 41.4087 77.8333 41.1847 77.5316 40.8771C77.2329 40.5665 77.0836 40.1707 77.0836 39.6899V39.6854C77.0836 39.3001 77.1851 38.9626 77.3882 38.6729C77.5943 38.3832 77.8766 38.1577 78.235 37.9964C78.5964 37.8321 79.01 37.75 79.476 37.75C79.9538 37.75 80.3675 37.8306 80.717 37.9919C81.0664 38.1502 81.3412 38.3667 81.5413 38.6415C81.7414 38.9163 81.8534 39.2269 81.8773 39.5734L81.8818 39.6316H80.7797L80.7707 39.5779C80.7438 39.4076 80.6736 39.2598 80.5602 39.1343C80.4496 39.0059 80.3018 38.9044 80.1166 38.8297C79.9314 38.755 79.7149 38.7177 79.467 38.7177C79.2311 38.7177 79.0205 38.755 78.8353 38.8297C78.6501 38.9014 78.5038 39.0029 78.3963 39.1343C78.2917 39.2658 78.2395 39.424 78.2395 39.6092V39.6137C78.2395 39.8407 78.3276 40.0289 78.5038 40.1782C78.683 40.3275 78.9742 40.444 79.3774 40.5277L80.0718 40.6755C80.7528 40.8189 81.2441 41.0354 81.5458 41.3251C81.8504 41.6118 82.0028 42.0001 82.0028 42.4899V42.4944C82.0028 42.9126 81.8997 43.274 81.6936 43.5786C81.4905 43.8833 81.1993 44.1192 80.82 44.2865C80.4437 44.4537 79.9972 44.5374 79.4804 44.5374Z" fill="#171717"/>
<path d="M98.6836 44.3761V37.9113H101.296C101.759 37.9113 102.156 37.9934 102.487 38.1577C102.819 38.3219 103.073 38.5534 103.249 38.8521C103.425 39.1508 103.513 39.5062 103.513 39.9184V39.9273C103.513 40.3544 103.406 40.7337 103.191 41.0653C102.979 41.3938 102.682 41.6268 102.299 41.7642L103.711 44.3761H102.393L101.121 41.9434C101.115 41.9434 101.106 41.9434 101.094 41.9434C101.082 41.9434 101.072 41.9434 101.063 41.9434H99.8395V44.3761H98.6836ZM99.8395 41.0563H101.175C101.542 41.0563 101.827 40.9592 102.03 40.7651C102.234 40.571 102.335 40.3007 102.335 39.9542V39.9452C102.335 39.6077 102.229 39.3404 102.017 39.1433C101.808 38.9432 101.52 38.8431 101.152 38.8431H99.8395V41.0563ZM104.92 44.3761V37.9113H109.105V38.8834H106.076V40.6352H108.939V41.5536H106.076V43.4039H109.105V44.3761H104.92ZM112.147 44.3761V38.8834H110.157V37.9113H115.292V38.8834H113.302V44.3761H112.147ZM116.506 44.3761V37.9113H120.69V38.8834H117.662V40.6352H120.524V41.5536H117.662V43.4039H120.69V44.3761H116.506ZM122.124 44.3761V37.9113H123.127L126.595 42.7722L125.798 42.3645H126.375V37.9113H127.487V44.3761H126.487L123.02 39.5107L123.817 39.9184H123.239V44.3761H122.124ZM130.694 44.3761V38.8834H128.705V37.9113H133.839V38.8834H131.85V44.3761H130.694ZM135.053 44.3761V37.9113H136.209V44.3761H135.053ZM140.591 44.5374C139.958 44.5374 139.413 44.4 138.956 44.1252C138.502 43.8474 138.151 43.4547 137.903 42.9469C137.655 42.4392 137.531 41.8388 137.531 41.1459V41.1369C137.531 40.441 137.655 39.8407 137.903 39.3359C138.154 38.8282 138.508 38.4369 138.965 38.1621C139.425 37.8874 139.967 37.75 140.591 37.75C141.218 37.75 141.76 37.8874 142.217 38.1621C142.674 38.4369 143.027 38.8282 143.274 39.3359C143.522 39.8437 143.646 40.444 143.646 41.1369V41.1459C143.646 41.8388 143.522 42.4392 143.274 42.9469C143.03 43.4547 142.679 43.8474 142.222 44.1252C141.765 44.4 141.221 44.5374 140.591 44.5374ZM140.591 43.5383C140.976 43.5383 141.309 43.4397 141.59 43.2426C141.871 43.0455 142.087 42.7677 142.24 42.4093C142.395 42.0509 142.473 41.6298 142.473 41.1459V41.1369C142.473 40.6501 142.395 40.229 142.24 39.8736C142.087 39.5151 141.871 39.2389 141.59 39.0447C141.309 38.8476 140.976 38.749 140.591 38.749C140.209 38.749 139.876 38.8476 139.592 39.0447C139.311 39.2389 139.093 39.5151 138.938 39.8736C138.785 40.229 138.709 40.6501 138.709 41.1369V41.1459C138.709 41.6298 138.784 42.0509 138.933 42.4093C139.086 42.7677 139.302 43.0455 139.583 43.2426C139.867 43.4397 140.203 43.5383 140.591 43.5383ZM144.972 44.3761V37.9113H145.976L149.444 42.7722L148.646 42.3645H149.224V37.9113H150.335V44.3761H149.336L145.868 39.5107L146.666 39.9184H146.088V44.3761H144.972ZM154.381 44.3761V37.9113H156.993C157.456 37.9113 157.853 37.9934 158.184 38.1577C158.516 38.3219 158.77 38.5534 158.946 38.8521C159.122 39.1508 159.21 39.5062 159.21 39.9184V39.9273C159.21 40.3544 159.103 40.7337 158.888 41.0653C158.676 41.3938 158.378 41.6268 157.996 41.7642L159.407 44.3761H158.09L156.818 41.9434C156.812 41.9434 156.803 41.9434 156.791 41.9434C156.779 41.9434 156.769 41.9434 156.76 41.9434H155.537V44.3761H154.381ZM155.537 41.0563H156.872C157.239 41.0563 157.524 40.9592 157.727 40.7651C157.93 40.571 158.032 40.3007 158.032 39.9542V39.9452C158.032 39.6077 157.926 39.3404 157.714 39.1433C157.505 38.9432 157.217 38.8431 156.849 38.8431H155.537V41.0563ZM160.138 44.3761L162.431 37.9113H163.39V39.1119H163.045L161.347 44.3761H160.138ZM161.294 42.705L161.594 41.8134H164.56L164.86 42.705H161.294ZM164.819 44.3761L163.121 39.1119V37.9113H163.731L166.029 44.3761H164.819ZM168.032 44.3761V38.8834H166.042V37.9113H171.177V38.8834H169.187V44.3761H168.032ZM172.391 44.3761V37.9113H176.575V38.8834H173.547V40.6352H176.409V41.5536H173.547V43.4039H176.575V44.3761H172.391Z" fill="#656565"/>
<path d="M303.134 18.1074H232.102C223.537 18.1074 216.594 25.0506 216.594 33.6154V33.6155C216.594 42.1804 223.537 49.1235 232.102 49.1235H303.134C311.699 49.1235 318.642 42.1804 318.642 33.6155V33.6154C318.642 25.0506 311.699 18.1074 303.134 18.1074Z" fill="url(#paint1_linear_272_4394)"/>
<path d="M303.134 18.1074H232.102C223.537 18.1074 216.594 25.0506 216.594 33.6154V33.6155C216.594 42.1804 223.537 49.1235 232.102 49.1235H303.134C311.699 49.1235 318.642 42.1804 318.642 33.6155V33.6154C318.642 25.0506 311.699 18.1074 303.134 18.1074Z" stroke="url(#paint2_linear_272_4394)" stroke-width="1.38585"/>
<path d="M237.096 37.1159V30.1813H234.578V29.3043H240.587V30.1813H238.07V37.1159H237.096ZM242.027 37.1159V28.9632H242.969V32.1572H243.056C243.204 31.8468 243.417 31.6068 243.695 31.4372C243.973 31.2639 244.326 31.1773 244.756 31.1773C245.192 31.1773 245.562 31.2621 245.866 31.4318C246.169 31.5978 246.4 31.8414 246.558 32.1626C246.717 32.4838 246.797 32.8754 246.797 33.3373V37.1159H245.855V33.5647C245.855 33.0378 245.743 32.648 245.519 32.3954C245.299 32.1391 244.956 32.011 244.491 32.011C244.18 32.011 243.911 32.0778 243.684 32.2113C243.457 32.3448 243.28 32.5343 243.153 32.7797C243.031 33.0251 242.969 33.3193 242.969 33.6621V37.1159H242.027ZM248.524 37.1159V31.2802H249.466V37.1159H248.524ZM249 30.1542C248.823 30.1542 248.67 30.091 248.54 29.9647C248.414 29.8348 248.35 29.6814 248.35 29.5046C248.35 29.3241 248.414 29.1707 248.54 29.0444C248.67 28.9181 248.823 28.855 249 28.855C249.18 28.855 249.334 28.9181 249.46 29.0444C249.586 29.1707 249.65 29.3241 249.65 29.5046C249.65 29.6814 249.586 29.8348 249.46 29.9647C249.334 30.091 249.18 30.1542 249 30.1542ZM253.244 37.2188C252.811 37.2188 252.429 37.1538 252.096 37.0239C251.764 36.8904 251.497 36.7045 251.295 36.4663C251.097 36.2281 250.979 35.9484 250.943 35.6272H251.907C251.986 35.869 252.142 36.0639 252.373 36.2119C252.604 36.3598 252.905 36.4338 253.277 36.4338C253.54 36.4338 253.771 36.3959 253.97 36.3201C254.172 36.2407 254.33 36.1343 254.446 36.0007C254.561 35.8636 254.619 35.7066 254.619 35.5298V35.5189C254.619 35.3205 254.54 35.1526 254.381 35.0155C254.222 34.8747 253.962 34.7611 253.601 34.6744L252.697 34.4579C252.152 34.328 251.752 34.1385 251.496 33.8895C251.239 33.6369 251.111 33.3012 251.111 32.8826V32.8772C251.111 32.5524 251.205 32.2618 251.393 32.0056C251.584 31.7494 251.844 31.5473 252.172 31.3993C252.501 31.2513 252.871 31.1773 253.282 31.1773C253.69 31.1773 254.051 31.2423 254.365 31.3722C254.682 31.4985 254.937 31.679 255.128 31.9136C255.323 32.1482 255.442 32.4242 255.485 32.7418H254.56C254.498 32.5109 254.358 32.3232 254.137 32.1788C253.917 32.0345 253.63 31.9623 253.277 31.9623C253.046 31.9623 252.84 32.0002 252.659 32.076C252.479 32.1482 252.336 32.2492 252.232 32.3791C252.127 32.5091 252.075 32.6606 252.075 32.8339V32.8447C252.075 33.0432 252.152 33.2074 252.308 33.3373C252.463 33.4672 252.712 33.5737 253.055 33.6567L253.953 33.8732C254.502 34.0068 254.91 34.1981 255.177 34.4471C255.447 34.6961 255.583 35.0299 255.583 35.4486V35.4594C255.583 35.8059 255.48 36.1126 255.274 36.3797C255.068 36.6431 254.789 36.8489 254.435 36.9968C254.085 37.1448 253.688 37.2188 253.244 37.2188ZM260.661 39.1622C260.599 39.1622 260.531 39.1586 260.455 39.1514C260.379 39.1478 260.309 39.1406 260.244 39.1297V38.3556C260.302 38.3664 260.365 38.3737 260.433 38.3773C260.502 38.3809 260.569 38.3827 260.634 38.3827C260.901 38.3827 261.119 38.3141 261.289 38.177C261.462 38.0398 261.601 37.8034 261.705 37.4678L261.814 37.1213L259.654 31.2802H260.661L262.458 36.672L262.084 36.0819H262.528L262.155 36.672L263.947 31.2802H264.937L262.658 37.4732C262.496 37.9099 262.326 38.2509 262.149 38.4964C261.976 38.7418 261.77 38.9132 261.532 39.0106C261.298 39.1117 261.007 39.1622 260.661 39.1622ZM268.348 37.2188C267.792 37.2188 267.314 37.0961 266.913 36.8507C266.516 36.6053 266.209 36.2588 265.993 35.8113C265.78 35.3602 265.673 34.8296 265.673 34.2197V34.2143C265.673 33.6116 265.78 33.0829 265.993 32.6281C266.209 32.1734 266.514 31.8179 266.908 31.5617C267.301 31.3055 267.761 31.1773 268.288 31.1773C268.819 31.1773 269.273 31.3 269.652 31.5455C270.035 31.7909 270.327 32.1337 270.529 32.574C270.735 33.0107 270.838 33.5196 270.838 34.1006V34.4687H266.161V33.7163H270.356L269.891 34.4038V34.0302C269.891 33.5719 269.822 33.1948 269.685 32.8988C269.548 32.6029 269.358 32.3827 269.116 32.2384C268.875 32.0904 268.597 32.0164 268.283 32.0164C267.969 32.0164 267.687 32.094 267.438 32.2492C267.193 32.4008 266.998 32.6263 266.854 32.9259C266.709 33.2254 266.637 33.5936 266.637 34.0302V34.4038C266.637 34.8188 266.707 35.1743 266.848 35.4702C266.989 35.7626 267.189 35.9881 267.449 36.1469C267.709 36.3021 268.016 36.3797 268.369 36.3797C268.633 36.3797 268.862 36.3436 269.057 36.2714C269.252 36.1992 269.412 36.1072 269.539 35.9953C269.665 35.8835 269.753 35.7698 269.804 35.6543L269.826 35.6056H270.768L270.757 35.6489C270.706 35.8474 270.616 36.0404 270.486 36.2281C270.36 36.4122 270.196 36.58 269.993 36.7316C269.791 36.8795 269.551 36.9986 269.273 37.0889C268.999 37.1755 268.691 37.2188 268.348 37.2188ZM273.902 37.2188C273.534 37.2188 273.202 37.1484 272.906 37.0077C272.614 36.8669 272.381 36.6666 272.208 36.4068C272.038 36.1469 271.953 35.8401 271.953 35.4865V35.4756C271.953 34.9559 272.137 34.5499 272.505 34.2576C272.877 33.9617 273.402 33.7938 274.081 33.7542L276.224 33.6242V34.3767L274.194 34.5066C273.75 34.5319 273.426 34.6239 273.22 34.7827C273.018 34.9415 272.917 35.1653 272.917 35.454V35.4648C272.917 35.7607 273.029 35.9917 273.252 36.1577C273.476 36.3201 273.758 36.4013 274.097 36.4013C274.418 36.4013 274.703 36.3382 274.952 36.2119C275.201 36.0819 275.396 35.9069 275.537 35.6868C275.681 35.4666 275.753 35.2176 275.753 34.9397V33.1208C275.753 32.7599 275.643 32.4856 275.423 32.2979C275.207 32.1066 274.88 32.011 274.443 32.011C274.093 32.011 273.806 32.0742 273.583 32.2005C273.359 32.3232 273.209 32.4982 273.133 32.7256L273.128 32.7418H272.186L272.191 32.7093C272.242 32.4026 272.368 32.1355 272.57 31.9082C272.776 31.6772 273.041 31.4985 273.366 31.3722C273.691 31.2423 274.061 31.1773 274.476 31.1773C274.952 31.1773 275.355 31.2549 275.683 31.4101C276.015 31.5653 276.266 31.7891 276.435 32.0814C276.609 32.3701 276.695 32.7166 276.695 33.1208V37.1159H275.753V36.2552H275.667C275.544 36.4609 275.394 36.6359 275.217 36.7803C275.044 36.9246 274.848 37.0347 274.627 37.1105C274.407 37.1827 274.165 37.2188 273.902 37.2188ZM278.417 37.1159V31.2802H279.359V32.1463H279.445C279.557 31.8396 279.747 31.6014 280.014 31.4318C280.281 31.2621 280.611 31.1773 281.004 31.1773C281.095 31.1773 281.183 31.1827 281.27 31.1936C281.36 31.2008 281.429 31.208 281.475 31.2152V32.1301C281.378 32.1121 281.282 32.0994 281.189 32.0922C281.098 32.0814 281.001 32.076 280.896 32.076C280.597 32.076 280.331 32.1355 280.1 32.2546C279.869 32.3737 279.687 32.5397 279.554 32.7527C279.424 32.9656 279.359 33.2146 279.359 33.4997V37.1159H278.417Z" fill="#6B6B6B"/>
<path d="M295.777 32.23L298.549 35.0017L301.32 32.23" stroke="#6B6B6B" stroke-width="1.38585" stroke-linecap="round" stroke-linejoin="round"/>
<path d="M68.0537 152.755V139.324H37.9883V134.272C39.7955 131.534 41.6027 128.809 43.4099 126.098C45.2445 123.388 47.0791 120.677 48.9137 117.966C50.7483 115.228 52.5692 112.503 54.3764 109.793C56.1836 107.082 58.0045 104.371 59.8391 101.66C61.6737 98.922 63.4946 96.1975 65.3018 93.4867H73.4754V134.395H82.3061V139.324H73.4754V152.755H68.0537ZM43.6153 134.395H68.0537V98.4976H67.8484C66.2328 100.907 64.6173 103.303 63.0017 105.685C61.3862 108.04 59.7707 110.409 58.1551 112.791C56.5396 115.173 54.924 117.555 53.3085 119.938C51.693 122.32 50.0774 124.702 48.4619 127.084C46.8464 129.466 45.2308 131.862 43.6153 134.272V134.395ZM109.62 153.7C105.512 153.7 101.871 152.974 98.6942 151.523C95.5179 150.071 93.0261 148.073 91.2189 145.526C89.4117 142.952 88.5081 140.009 88.5081 136.695V136.613C88.5081 134.121 89.0694 131.835 90.1921 129.754C91.3147 127.646 92.8618 125.866 94.8333 124.415C96.8322 122.963 99.1186 121.964 101.693 121.416V121.293C98.3793 120.362 95.7096 118.733 93.6833 116.405C91.657 114.05 90.6439 111.271 90.6439 108.067V107.985C90.6439 105.001 91.4517 102.358 93.0672 100.058C94.7101 97.7309 96.9554 95.8963 99.8032 94.5546C102.678 93.2129 105.95 92.542 109.62 92.542C113.316 92.542 116.588 93.2129 119.436 94.5546C122.311 95.8963 124.557 97.7309 126.172 100.058C127.815 102.358 128.636 105.001 128.636 107.985V108.067C128.636 111.271 127.623 114.05 125.597 116.405C123.598 118.733 120.928 120.362 117.588 121.293V121.416C120.189 121.964 122.475 122.963 124.447 124.415C126.418 125.866 127.966 127.646 129.088 129.754C130.211 131.835 130.772 134.121 130.772 136.613V136.695C130.772 140.009 129.869 142.952 128.061 145.526C126.282 148.073 123.804 150.071 120.627 151.523C117.451 152.974 113.782 153.7 109.62 153.7ZM109.62 148.771C112.686 148.771 115.37 148.237 117.67 147.169C119.997 146.101 121.818 144.636 123.133 142.774C124.447 140.912 125.104 138.776 125.104 136.367V136.285C125.104 133.902 124.447 131.808 123.133 130C121.818 128.166 119.997 126.728 117.67 125.688C115.37 124.647 112.686 124.127 109.62 124.127C106.608 124.127 103.938 124.647 101.61 125.688C99.2829 126.728 97.462 128.166 96.1477 130C94.8333 131.808 94.1762 133.902 94.1762 136.285V136.367C94.1762 138.776 94.8333 140.912 96.1477 142.774C97.462 144.636 99.2829 146.101 101.61 147.169C103.938 148.237 106.608 148.771 109.62 148.771ZM109.62 119.157C112.276 119.157 114.603 118.705 116.602 117.802C118.628 116.898 120.216 115.639 121.367 114.023C122.517 112.407 123.092 110.573 123.092 108.519V108.437C123.092 106.301 122.517 104.412 121.367 102.769C120.244 101.099 118.669 99.7846 116.643 98.8262C114.617 97.8678 112.276 97.3887 109.62 97.3887C106.991 97.3887 104.663 97.8678 102.637 98.8262C100.611 99.7846 99.0228 101.099 97.8727 102.769C96.7501 104.412 96.1887 106.301 96.1887 108.437V108.519C96.1887 110.573 96.7638 112.407 97.9138 114.023C99.0639 115.639 100.638 116.898 102.637 117.802C104.663 118.705 106.991 119.157 109.62 119.157ZM139.767 152.755V93.4867H145.148V152.755H139.767ZM167.04 152.755L149.584 131.315L153.198 127.7L173.406 152.755H167.04ZM143.833 137.435V130.206H145.312L166.341 110.039H172.995L152.459 129.754H152.089L143.833 137.435Z" fill="#C4C4C4"/>
<path d="M36.2925 187.892V176.997H37.8705L41.6003 186.087H41.7211L45.451 176.997H47.0289V187.892H45.7604V179.571H45.0961L46.6212 177.299L42.2346 187.892H41.0868L36.7077 177.299L38.2253 179.571H37.561V187.892H36.2925ZM51.8761 188.035C51.3626 188.035 50.8997 187.937 50.4869 187.741C50.0792 187.544 49.7546 187.265 49.513 186.903C49.2764 186.54 49.1581 186.112 49.1581 185.619V185.604C49.1581 184.879 49.4148 184.313 49.9282 183.905C50.4467 183.492 51.1789 183.258 52.1252 183.203L55.1152 183.022V184.071L52.2839 184.252C51.6648 184.288 51.2117 184.416 50.9248 184.637C50.643 184.859 50.5019 185.171 50.5019 185.574V185.589C50.5019 186.002 50.6581 186.324 50.9701 186.555C51.2822 186.782 51.6747 186.895 52.1479 186.895C52.5958 186.895 52.9936 186.807 53.3409 186.631C53.6882 186.45 53.96 186.205 54.1562 185.898C54.3576 185.591 54.4582 185.244 54.4582 184.856V182.32C54.4582 181.816 54.3047 181.434 53.9977 181.172C53.6957 180.905 53.2401 180.772 52.6311 180.772C52.1428 180.772 51.7427 180.86 51.4306 181.036C51.1185 181.207 50.9097 181.451 50.804 181.768L50.7965 181.791H49.4827L49.4902 181.746C49.5607 181.318 49.7368 180.945 50.0187 180.628C50.3056 180.306 50.6757 180.057 51.1287 179.881C51.5817 179.7 52.0975 179.609 52.6764 179.609C53.3408 179.609 53.902 179.717 54.3601 179.934C54.8232 180.15 55.173 180.462 55.4095 180.87C55.6512 181.273 55.772 181.756 55.772 182.32V187.892H54.4582V186.691H54.3374C54.1663 186.978 53.9574 187.222 53.7108 187.423C53.4692 187.625 53.1949 187.778 52.8879 187.884C52.5808 187.985 52.2435 188.035 51.8761 188.035ZM58.173 187.892V179.753H59.4866V180.961H59.6076C59.7636 180.533 60.0277 180.2 60.4002 179.964C60.7727 179.727 61.2333 179.609 61.7819 179.609C61.9077 179.609 62.0312 179.617 62.152 179.632C62.2778 179.642 62.3734 179.652 62.4389 179.662V180.938C62.303 180.913 62.1696 180.895 62.0387 180.885C61.9129 180.87 61.777 180.862 61.631 180.862C61.2132 180.862 60.8432 180.945 60.521 181.112C60.1989 181.278 59.9447 181.509 59.7585 181.806C59.5773 182.103 59.4866 182.45 59.4866 182.848V187.892H58.173ZM64.1377 187.892V176.521H65.4514V187.892H64.1377ZM69.2641 187.892L66.0856 183.905L67.052 183.067L70.9177 187.892H69.2641ZM65.2853 184.962L65.2248 183.309H65.5721L69.0905 179.753H70.6837L66.818 183.482L66.5009 183.792L65.2853 184.962ZM75.4024 188.035C74.6273 188.035 73.9605 187.864 73.4017 187.522C72.8481 187.179 72.4202 186.696 72.1182 186.072C71.8212 185.443 71.6727 184.703 71.6727 183.852V183.845C71.6727 183.004 71.8212 182.267 72.1182 181.632C72.4202 180.998 72.8455 180.502 73.3942 180.145C73.9428 179.788 74.5845 179.609 75.3194 179.609C76.0593 179.609 76.6935 179.78 77.222 180.122C77.7556 180.465 78.1633 180.943 78.4452 181.557C78.7321 182.166 78.8756 182.876 78.8756 183.686V184.2H72.3523V183.15H78.2036L77.5542 184.109V183.588C77.5542 182.949 77.4587 182.423 77.2674 182.01C77.0762 181.597 76.8119 181.29 76.4747 181.089C76.1374 180.883 75.7498 180.779 75.3118 180.779C74.8739 180.779 74.4814 180.888 74.1341 181.104C73.7918 181.315 73.52 181.63 73.3187 182.048C73.1174 182.466 73.0167 182.979 73.0167 183.588V184.109C73.0167 184.688 73.1147 185.184 73.311 185.596C73.5073 186.004 73.7868 186.319 74.1492 186.54C74.5116 186.757 74.9395 186.865 75.4327 186.865C75.8002 186.865 76.1198 186.814 76.3916 186.714C76.6634 186.613 76.8873 186.485 77.0635 186.329C77.2397 186.173 77.3631 186.014 77.4335 185.853L77.4636 185.785H78.7774L78.7623 185.846C78.6918 186.122 78.5661 186.392 78.3849 186.653C78.2087 186.91 77.9797 187.144 77.6978 187.356C77.4159 187.562 77.0811 187.728 76.6935 187.854C76.311 187.975 75.8806 188.035 75.4024 188.035ZM83.8059 187.952C82.9703 187.952 82.3637 187.783 81.9862 187.446C81.6137 187.109 81.4275 186.553 81.4275 185.778V180.84H80.144V179.753H81.4275V177.646H82.7865V179.753H84.5684V180.84H82.7865V185.445C82.7865 185.924 82.8772 186.268 83.0584 186.48C83.2396 186.686 83.5416 186.789 83.9645 186.789C84.0802 186.789 84.1783 186.787 84.2588 186.782C84.3444 186.777 84.4476 186.769 84.5684 186.759V187.877C84.4425 187.897 84.3168 187.914 84.191 187.929C84.0651 187.944 83.9368 187.952 83.8059 187.952ZM86.5616 187.892V179.753H87.8754V187.892H86.5616ZM87.226 178.182C86.9794 178.182 86.7655 178.094 86.5843 177.918C86.4081 177.737 86.32 177.523 86.32 177.276C86.32 177.024 86.4081 176.81 86.5843 176.634C86.7655 176.458 86.9794 176.37 87.226 176.37C87.4777 176.37 87.6916 176.458 87.8678 176.634C88.044 176.81 88.1322 177.024 88.1322 177.276C88.1322 177.523 88.044 177.737 87.8678 177.918C87.6916 178.094 87.4777 178.182 87.226 178.182ZM90.3518 187.892V179.753H91.6655V180.976H91.7864C91.9928 180.543 92.2897 180.208 92.6773 179.971C93.0648 179.73 93.5581 179.609 94.1571 179.609C95.0732 179.609 95.7755 179.871 96.2637 180.394C96.757 180.913 97.0036 181.655 97.0036 182.622V187.892H95.6899V182.939C95.6899 182.204 95.5339 181.66 95.2218 181.308C94.9147 180.95 94.4366 180.772 93.7872 180.772C93.3544 180.772 92.9794 180.865 92.6623 181.051C92.3452 181.237 92.0985 181.502 91.9223 181.844C91.7512 182.186 91.6655 182.596 91.6655 183.075V187.892H90.3518ZM102.734 190.761C102.08 190.761 101.509 190.668 101.02 190.481C100.532 190.3 100.142 190.041 99.8499 189.704C99.563 189.371 99.3845 188.984 99.314 188.541L99.3291 188.533H100.688L100.696 188.541C100.766 188.848 100.978 189.1 101.33 189.296C101.682 189.497 102.15 189.598 102.734 189.598C103.464 189.598 104.033 189.432 104.441 189.1C104.853 188.772 105.06 188.309 105.06 187.71V186.064H104.939C104.768 186.361 104.554 186.616 104.297 186.827C104.04 187.038 103.751 187.2 103.429 187.31C103.107 187.416 102.759 187.469 102.387 187.469C101.687 187.469 101.081 187.303 100.567 186.97C100.059 186.633 99.6662 186.17 99.3894 185.581C99.1125 184.992 98.9741 184.318 98.9741 183.558V183.543C98.9741 182.783 99.1125 182.108 99.3894 181.519C99.6713 180.925 100.069 180.46 100.582 180.122C101.096 179.78 101.707 179.609 102.417 179.609C102.8 179.609 103.152 179.669 103.474 179.79C103.796 179.911 104.081 180.082 104.327 180.304C104.579 180.525 104.788 180.789 104.954 181.096H105.045V179.753H106.358V187.778C106.358 188.382 106.21 188.908 105.913 189.356C105.621 189.804 105.203 190.149 104.66 190.391C104.116 190.637 103.474 190.761 102.734 190.761ZM102.674 186.306C103.177 186.306 103.608 186.19 103.965 185.959C104.327 185.722 104.604 185.398 104.795 184.985C104.992 184.572 105.09 184.096 105.09 183.558V183.543C105.09 183.004 104.992 182.526 104.795 182.108C104.604 181.69 104.327 181.363 103.965 181.127C103.608 180.89 103.177 180.772 102.674 180.772C102.17 180.772 101.743 180.89 101.39 181.127C101.043 181.363 100.776 181.69 100.59 182.108C100.409 182.526 100.318 183.004 100.318 183.543V183.558C100.318 184.096 100.409 184.572 100.59 184.985C100.776 185.398 101.043 185.722 101.39 185.959C101.743 186.19 102.17 186.306 102.674 186.306ZM116.483 188.035C115.723 188.035 115.064 187.861 114.505 187.514C113.946 187.167 113.513 186.676 113.206 186.042C112.899 185.408 112.746 184.66 112.746 183.799V183.784C112.746 182.939 112.897 182.204 113.199 181.58C113.506 180.955 113.939 180.472 114.497 180.13C115.056 179.783 115.716 179.609 116.476 179.609C117.135 179.609 117.704 179.725 118.182 179.956C118.66 180.188 119.043 180.5 119.33 180.893C119.616 181.28 119.8 181.716 119.881 182.199L119.888 182.244H118.582L118.575 182.221C118.474 181.819 118.245 181.476 117.887 181.195C117.53 180.913 117.059 180.772 116.476 180.772C115.987 180.772 115.565 180.895 115.207 181.142C114.85 181.388 114.573 181.738 114.377 182.191C114.185 182.639 114.09 183.17 114.09 183.784V183.799C114.09 184.424 114.188 184.967 114.384 185.43C114.58 185.888 114.857 186.243 115.215 186.495C115.572 186.746 115.992 186.872 116.476 186.872C117.024 186.872 117.472 186.754 117.819 186.517C118.167 186.281 118.416 185.936 118.567 185.483L118.582 185.438L119.881 185.43L119.866 185.513C119.755 186.002 119.559 186.437 119.277 186.819C118.995 187.197 118.622 187.494 118.159 187.71C117.696 187.927 117.137 188.035 116.483 188.035ZM124.041 188.035C123.527 188.035 123.064 187.937 122.652 187.741C122.244 187.544 121.919 187.265 121.678 186.903C121.441 186.54 121.323 186.112 121.323 185.619V185.604C121.323 184.879 121.579 184.313 122.093 183.905C122.611 183.492 123.344 183.258 124.29 183.203L127.28 183.022V184.071L124.449 184.252C123.829 184.288 123.376 184.416 123.09 184.637C122.808 184.859 122.667 185.171 122.667 185.574V185.589C122.667 186.002 122.823 186.324 123.135 186.555C123.447 186.782 123.84 186.895 124.313 186.895C124.761 186.895 125.158 186.807 125.506 186.631C125.853 186.45 126.125 186.205 126.321 185.898C126.522 185.591 126.623 185.244 126.623 184.856V182.32C126.623 181.816 126.469 181.434 126.162 181.172C125.86 180.905 125.405 180.772 124.796 180.772C124.308 180.772 123.907 180.86 123.595 181.036C123.283 181.207 123.074 181.451 122.969 181.768L122.961 181.791H121.647L121.655 181.746C121.725 181.318 121.902 180.945 122.183 180.628C122.47 180.306 122.84 180.057 123.293 179.881C123.746 179.7 124.262 179.609 124.841 179.609C125.506 179.609 126.067 179.717 126.525 179.934C126.988 180.15 127.338 180.462 127.574 180.87C127.816 181.273 127.937 181.756 127.937 182.32V187.892H126.623V186.691H126.502C126.331 186.978 126.122 187.222 125.876 187.423C125.634 187.625 125.36 187.778 125.053 187.884C124.746 187.985 124.408 188.035 124.041 188.035ZM130.338 187.892V179.753H131.651V180.991H131.772C131.953 180.553 132.23 180.213 132.603 179.971C132.98 179.73 133.436 179.609 133.969 179.609C134.337 179.609 134.666 179.669 134.958 179.79C135.25 179.911 135.502 180.08 135.713 180.296C135.925 180.508 136.093 180.754 136.219 181.036H136.34C136.486 180.749 136.682 180.5 136.929 180.289C137.176 180.072 137.46 179.906 137.782 179.79C138.109 179.669 138.459 179.609 138.832 179.609C139.385 179.609 139.853 179.712 140.236 179.919C140.624 180.125 140.918 180.427 141.119 180.825C141.321 181.217 141.421 181.698 141.421 182.267V187.892H140.108V182.569C140.108 181.97 139.967 181.522 139.685 181.225C139.408 180.923 138.983 180.772 138.409 180.772C138.031 180.772 137.702 180.857 137.42 181.028C137.138 181.2 136.919 181.429 136.763 181.716C136.607 181.997 136.529 182.312 136.529 182.659V187.892H135.215V182.365C135.215 181.882 135.062 181.497 134.755 181.21C134.448 180.918 134.037 180.772 133.524 180.772C133.172 180.772 132.852 180.865 132.565 181.051C132.283 181.237 132.059 181.489 131.893 181.806C131.732 182.118 131.651 182.466 131.651 182.848V187.892H130.338ZM143.792 190.61V179.753H145.106V181.051H145.227C145.393 180.749 145.602 180.492 145.853 180.281C146.105 180.065 146.392 179.898 146.714 179.783C147.036 179.667 147.386 179.609 147.764 179.609C148.453 179.609 149.052 179.785 149.56 180.138C150.074 180.485 150.472 180.973 150.753 181.602C151.035 182.231 151.176 182.969 151.176 183.815V183.83C151.176 184.68 151.035 185.42 150.753 186.049C150.472 186.679 150.074 187.167 149.56 187.514C149.052 187.861 148.453 188.035 147.764 188.035C147.391 188.035 147.039 187.977 146.707 187.861C146.379 187.741 146.087 187.574 145.831 187.363C145.579 187.152 145.378 186.9 145.227 186.608H145.106V190.61H143.792ZM147.462 186.872C147.96 186.872 148.385 186.752 148.738 186.51C149.09 186.263 149.359 185.913 149.545 185.46C149.737 185.002 149.832 184.459 149.832 183.83V183.815C149.832 183.18 149.737 182.637 149.545 182.184C149.359 181.731 149.09 181.383 148.738 181.142C148.385 180.895 147.96 180.772 147.462 180.772C146.968 180.772 146.543 180.895 146.186 181.142C145.828 181.388 145.554 181.738 145.363 182.191C145.171 182.644 145.076 183.185 145.076 183.815V183.83C145.076 184.454 145.171 184.995 145.363 185.453C145.554 185.906 145.828 186.256 146.186 186.502C146.543 186.749 146.968 186.872 147.462 186.872ZM155.465 188.035C154.951 188.035 154.488 187.937 154.075 187.741C153.668 187.544 153.343 187.265 153.102 186.903C152.865 186.54 152.747 186.112 152.747 185.619V185.604C152.747 184.879 153.003 184.313 153.517 183.905C154.035 183.492 154.768 183.258 155.714 183.203L158.704 183.022V184.071L155.872 184.252C155.253 184.288 154.8 184.416 154.513 184.637C154.232 184.859 154.091 185.171 154.091 185.574V185.589C154.091 186.002 154.247 186.324 154.559 186.555C154.871 186.782 155.263 186.895 155.737 186.895C156.185 186.895 156.582 186.807 156.929 186.631C157.277 186.45 157.549 186.205 157.745 185.898C157.946 185.591 158.047 185.244 158.047 184.856V182.32C158.047 181.816 157.893 181.434 157.586 181.172C157.284 180.905 156.829 180.772 156.22 180.772C155.731 180.772 155.331 180.86 155.019 181.036C154.707 181.207 154.498 181.451 154.393 181.768L154.385 181.791H153.071L153.079 181.746C153.149 181.318 153.326 180.945 153.607 180.628C153.894 180.306 154.264 180.057 154.717 179.881C155.17 179.7 155.686 179.609 156.265 179.609C156.929 179.609 157.491 179.717 157.949 179.934C158.412 180.15 158.762 180.462 158.998 180.87C159.24 181.273 159.361 181.756 159.361 182.32V187.892H158.047V186.691H157.926C157.755 186.978 157.546 187.222 157.299 187.423C157.058 187.625 156.783 187.778 156.476 187.884C156.169 187.985 155.832 188.035 155.465 188.035ZM161.792 187.892V179.753H163.106V187.892H161.792ZM162.456 178.182C162.21 178.182 161.996 178.094 161.814 177.918C161.638 177.737 161.55 177.523 161.55 177.276C161.55 177.024 161.638 176.81 161.814 176.634C161.996 176.458 162.21 176.37 162.456 176.37C162.708 176.37 162.922 176.458 163.098 176.634C163.274 176.81 163.362 177.024 163.362 177.276C163.362 177.523 163.274 177.737 163.098 177.918C162.922 178.094 162.708 178.182 162.456 178.182ZM168.934 190.761C168.28 190.761 167.709 190.668 167.22 190.481C166.732 190.3 166.342 190.041 166.05 189.704C165.763 189.371 165.584 188.984 165.514 188.541L165.529 188.533H166.888L166.896 188.541C166.966 188.848 167.178 189.1 167.53 189.296C167.882 189.497 168.35 189.598 168.934 189.598C169.664 189.598 170.233 189.432 170.641 189.1C171.053 188.772 171.26 188.309 171.26 187.71V186.064H171.139C170.968 186.361 170.754 186.616 170.497 186.827C170.24 187.038 169.951 187.2 169.629 187.31C169.307 187.416 168.959 187.469 168.587 187.469C167.887 187.469 167.281 187.303 166.767 186.97C166.259 186.633 165.866 186.17 165.59 185.581C165.313 184.992 165.174 184.318 165.174 183.558V183.543C165.174 182.783 165.313 182.108 165.59 181.519C165.871 180.925 166.269 180.46 166.782 180.122C167.296 179.78 167.907 179.609 168.617 179.609C169 179.609 169.352 179.669 169.674 179.79C169.996 179.911 170.281 180.082 170.527 180.304C170.779 180.525 170.988 180.789 171.154 181.096H171.245V179.753H172.558V187.778C172.558 188.382 172.41 188.908 172.113 189.356C171.821 189.804 171.403 190.149 170.86 190.391C170.316 190.637 169.674 190.761 168.934 190.761ZM168.874 186.306C169.377 186.306 169.808 186.19 170.165 185.959C170.527 185.722 170.804 185.398 170.995 184.985C171.192 184.572 171.29 184.096 171.29 183.558V183.543C171.29 183.004 171.192 182.526 170.995 182.108C170.804 181.69 170.527 181.363 170.165 181.127C169.808 180.89 169.377 180.772 168.874 180.772C168.37 180.772 167.943 180.89 167.59 181.127C167.243 181.363 166.976 181.69 166.79 182.108C166.609 182.526 166.518 183.004 166.518 183.543V183.558C166.518 184.096 166.609 184.572 166.79 184.985C166.976 185.398 167.243 185.722 167.59 185.959C167.943 186.19 168.37 186.306 168.874 186.306ZM175.005 187.892V179.753H176.318V180.976H176.439C176.646 180.543 176.942 180.208 177.33 179.971C177.718 179.73 178.211 179.609 178.81 179.609C179.726 179.609 180.428 179.871 180.916 180.394C181.41 180.913 181.656 181.655 181.656 182.622V187.892H180.343V182.939C180.343 182.204 180.187 181.66 179.874 181.308C179.567 180.95 179.089 180.772 178.44 180.772C178.007 180.772 177.632 180.865 177.315 181.051C176.998 181.237 176.751 181.502 176.575 181.844C176.404 182.186 176.318 182.596 176.318 183.075V187.892H175.005ZM39.4486 206.035C38.6734 206.035 38.0065 205.864 37.4478 205.522C36.8941 205.179 36.4662 204.696 36.1642 204.072C35.8673 203.443 35.7188 202.703 35.7188 201.852V201.845C35.7188 201.004 35.8673 200.267 36.1642 199.632C36.4662 198.998 36.8916 198.502 37.4402 198.145C37.9889 197.788 38.6305 197.609 39.3654 197.609C40.1053 197.609 40.7396 197.78 41.2682 198.122C41.8017 198.465 42.2093 198.943 42.4912 199.557C42.7781 200.166 42.9216 200.876 42.9216 201.686V202.2H36.3983V201.15H42.2496L41.6003 202.109V201.588C41.6003 200.949 41.5046 200.423 41.3134 200.01C41.1221 199.597 40.8578 199.29 40.5206 199.089C40.1833 198.883 39.7958 198.779 39.3579 198.779C38.9199 198.779 38.5273 198.888 38.18 199.104C37.8377 199.315 37.566 199.63 37.3647 200.048C37.1634 200.466 37.0626 200.979 37.0626 201.588V202.109C37.0626 202.688 37.1608 203.184 37.3572 203.596C37.5535 204.004 37.8327 204.319 38.1951 204.54C38.5575 204.757 38.9854 204.865 39.4787 204.865C39.8461 204.865 40.1657 204.814 40.4375 204.714C40.7093 204.613 40.9334 204.485 41.1096 204.329C41.2858 204.173 41.409 204.014 41.4795 203.853L41.5098 203.785H42.8234L42.8083 203.846C42.7378 204.122 42.6121 204.392 42.4309 204.653C42.2547 204.91 42.0257 205.144 41.7438 205.356C41.4619 205.562 41.1272 205.728 40.7396 205.854C40.3571 205.975 39.9267 206.035 39.4486 206.035ZM45.5037 205.892V198.84H44.1522V197.753H45.5037V196.846C45.5037 196.036 45.705 195.435 46.1077 195.042C46.5104 194.644 47.0969 194.446 47.867 194.446C48.0281 194.446 48.1791 194.453 48.32 194.468C48.466 194.478 48.6068 194.496 48.7427 194.521V195.57C48.6622 195.555 48.5692 195.545 48.4635 195.54C48.3578 195.535 48.2469 195.533 48.1312 195.533C47.6631 195.533 47.3258 195.646 47.1194 195.873C46.9181 196.099 46.8175 196.436 46.8175 196.884V197.753H48.6673V198.84H46.8175V205.892H45.5037ZM51.1059 205.892V198.84H49.7546V197.753H51.1059V196.846C51.1059 196.036 51.3073 195.435 51.71 195.042C52.1126 194.644 52.699 194.446 53.4692 194.446C53.6302 194.446 53.7812 194.453 53.9222 194.468C54.0681 194.478 54.2092 194.496 54.3451 194.521V195.57C54.2645 195.555 54.1714 195.545 54.0657 195.54C53.96 195.535 53.8492 195.533 53.7334 195.533C53.2653 195.533 52.9281 195.646 52.7217 195.873C52.5203 196.099 52.4198 196.436 52.4198 196.884V197.753H54.2696V198.84H52.4198V205.892H51.1059ZM59.1544 206.035C58.3793 206.035 57.7124 205.864 57.1536 205.522C56.6 205.179 56.1722 204.696 55.8702 204.072C55.5732 203.443 55.4246 202.703 55.4246 201.852V201.845C55.4246 201.004 55.5732 200.267 55.8702 199.632C56.1722 198.998 56.5974 198.502 57.1461 198.145C57.6947 197.788 58.3365 197.609 59.0714 197.609C59.8113 197.609 60.4455 197.78 60.974 198.122C61.5076 198.465 61.9154 198.943 62.1973 199.557C62.4842 200.166 62.6275 200.876 62.6275 201.686V202.2H56.1042V201.15H61.9557L61.3063 202.109V201.588C61.3063 200.949 61.2106 200.423 61.0193 200.01C60.8281 199.597 60.5639 199.29 60.2267 199.089C59.8894 198.883 59.5019 198.779 59.0639 198.779C58.626 198.779 58.2334 198.888 57.8861 199.104C57.5438 199.315 57.2719 199.63 57.0706 200.048C56.8693 200.466 56.7687 200.979 56.7687 201.588V202.109C56.7687 202.688 56.8667 203.184 57.063 203.596C57.2593 204.004 57.5387 204.319 57.9011 204.54C58.2635 204.757 58.6915 204.865 59.1847 204.865C59.5522 204.865 59.8718 204.814 60.1436 204.714C60.4154 204.613 60.6394 204.485 60.8156 204.329C60.9918 204.173 61.1151 204.014 61.1855 203.853L61.2156 203.785H62.5294L62.5144 203.846C62.4439 204.122 62.318 204.392 62.1368 204.653C61.9606 204.91 61.7316 205.144 61.4497 205.356C61.1678 205.562 60.8331 205.728 60.4455 205.854C60.063 205.975 59.6326 206.035 59.1544 206.035ZM67.9957 206.035C67.2357 206.035 66.5764 205.861 66.0177 205.514C65.4589 205.167 65.0261 204.676 64.719 204.042C64.412 203.408 64.2584 202.66 64.2584 201.799V201.784C64.2584 200.939 64.4095 200.204 64.7115 199.58C65.0185 198.955 65.4514 198.472 66.0101 198.13C66.5688 197.783 67.2281 197.609 67.9882 197.609C68.6475 197.609 69.2164 197.725 69.6946 197.956C70.1728 198.188 70.5553 198.5 70.8422 198.893C71.1291 199.28 71.3129 199.716 71.3934 200.199L71.4009 200.244H70.0948L70.0871 200.221C69.9864 199.819 69.7575 199.476 69.4001 199.195C69.0428 198.913 68.572 198.772 67.9882 198.772C67.4999 198.772 67.0772 198.895 66.7198 199.142C66.3625 199.388 66.0855 199.738 65.8892 200.191C65.6979 200.639 65.6024 201.17 65.6024 201.784V201.799C65.6024 202.424 65.7005 202.967 65.8968 203.43C66.0931 203.888 66.37 204.243 66.7274 204.495C67.0848 204.746 67.5049 204.872 67.9882 204.872C68.5368 204.872 68.9848 204.754 69.3321 204.517C69.6794 204.281 69.9286 203.936 70.0796 203.483L70.0948 203.438L71.3934 203.43L71.3782 203.513C71.2675 204.002 71.0712 204.437 70.7893 204.819C70.5074 205.197 70.1349 205.494 69.6719 205.71C69.2088 205.927 68.6501 206.035 67.9957 206.035ZM76.3613 205.952C75.5258 205.952 74.9193 205.783 74.5418 205.446C74.1693 205.109 73.9831 204.553 73.9831 203.778V198.84H72.6996V197.753H73.9831V195.646H75.3421V197.753H77.124V198.84H75.3421V203.445C75.3421 203.924 75.4326 204.268 75.6139 204.48C75.7951 204.686 76.0971 204.789 76.5199 204.789C76.6356 204.789 76.7339 204.787 76.8144 204.782C76.9 204.777 77.0032 204.769 77.124 204.759V205.877C76.9982 205.897 76.8722 205.914 76.7464 205.929C76.6205 205.944 76.4922 205.952 76.3613 205.952ZM79.1172 205.892V197.753H80.431V205.892H79.1172ZM79.7817 196.182C79.535 196.182 79.3211 196.094 79.1399 195.918C78.9637 195.737 78.8756 195.523 78.8756 195.276C78.8756 195.024 78.9637 194.81 79.1399 194.634C79.3211 194.458 79.535 194.37 79.7817 194.37C80.0333 194.37 80.2472 194.458 80.4234 194.634C80.5996 194.81 80.6876 195.024 80.6876 195.276C80.6876 195.523 80.5996 195.737 80.4234 195.918C80.2472 196.094 80.0333 196.182 79.7817 196.182ZM85.2101 205.892L82.1977 197.753H83.5868L85.8143 204.457H85.935L88.1623 197.753H89.5515L86.5391 205.892H85.2101ZM94.3081 206.035C93.533 206.035 92.866 205.864 92.3073 205.522C91.7536 205.179 91.3259 204.696 91.0239 204.072C90.7269 203.443 90.5784 202.703 90.5784 201.852V201.845C90.5784 201.004 90.7269 200.267 91.0239 199.632C91.3259 198.998 91.7511 198.502 92.2998 198.145C92.8484 197.788 93.4902 197.609 94.2251 197.609C94.965 197.609 95.5993 197.78 96.1278 198.122C96.6614 198.465 97.069 198.943 97.3508 199.557C97.6377 200.166 97.7812 200.876 97.7812 201.686V202.2H91.2578V201.15H97.1092L96.4599 202.109V201.588C96.4599 200.949 96.3643 200.423 96.173 200.01C95.9817 199.597 95.7176 199.29 95.3803 199.089C95.0431 198.883 94.6554 198.779 94.2175 198.779C93.7796 198.779 93.3871 198.888 93.0398 199.104C92.6975 199.315 92.4256 199.63 92.2243 200.048C92.0229 200.466 91.9224 200.979 91.9224 201.588V202.109C91.9224 202.688 92.0204 203.184 92.2167 203.596C92.413 204.004 92.6925 204.319 93.0549 204.54C93.4173 204.757 93.8451 204.865 94.3384 204.865C94.7059 204.865 95.0255 204.814 95.2973 204.714C95.5691 204.613 95.793 204.485 95.9692 204.329C96.1453 204.173 96.2687 204.014 96.3392 203.853L96.3694 203.785H97.683L97.6679 203.846C97.5975 204.122 97.4716 204.392 97.2904 204.653C97.1143 204.91 96.8853 205.144 96.6035 205.356C96.3216 205.562 95.9868 205.728 95.5992 205.854C95.2166 205.975 94.7863 206.035 94.3081 206.035ZM99.8197 205.892V197.753H101.134V198.976H101.254C101.461 198.543 101.758 198.208 102.145 197.971C102.533 197.73 103.026 197.609 103.625 197.609C104.541 197.609 105.243 197.871 105.732 198.394C106.225 198.913 106.472 199.655 106.472 200.622V205.892H105.158V200.939C105.158 200.204 105.002 199.66 104.69 199.308C104.383 198.95 103.904 198.772 103.255 198.772C102.822 198.772 102.447 198.865 102.13 199.051C101.813 199.237 101.566 199.502 101.39 199.844C101.219 200.186 101.134 200.596 101.134 201.075V205.892H99.8197ZM112.172 206.035C111.397 206.035 110.73 205.864 110.171 205.522C109.617 205.179 109.19 204.696 108.888 204.072C108.591 203.443 108.442 202.703 108.442 201.852V201.845C108.442 201.004 108.591 200.267 108.888 199.632C109.19 198.998 109.615 198.502 110.164 198.145C110.712 197.788 111.354 197.609 112.089 197.609C112.829 197.609 113.463 197.78 113.992 198.122C114.525 198.465 114.933 198.943 115.215 199.557C115.502 200.166 115.645 200.876 115.645 201.686V202.2H109.122V201.15H114.973L114.324 202.109V201.588C114.324 200.949 114.228 200.423 114.037 200.01C113.846 199.597 113.581 199.29 113.244 199.089C112.907 198.883 112.519 198.779 112.081 198.779C111.643 198.779 111.251 198.888 110.904 199.104C110.561 199.315 110.289 199.63 110.088 200.048C109.887 200.466 109.786 200.979 109.786 201.588V202.109C109.786 202.688 109.884 203.184 110.081 203.596C110.277 204.004 110.556 204.319 110.919 204.54C111.281 204.757 111.709 204.865 112.202 204.865C112.57 204.865 112.889 204.814 113.161 204.714C113.433 204.613 113.657 204.485 113.833 204.329C114.009 204.173 114.132 204.014 114.203 203.853L114.233 203.785H115.547L115.532 203.846C115.461 204.122 115.335 204.392 115.154 204.653C114.978 204.91 114.749 205.144 114.467 205.356C114.185 205.562 113.851 205.728 113.463 205.854C113.08 205.975 112.65 206.035 112.172 206.035ZM120.477 206.035C119.873 206.035 119.34 205.944 118.877 205.763C118.413 205.577 118.041 205.318 117.759 204.986C117.482 204.653 117.319 204.263 117.268 203.815H118.612C118.723 204.153 118.939 204.424 119.262 204.631C119.584 204.837 120.004 204.94 120.522 204.94C120.89 204.94 121.212 204.887 121.489 204.782C121.771 204.671 121.992 204.523 122.153 204.336C122.314 204.145 122.395 203.926 122.395 203.679V203.664C122.395 203.387 122.284 203.153 122.063 202.962C121.841 202.766 121.479 202.607 120.975 202.486L119.715 202.184C118.955 202.003 118.396 201.739 118.038 201.392C117.681 201.039 117.502 200.571 117.502 199.987V199.98C117.502 199.527 117.633 199.122 117.895 198.764C118.162 198.407 118.524 198.125 118.982 197.919C119.44 197.712 119.956 197.609 120.53 197.609C121.099 197.609 121.602 197.7 122.04 197.881C122.483 198.057 122.838 198.309 123.105 198.636C123.376 198.963 123.543 199.348 123.603 199.791H122.312C122.226 199.469 122.03 199.207 121.723 199.006C121.416 198.804 121.016 198.704 120.522 198.704C120.2 198.704 119.913 198.757 119.662 198.862C119.41 198.963 119.211 199.104 119.065 199.285C118.919 199.466 118.846 199.678 118.846 199.919V199.935C118.846 200.211 118.955 200.44 119.171 200.622C119.387 200.803 119.735 200.951 120.213 201.067L121.466 201.369C122.231 201.555 122.8 201.822 123.173 202.169C123.55 202.517 123.739 202.982 123.739 203.566V203.581C123.739 204.064 123.595 204.492 123.308 204.865C123.022 205.232 122.631 205.519 122.138 205.725C121.65 205.932 121.096 206.035 120.477 206.035ZM128.42 206.035C127.816 206.035 127.282 205.944 126.819 205.763C126.356 205.577 125.984 205.318 125.702 204.986C125.425 204.653 125.261 204.263 125.211 203.815H126.555C126.666 204.153 126.882 204.424 127.204 204.631C127.527 204.837 127.947 204.94 128.465 204.94C128.833 204.94 129.155 204.887 129.432 204.782C129.714 204.671 129.935 204.523 130.096 204.336C130.257 204.145 130.338 203.926 130.338 203.679V203.664C130.338 203.387 130.227 203.153 130.005 202.962C129.784 202.766 129.422 202.607 128.918 202.486L127.657 202.184C126.897 202.003 126.339 201.739 125.981 201.392C125.624 201.039 125.445 200.571 125.445 199.987V199.98C125.445 199.527 125.576 199.122 125.838 198.764C126.105 198.407 126.467 198.125 126.925 197.919C127.383 197.712 127.899 197.609 128.473 197.609C129.042 197.609 129.545 197.7 129.983 197.881C130.426 198.057 130.781 198.309 131.047 198.636C131.319 198.963 131.485 199.348 131.546 199.791H130.255C130.169 199.469 129.973 199.207 129.666 199.006C129.359 198.804 128.959 198.704 128.465 198.704C128.143 198.704 127.856 198.757 127.605 198.862C127.353 198.963 127.154 199.104 127.008 199.285C126.862 199.466 126.789 199.678 126.789 199.919V199.935C126.789 200.211 126.897 200.44 127.114 200.622C127.33 200.803 127.678 200.951 128.156 201.067L129.409 201.369C130.174 201.555 130.743 201.822 131.115 202.169C131.493 202.517 131.682 202.982 131.682 203.566V203.581C131.682 204.064 131.538 204.492 131.251 204.865C130.964 205.232 130.574 205.519 130.081 205.725C129.593 205.932 129.039 206.035 128.42 206.035Z" fill="#666666"/>
<g filter="url(#filter0_d_272_4394)">
<path d="M128.957 288.086C128.957 281.148 139.279 265.721 147.308 262.854C153.287 260.719 169.759 260.335 176.687 256.48C183.616 252.626 185.156 248.772 194.394 246.459C203.632 244.146 211.33 244.146 215.949 225.645C220.569 207.144 225.188 205.603 232.116 202.519C239.045 199.436 262.572 194.613 267.16 187.731C271.032 181.923 270.608 167.059 282.156 170.142C293.704 173.226 312.95 185.56 320.648 166.288C328.347 147.016 329.886 145.474 331.426 127.744C332.966 110.014 341.434 99.9927 353.752 99.9927" stroke="url(#paint3_linear_272_4394)" stroke-width="2.29382"/>
</g>
</g>
<defs>
<filter id="filter0_d_272_4394" x="118.863" y="89.8998" width="243.837" height="207.132" filterUnits="userSpaceOnUse" color-interpolation-filters="sRGB">
<feFlood flood-opacity="0" result="BackgroundImageFix"/>
<feColorMatrix in="SourceAlpha" type="matrix" values="0 0 0 0 0 0 0 0 0 0 0 0 0 0 0 0 0 0 127 0" result="hardAlpha"/>
<feOffset/>
<feGaussianBlur stdDeviation="4.47295"/>
<feComposite in2="hardAlpha" operator="out"/>
<feColorMatrix type="matrix" values="0 0 0 0 0.33698 0 0 0 0 0.205833 0 0 0 0 1 0 0 0 1 0"/>
<feBlend mode="normal" in2="BackgroundImageFix" result="effect1_dropShadow_272_4394"/>
<feBlend mode="normal" in="SourceGraphic" in2="effect1_dropShadow_272_4394" result="shape"/>
</filter>
<linearGradient id="paint0_linear_272_4394" x1="11.8267" y1="7.09788" x2="359.811" y2="279.692" gradientUnits="userSpaceOnUse">
<stop stop-color="#191919"/>
<stop offset="1" stop-color="#121212"/>
</linearGradient>
<linearGradient id="paint1_linear_272_4394" x1="240.726" y1="17.4144" x2="279.194" y2="56.7105" gradientUnits="userSpaceOnUse">
<stop stop-color="#191919"/>
<stop offset="1" stop-color="#1C1C1C"/>
</linearGradient>
<linearGradient id="paint2_linear_272_4394" x1="231.162" y1="17.4145" x2="244.293" y2="44.4021" gradientUnits="userSpaceOnUse">
<stop stop-color="#242424"/>
<stop offset="1" stop-color="#282828" stop-opacity="0"/>
</linearGradient>
<linearGradient id="paint3_linear_272_4394" x1="353.752" y1="99.9927" x2="122.076" y2="288.086" gradientUnits="userSpaceOnUse">
<stop stop-color="#9E8FED"/>
<stop offset="1" stop-color="#6D57DA"/>
</linearGradient>
<clipPath id="clip0_272_4394">
<rect width="354" height="288" fill="white"/>
</clipPath>
</defs>
</svg>
