<svg width="363" height="298" viewBox="0 0 363 298" fill="none" xmlns="http://www.w3.org/2000/svg">
<rect x="0.496094" y="0.210938" width="353.249" height="287.875" rx="20.6444" fill="url(#paint0_linear_251_4866)"/>
<path d="M353.178 149.309C346.344 149.308 330.169 134.171 325.312 129.31C319.241 123.234 313.166 133.107 310.892 151.337C308.824 167.918 292.03 206.018 275.982 174.123C263.496 149.309 254.153 163.962 254.153 185.243C254.153 218.663 242.618 226.228 232.752 237.621C227.591 242.782 230.802 248.173 220.709 253.678C208.093 260.559 200.065 258.839 191.463 264C182.861 269.161 182.861 271.455 181.141 274.896C179.421 278.336 178.847 280.057 175.406 281.204C171.966 282.351 169.672 282.924 169.672 288.085" stroke="#1F1F1F" stroke-width="2.29382"/>
<rect x="34.9023" y="31.9351" width="53.4691" height="17.8815" rx="8.94073" fill="#8578C5"/>
<path d="M43.8103 44.5373C43.3085 44.5373 42.8725 44.4596 42.5021 44.3043C42.1347 44.149 41.845 43.9324 41.633 43.6547C41.4209 43.3769 41.3014 43.0528 41.2746 42.6825L41.2701 42.6198H42.3901L42.3946 42.6646C42.4125 42.8468 42.4842 43.0051 42.6096 43.1395C42.7381 43.2739 42.9083 43.3799 43.1204 43.4576C43.3324 43.5322 43.5744 43.5696 43.8462 43.5696C44.106 43.5696 44.336 43.5292 44.5361 43.4486C44.7362 43.3679 44.893 43.2574 45.0065 43.1171C45.12 42.9737 45.1768 42.8094 45.1768 42.6242V42.6198C45.1768 42.3868 45.0857 42.1971 44.9035 42.0508C44.7213 41.9015 44.4211 41.782 44.003 41.6924L43.3085 41.549C42.6455 41.4086 42.1631 41.1846 41.8615 40.877C41.5628 40.5664 41.4134 40.1706 41.4134 39.6898V39.6853C41.4134 39.3 41.515 38.9625 41.7181 38.6728C41.9242 38.3831 42.2064 38.1576 42.5648 37.9963C42.9262 37.832 43.3399 37.7499 43.8058 37.7499C44.2837 37.7499 44.6974 37.8305 45.0468 37.9918C45.3963 38.1501 45.6711 38.3666 45.8712 38.6414C46.0713 38.9162 46.1833 39.2268 46.2072 39.5733L46.2117 39.6315H45.1096L45.1006 39.5778C45.0737 39.4075 45.0035 39.2597 44.89 39.1342C44.7795 39.0058 44.6317 38.9043 44.4465 38.8296C44.2613 38.7549 44.0448 38.7176 43.7969 38.7176C43.5609 38.7176 43.3504 38.7549 43.1652 38.8296C42.98 38.9013 42.8336 39.0028 42.7261 39.1342C42.6216 39.2657 42.5693 39.4239 42.5693 39.6091V39.6136C42.5693 39.8406 42.6574 40.0288 42.8336 40.1781C43.0129 40.3274 43.3041 40.4439 43.7073 40.5276L44.4017 40.6754C45.0827 40.8188 45.574 41.0353 45.8757 41.325C46.1803 41.6117 46.3326 42 46.3326 42.4898V42.4943C46.3326 42.9125 46.2296 43.2739 46.0235 43.5785C45.8204 43.8832 45.5292 44.1191 45.1499 44.2864C44.7735 44.4536 44.327 44.5373 43.8103 44.5373ZM47.6319 44.376V37.9112H48.7877V44.376H47.6319ZM53.1469 44.5373C52.5227 44.5373 51.9836 44.3999 51.5296 44.1251C51.0756 43.8503 50.7246 43.459 50.4767 42.9513C50.2318 42.4436 50.1094 41.8417 50.1094 41.1458V41.1368C50.1094 40.4469 50.2333 39.8496 50.4812 39.3448C50.7291 38.8371 51.0786 38.4443 51.5296 38.1665C51.9836 37.8888 52.5167 37.7499 53.129 37.7499C53.6278 37.7499 54.0728 37.8395 54.464 38.0187C54.8583 38.1949 55.1809 38.4428 55.4318 38.7624C55.6826 39.079 55.8424 39.4478 55.9111 39.869L55.9201 39.9138H54.7732L54.7597 39.869C54.6552 39.5136 54.4611 39.2388 54.1773 39.0446C53.8936 38.8475 53.5441 38.7489 53.129 38.7489C52.7526 38.7489 52.4256 38.846 52.1478 39.0402C51.873 39.2343 51.661 39.5091 51.5116 39.8645C51.3623 40.2199 51.2876 40.641 51.2876 41.1279V41.1368C51.2876 41.6297 51.3638 42.0568 51.5161 42.4182C51.6684 42.7766 51.885 43.0528 52.1657 43.247C52.4465 43.4411 52.7795 43.5382 53.1648 43.5382C53.4934 43.5382 53.7816 43.474 54.0295 43.3455C54.2804 43.2171 54.476 43.0379 54.6164 42.8079C54.7597 42.578 54.8344 42.3106 54.8404 42.006V41.8716H53.2903V40.989H55.9694V41.7954C55.9694 42.3539 55.8529 42.8378 55.6199 43.247C55.3899 43.6562 55.0644 43.9743 54.6432 44.2013C54.2221 44.4253 53.7233 44.5373 53.1469 44.5373ZM57.3179 44.376V37.9112H58.3214L61.789 42.7721L60.9916 42.3644H61.5695V37.9112H62.6806V44.376H61.6815L58.2139 39.5106L59.0114 39.9183H58.4334V44.376H57.3179ZM66.9322 44.5373C66.3886 44.5373 65.9182 44.4372 65.521 44.2371C65.1237 44.037 64.8161 43.7577 64.5981 43.3993C64.383 43.0409 64.2755 42.6242 64.2755 42.1494V37.9112H65.4269V42.0553C65.4269 42.5003 65.5583 42.8587 65.8212 43.1305C66.084 43.4023 66.4558 43.5382 66.9367 43.5382C67.4176 43.5382 67.7879 43.4023 68.0478 43.1305C68.3076 42.8587 68.4375 42.5003 68.4375 42.0553V37.9112H69.5889V42.1494C69.5889 42.6242 69.4814 43.0409 69.2664 43.3993C69.0513 43.7577 68.7452 44.037 68.3479 44.2371C67.9537 44.4372 67.4818 44.5373 66.9322 44.5373ZM71.7573 42.239V41.3071H73.4777C73.8928 41.3071 74.2154 41.2011 74.4454 40.989C74.6754 40.774 74.7904 40.4723 74.7904 40.084V40.0751C74.7904 39.6838 74.6754 39.3821 74.4454 39.1701C74.2154 38.958 73.8928 38.852 73.4777 38.852H71.7573V37.9112H73.7599C74.199 37.9112 74.5828 38.0008 74.9113 38.18C75.2399 38.3592 75.4967 38.6116 75.6819 38.9371C75.8671 39.2597 75.9597 39.6375 75.9597 40.0706V40.0795C75.9597 40.5096 75.8671 40.8875 75.6819 41.213C75.4967 41.5356 75.2399 41.788 74.9113 41.9702C74.5828 42.1494 74.199 42.239 73.7599 42.239H71.7573ZM71.1794 44.376V37.9112H72.3352V44.376H71.1794ZM79.481 44.5373C78.9793 44.5373 78.5432 44.4596 78.1728 44.3043C77.8055 44.149 77.5158 43.9324 77.3037 43.6547C77.0916 43.3769 76.9722 43.0528 76.9453 42.6825L76.9408 42.6198H78.0608L78.0653 42.6646C78.0832 42.8468 78.1549 43.0051 78.2804 43.1395C78.4088 43.2739 78.579 43.3799 78.7911 43.4576C79.0032 43.5322 79.2451 43.5696 79.5169 43.5696C79.7767 43.5696 80.0067 43.5292 80.2068 43.4486C80.4069 43.3679 80.5637 43.2574 80.6772 43.1171C80.7907 42.9737 80.8475 42.8094 80.8475 42.6242V42.6198C80.8475 42.3868 80.7564 42.1971 80.5742 42.0508C80.392 41.9015 80.0918 41.782 79.6737 41.6924L78.9793 41.549C78.3162 41.4086 77.8339 41.1846 77.5322 40.877C77.2335 40.5664 77.0842 40.1706 77.0842 39.6898V39.6853C77.0842 39.3 77.1857 38.9625 77.3888 38.6728C77.5949 38.3831 77.8772 38.1576 78.2356 37.9963C78.597 37.832 79.0106 37.7499 79.4766 37.7499C79.9544 37.7499 80.3681 37.8305 80.7176 37.9918C81.067 38.1501 81.3418 38.3666 81.5419 38.6414C81.742 38.9162 81.854 39.2268 81.8779 39.5733L81.8824 39.6315H80.7803L80.7713 39.5778C80.7444 39.4075 80.6742 39.2597 80.5608 39.1342C80.4502 39.0058 80.3024 38.9043 80.1172 38.8296C79.932 38.7549 79.7155 38.7176 79.4676 38.7176C79.2317 38.7176 79.0211 38.7549 78.8359 38.8296C78.6507 38.9013 78.5044 39.0028 78.3969 39.1342C78.2923 39.2657 78.2401 39.4239 78.2401 39.6091V39.6136C78.2401 39.8406 78.3282 40.0288 78.5044 40.1781C78.6836 40.3274 78.9748 40.4439 79.378 40.5276L80.0724 40.6754C80.7534 40.8188 81.2447 41.0353 81.5464 41.325C81.851 41.6117 82.0034 42 82.0034 42.4898V42.4943C82.0034 42.9125 81.9003 43.2739 81.6942 43.5785C81.4911 43.8832 81.1999 44.1191 80.8206 44.2864C80.4443 44.4536 79.9978 44.5373 79.481 44.5373Z" fill="#171717"/>
<path d="M98.6818 44.376V37.9112H101.294C101.757 37.9112 102.154 37.9933 102.485 38.1576C102.817 38.3218 103.071 38.5533 103.247 38.852C103.423 39.1507 103.511 39.5061 103.511 39.9183V39.9272C103.511 40.3543 103.404 40.7336 103.189 41.0652C102.977 41.3937 102.68 41.6267 102.297 41.7641L103.709 44.376H102.391L101.119 41.9433C101.113 41.9433 101.104 41.9433 101.092 41.9433C101.08 41.9433 101.07 41.9433 101.061 41.9433H99.8377V44.376H98.6818ZM99.8377 41.0562H101.173C101.54 41.0562 101.825 40.9591 102.028 40.765C102.232 40.5709 102.333 40.3006 102.333 39.9541V39.9451C102.333 39.6076 102.227 39.3403 102.015 39.1432C101.806 38.9431 101.518 38.843 101.15 38.843H99.8377V41.0562ZM104.918 44.376V37.9112H109.103V38.8833H106.074V40.6351H108.937V41.5535H106.074V43.4038H109.103V44.376H104.918ZM112.145 44.376V38.8833H110.155V37.9112H115.29V38.8833H113.3V44.376H112.145ZM116.504 44.376V37.9112H120.688V38.8833H117.66V40.6351H120.522V41.5535H117.66V43.4038H120.688V44.376H116.504ZM122.122 44.376V37.9112H123.125L126.593 42.7721L125.796 42.3644H126.373V37.9112H127.485V44.376H126.485L123.018 39.5106L123.815 39.9183H123.237V44.376H122.122ZM130.692 44.376V38.8833H128.703V37.9112H133.837V38.8833H131.848V44.376H130.692ZM135.051 44.376V37.9112H136.207V44.376H135.051ZM140.589 44.5373C139.956 44.5373 139.411 44.3999 138.954 44.1251C138.5 43.8473 138.149 43.4546 137.901 42.9468C137.653 42.4391 137.529 41.8387 137.529 41.1458V41.1368C137.529 40.4409 137.653 39.8406 137.901 39.3358C138.152 38.8281 138.506 38.4368 138.963 38.162C139.423 37.8873 139.965 37.7499 140.589 37.7499C141.216 37.7499 141.758 37.8873 142.215 38.162C142.672 38.4368 143.025 38.8281 143.272 39.3358C143.52 39.8436 143.644 40.4439 143.644 41.1368V41.1458C143.644 41.8387 143.52 42.4391 143.272 42.9468C143.028 43.4546 142.677 43.8473 142.22 44.1251C141.763 44.3999 141.219 44.5373 140.589 44.5373ZM140.589 43.5382C140.974 43.5382 141.307 43.4396 141.588 43.2425C141.869 43.0454 142.085 42.7676 142.238 42.4092C142.393 42.0508 142.471 41.6297 142.471 41.1458V41.1368C142.471 40.65 142.393 40.2289 142.238 39.8735C142.085 39.515 141.869 39.2388 141.588 39.0446C141.307 38.8475 140.974 38.7489 140.589 38.7489C140.207 38.7489 139.874 38.8475 139.59 39.0446C139.309 39.2388 139.091 39.515 138.936 39.8735C138.783 40.2289 138.707 40.65 138.707 41.1368V41.1458C138.707 41.6297 138.782 42.0508 138.931 42.4092C139.084 42.7676 139.3 43.0454 139.581 43.2425C139.865 43.4396 140.201 43.5382 140.589 43.5382ZM144.97 44.376V37.9112H145.974L149.442 42.7721L148.644 42.3644H149.222V37.9112H150.333V44.376H149.334L145.866 39.5106L146.664 39.9183H146.086V44.376H144.97ZM154.379 44.376V37.9112H156.991C157.454 37.9112 157.851 37.9933 158.182 38.1576C158.514 38.3218 158.768 38.5533 158.944 38.852C159.12 39.1507 159.208 39.5061 159.208 39.9183V39.9272C159.208 40.3543 159.101 40.7336 158.886 41.0652C158.674 41.3937 158.376 41.6267 157.994 41.7641L159.405 44.376H158.088L156.816 41.9433C156.81 41.9433 156.801 41.9433 156.789 41.9433C156.777 41.9433 156.767 41.9433 156.758 41.9433H155.535V44.376H154.379ZM155.535 41.0562H156.87C157.237 41.0562 157.522 40.9591 157.725 40.765C157.928 40.5709 158.03 40.3006 158.03 39.9541V39.9451C158.03 39.6076 157.924 39.3403 157.712 39.1432C157.503 38.9431 157.215 38.843 156.847 38.843H155.535V41.0562ZM160.136 44.376L162.429 37.9112H163.388V39.1118H163.043L161.345 44.376H160.136ZM161.292 42.7049L161.592 41.8133H164.558L164.858 42.7049H161.292ZM164.817 44.376L163.119 39.1118V37.9112H163.729L166.027 44.376H164.817ZM168.03 44.376V38.8833H166.04V37.9112H171.175V38.8833H169.185V44.376H168.03ZM172.389 44.376V37.9112H176.573V38.8833H173.545V40.6351H176.407V41.5535H173.545V43.4038H176.573V44.376H172.389Z" fill="#656565"/>
<rect x="216.595" y="18.1075" width="102.048" height="31.0161" rx="15.508" fill="url(#paint1_linear_251_4866)"/>
<rect x="216.595" y="18.1075" width="102.048" height="31.0161" rx="15.508" stroke="url(#paint2_linear_251_4866)" stroke-width="1.38585"/>
<path d="M237.098 37.1157V30.1811H234.58V29.3041H240.589V30.1811H238.072V37.1157H237.098ZM242.029 37.1157V28.963H242.971V32.157H243.058C243.206 31.8466 243.419 31.6066 243.697 31.437C243.975 31.2637 244.328 31.1771 244.758 31.1771C245.194 31.1771 245.564 31.2619 245.868 31.4316C246.171 31.5976 246.402 31.8412 246.56 32.1624C246.719 32.4836 246.799 32.8752 246.799 33.3371V37.1157H245.857V33.5645C245.857 33.0376 245.745 32.6478 245.521 32.3952C245.301 32.1389 244.958 32.0108 244.493 32.0108C244.182 32.0108 243.913 32.0776 243.686 32.2111C243.459 32.3446 243.282 32.5341 243.155 32.7795C243.033 33.0249 242.971 33.3191 242.971 33.6619V37.1157H242.029ZM248.526 37.1157V31.28H249.468V37.1157H248.526ZM249.002 30.154C248.825 30.154 248.672 30.0908 248.542 29.9645C248.416 29.8346 248.352 29.6812 248.352 29.5044C248.352 29.3239 248.416 29.1705 248.542 29.0442C248.672 28.9179 248.825 28.8548 249.002 28.8548C249.182 28.8548 249.336 28.9179 249.462 29.0442C249.588 29.1705 249.652 29.3239 249.652 29.5044C249.652 29.6812 249.588 29.8346 249.462 29.9645C249.336 30.0908 249.182 30.154 249.002 30.154ZM253.246 37.2186C252.813 37.2186 252.431 37.1536 252.098 37.0237C251.766 36.8902 251.499 36.7043 251.297 36.4661C251.099 36.2279 250.981 35.9482 250.945 35.627H251.909C251.988 35.8688 252.144 36.0637 252.375 36.2117C252.606 36.3596 252.907 36.4336 253.279 36.4336C253.542 36.4336 253.773 36.3957 253.972 36.3199C254.174 36.2405 254.332 36.1341 254.448 36.0005C254.563 35.8634 254.621 35.7064 254.621 35.5296V35.5187C254.621 35.3203 254.542 35.1524 254.383 35.0153C254.224 34.8745 253.964 34.7609 253.603 34.6742L252.699 34.4577C252.154 34.3278 251.754 34.1383 251.498 33.8893C251.241 33.6367 251.113 33.301 251.113 32.8824V32.877C251.113 32.5522 251.207 32.2616 251.395 32.0054C251.586 31.7492 251.846 31.5471 252.174 31.3991C252.503 31.2511 252.873 31.1771 253.284 31.1771C253.692 31.1771 254.053 31.2421 254.367 31.372C254.684 31.4983 254.939 31.6788 255.13 31.9134C255.325 32.148 255.444 32.424 255.487 32.7416H254.562C254.5 32.5107 254.36 32.323 254.139 32.1786C253.919 32.0343 253.632 31.9621 253.279 31.9621C253.048 31.9621 252.842 32 252.661 32.0758C252.481 32.148 252.338 32.249 252.234 32.3789C252.129 32.5089 252.077 32.6604 252.077 32.8337V32.8445C252.077 33.043 252.154 33.2072 252.31 33.3371C252.465 33.467 252.714 33.5735 253.057 33.6565L253.955 33.873C254.504 34.0066 254.912 34.1979 255.179 34.4469C255.449 34.6959 255.585 35.0297 255.585 35.4484V35.4592C255.585 35.8057 255.482 36.1124 255.276 36.3795C255.07 36.6429 254.791 36.8487 254.437 36.9966C254.087 37.1446 253.69 37.2186 253.246 37.2186ZM260.663 39.162C260.601 39.162 260.533 39.1584 260.457 39.1512C260.381 39.1476 260.311 39.1404 260.246 39.1295V38.3554C260.304 38.3662 260.367 38.3735 260.435 38.3771C260.504 38.3807 260.571 38.3825 260.636 38.3825C260.903 38.3825 261.121 38.3139 261.291 38.1768C261.464 38.0396 261.603 37.8032 261.707 37.4676L261.816 37.1211L259.656 31.28H260.663L262.46 36.6718L262.086 36.0817H262.53L262.157 36.6718L263.949 31.28H264.939L262.66 37.473C262.498 37.9097 262.328 38.2507 262.151 38.4962C261.978 38.7416 261.772 38.913 261.534 39.0104C261.3 39.1115 261.009 39.162 260.663 39.162ZM268.35 37.2186C267.794 37.2186 267.316 37.0959 266.915 36.8505C266.518 36.6051 266.211 36.2586 265.995 35.8111C265.782 35.36 265.675 34.8294 265.675 34.2195V34.2141C265.675 33.6114 265.782 33.0827 265.995 32.6279C266.211 32.1732 266.516 31.8177 266.91 31.5615C267.303 31.3053 267.763 31.1771 268.29 31.1771C268.821 31.1771 269.275 31.2998 269.654 31.5453C270.037 31.7907 270.329 32.1335 270.531 32.5738C270.737 33.0105 270.84 33.5194 270.84 34.1004V34.4685H266.163V33.7161H270.358L269.893 34.4036V34.03C269.893 33.5717 269.824 33.1946 269.687 32.8986C269.55 32.6027 269.36 32.3825 269.118 32.2382C268.877 32.0902 268.599 32.0162 268.285 32.0162C267.971 32.0162 267.689 32.0938 267.44 32.249C267.195 32.4006 267 32.6261 266.856 32.9257C266.711 33.2252 266.639 33.5934 266.639 34.03V34.4036C266.639 34.8186 266.709 35.1741 266.85 35.47C266.991 35.7624 267.191 35.9879 267.451 36.1467C267.711 36.3019 268.018 36.3795 268.371 36.3795C268.635 36.3795 268.864 36.3434 269.059 36.2712C269.254 36.199 269.414 36.107 269.541 35.9951C269.667 35.8833 269.755 35.7696 269.806 35.6541L269.828 35.6054H270.77L270.759 35.6487C270.708 35.8472 270.618 36.0402 270.488 36.2279C270.362 36.412 270.198 36.5798 269.995 36.7314C269.793 36.8793 269.553 36.9984 269.275 37.0887C269.001 37.1753 268.693 37.2186 268.35 37.2186ZM273.904 37.2186C273.536 37.2186 273.204 37.1482 272.908 37.0075C272.616 36.8667 272.383 36.6664 272.21 36.4066C272.04 36.1467 271.955 35.8399 271.955 35.4863V35.4754C271.955 34.9557 272.139 34.5497 272.507 34.2574C272.879 33.9615 273.404 33.7936 274.083 33.754L276.226 33.624V34.3765L274.196 34.5064C273.752 34.5317 273.428 34.6237 273.222 34.7825C273.02 34.9413 272.919 35.1651 272.919 35.4538V35.4646C272.919 35.7605 273.031 35.9915 273.254 36.1575C273.478 36.3199 273.76 36.4011 274.099 36.4011C274.42 36.4011 274.705 36.338 274.954 36.2117C275.203 36.0817 275.398 35.9067 275.539 35.6866C275.683 35.4664 275.755 35.2174 275.755 34.9395V33.1206C275.755 32.7597 275.645 32.4854 275.425 32.2977C275.209 32.1064 274.882 32.0108 274.445 32.0108C274.095 32.0108 273.808 32.074 273.585 32.2003C273.361 32.323 273.211 32.498 273.135 32.7254L273.13 32.7416H272.188L272.193 32.7091C272.244 32.4024 272.37 32.1353 272.572 31.908C272.778 31.677 273.043 31.4983 273.368 31.372C273.693 31.2421 274.063 31.1771 274.478 31.1771C274.954 31.1771 275.357 31.2547 275.685 31.4099C276.017 31.5651 276.268 31.7889 276.437 32.0812C276.611 32.3699 276.697 32.7164 276.697 33.1206V37.1157H275.755V36.255H275.669C275.546 36.4607 275.396 36.6357 275.219 36.7801C275.046 36.9244 274.85 37.0345 274.629 37.1103C274.409 37.1825 274.167 37.2186 273.904 37.2186ZM278.419 37.1157V31.28H279.361V32.1461H279.447C279.559 31.8394 279.749 31.6012 280.016 31.4316C280.283 31.2619 280.613 31.1771 281.006 31.1771C281.097 31.1771 281.185 31.1825 281.272 31.1934C281.362 31.2006 281.431 31.2078 281.477 31.215V32.1299C281.38 32.1119 281.284 32.0992 281.191 32.092C281.1 32.0812 281.003 32.0758 280.898 32.0758C280.599 32.0758 280.333 32.1353 280.102 32.2544C279.871 32.3735 279.689 32.5395 279.556 32.7525C279.426 32.9654 279.361 33.2144 279.361 33.4995V37.1157H278.419Z" fill="#6B6B6B"/>
<path d="M295.777 32.2298L298.549 35.0015L301.32 32.2298" stroke="#6B6B6B" stroke-width="1.38585" stroke-linecap="round" stroke-linejoin="round"/>
<path d="M68.0527 152.755V139.324H37.9873V134.272C39.7945 131.534 41.6017 128.809 43.4089 126.098C45.2435 123.388 47.0781 120.677 48.9127 117.966C50.7473 115.228 52.5682 112.503 54.3754 109.793C56.1826 107.082 58.0035 104.371 59.8381 101.66C61.6727 98.9218 63.4936 96.1973 65.3008 93.4865H73.4744V134.395H82.3051V139.324H73.4744V152.755H68.0527ZM43.6143 134.395H68.0527V98.4974H67.8474C66.2318 100.907 64.6163 103.303 63.0007 105.685C61.3852 108.04 59.7697 110.409 58.1541 112.791C56.5386 115.173 54.923 117.555 53.3075 119.938C51.692 122.32 50.0764 124.702 48.4609 127.084C46.8454 129.466 45.2298 131.862 43.6143 134.272V134.395ZM109.619 153.7C105.511 153.7 101.87 152.974 98.6932 151.523C95.5169 150.071 93.0251 148.073 91.2179 145.526C89.4107 142.952 88.5071 140.009 88.5071 136.695V136.613C88.5071 134.121 89.0684 131.835 90.1911 129.754C91.3137 127.646 92.8608 125.866 94.8323 124.415C96.8312 122.963 99.1176 121.964 101.692 121.416V121.293C98.3783 120.362 95.7086 118.733 93.6823 116.405C91.656 114.05 90.6429 111.271 90.6429 108.067V107.985C90.6429 105.001 91.4507 102.358 93.0662 100.058C94.7091 97.7307 96.9544 95.8961 99.8022 94.5544C102.677 93.2127 105.949 92.5418 109.619 92.5418C113.315 92.5418 116.587 93.2127 119.435 94.5544C122.31 95.8961 124.556 97.7307 126.171 100.058C127.814 102.358 128.635 105.001 128.635 107.985V108.067C128.635 111.271 127.622 114.05 125.596 116.405C123.597 118.733 120.927 120.362 117.587 121.293V121.416C120.188 121.964 122.474 122.963 124.446 124.415C126.417 125.866 127.965 127.646 129.087 129.754C130.21 131.835 130.771 134.121 130.771 136.613V136.695C130.771 140.009 129.868 142.952 128.06 145.526C126.281 148.073 123.803 150.071 120.626 151.523C117.45 152.974 113.781 153.7 109.619 153.7ZM109.619 148.771C112.685 148.771 115.369 148.237 117.669 147.169C119.996 146.101 121.817 144.636 123.132 142.774C124.446 140.912 125.103 138.776 125.103 136.367V136.285C125.103 133.902 124.446 131.808 123.132 130C121.817 128.166 119.996 126.728 117.669 125.688C115.369 124.647 112.685 124.127 109.619 124.127C106.607 124.127 103.937 124.647 101.609 125.688C99.2819 126.728 97.461 128.166 96.1467 130C94.8323 131.808 94.1752 133.902 94.1752 136.285V136.367C94.1752 138.776 94.8323 140.912 96.1467 142.774C97.461 144.636 99.2819 146.101 101.609 147.169C103.937 148.237 106.607 148.771 109.619 148.771ZM109.619 119.157C112.275 119.157 114.602 118.705 116.601 117.802C118.627 116.898 120.215 115.639 121.366 114.023C122.516 112.407 123.091 110.573 123.091 108.519V108.437C123.091 106.301 122.516 104.412 121.366 102.769C120.243 101.099 118.668 99.7844 116.642 98.826C114.616 97.8676 112.275 97.3885 109.619 97.3885C106.99 97.3885 104.662 97.8676 102.636 98.826C100.61 99.7844 99.0218 101.099 97.8717 102.769C96.7491 104.412 96.1877 106.301 96.1877 108.437V108.519C96.1877 110.573 96.7628 112.407 97.9128 114.023C99.0629 115.639 100.637 116.898 102.636 117.802C104.662 118.705 106.99 119.157 109.619 119.157ZM139.766 152.755V93.4865H145.147V152.755H139.766ZM167.039 152.755L149.583 131.315L153.197 127.7L173.405 152.755H167.039ZM143.832 137.435V130.206H145.311L166.34 110.039H172.994L152.458 129.754H152.088L143.832 137.435Z" fill="#C4C4C4"/>
<path d="M36.2916 187.892V176.997H37.8696L41.5994 186.087H41.7202L45.45 176.997H47.0279V187.892H45.7595V179.571H45.0951L46.6202 177.299L42.2336 187.892H41.0859L36.7068 177.299L38.2244 179.571H37.56V187.892H36.2916ZM51.8752 188.035C51.3617 188.035 50.8987 187.937 50.4859 187.741C50.0782 187.544 49.7536 187.265 49.512 186.903C49.2754 186.54 49.1571 186.112 49.1571 185.619V185.604C49.1571 184.879 49.4138 184.313 49.9272 183.905C50.4457 183.492 51.178 183.258 52.1243 183.203L55.1142 183.022V184.071L52.2829 184.252C51.6638 184.288 51.2107 184.416 50.9238 184.637C50.642 184.859 50.501 185.171 50.501 185.574V185.589C50.501 186.002 50.6571 186.324 50.9691 186.555C51.2812 186.782 51.6738 186.895 52.147 186.895C52.5949 186.895 52.9926 186.807 53.3399 186.631C53.6872 186.45 53.959 186.205 54.1553 185.898C54.3567 185.591 54.4573 185.244 54.4573 184.856V182.32C54.4573 181.816 54.3038 181.434 53.9968 181.172C53.6948 180.905 53.2392 180.772 52.6302 180.772C52.1419 180.772 51.7418 180.86 51.4297 181.036C51.1176 181.207 50.9087 181.451 50.803 181.768L50.7955 181.791H49.4818L49.4893 181.746C49.5598 181.318 49.7359 180.945 50.0178 180.628C50.3047 180.306 50.6747 180.057 51.1277 179.881C51.5807 179.7 52.0966 179.609 52.6755 179.609C53.3399 179.609 53.9011 179.717 54.3592 179.934C54.8223 180.15 55.1721 180.462 55.4086 180.87C55.6503 181.273 55.7711 181.756 55.7711 182.32V187.892H54.4573V186.691H54.3365C54.1654 186.978 53.9565 187.222 53.7099 187.423C53.4683 187.625 53.1939 187.778 52.8869 187.884C52.5798 187.985 52.2426 188.035 51.8752 188.035ZM58.172 187.892V179.753H59.4857V180.961H59.6066C59.7626 180.533 60.0268 180.2 60.3993 179.964C60.7718 179.727 61.2324 179.609 61.781 179.609C61.9068 179.609 62.0302 179.617 62.151 179.632C62.2768 179.642 62.3724 179.652 62.4379 179.662V180.938C62.302 180.913 62.1686 180.895 62.0377 180.885C61.9119 180.87 61.776 180.862 61.63 180.862C61.2122 180.862 60.8423 180.945 60.5201 181.112C60.198 181.278 59.9438 181.509 59.7576 181.806C59.5764 182.103 59.4857 182.45 59.4857 182.848V187.892H58.172ZM64.1367 187.892V176.521H65.4504V187.892H64.1367ZM69.2632 187.892L66.0846 183.905L67.051 183.067L70.9167 187.892H69.2632ZM65.2843 184.962L65.2239 183.309H65.5712L69.0896 179.753H70.6827L66.817 183.482L66.4999 183.792L65.2843 184.962ZM75.4015 188.035C74.6264 188.035 73.9595 187.864 73.4007 187.522C72.8471 187.179 72.4192 186.696 72.1172 186.072C71.8202 185.443 71.6718 184.703 71.6718 183.852V183.845C71.6718 183.004 71.8202 182.267 72.1172 181.632C72.4192 180.998 72.8445 180.502 73.3932 180.145C73.9418 179.788 74.5836 179.609 75.3185 179.609C76.0584 179.609 76.6926 179.78 77.2211 180.122C77.7547 180.465 78.1624 180.943 78.4443 181.557C78.7312 182.166 78.8746 182.876 78.8746 183.686V184.2H72.3513V183.15H78.2027L77.5533 184.109V183.588C77.5533 182.949 77.4577 182.423 77.2664 182.01C77.0752 181.597 76.8109 181.29 76.4737 181.089C76.1364 180.883 75.7489 180.779 75.3109 180.779C74.873 180.779 74.4804 180.888 74.1331 181.104C73.7908 181.315 73.519 181.63 73.3177 182.048C73.1164 182.466 73.0157 182.979 73.0157 183.588V184.109C73.0157 184.688 73.1138 185.184 73.3101 185.596C73.5064 186.004 73.7858 186.319 74.1482 186.54C74.5106 186.757 74.9385 186.865 75.4317 186.865C75.7992 186.865 76.1188 186.814 76.3906 186.714C76.6624 186.613 76.8864 186.485 77.0626 186.329C77.2388 186.173 77.3621 186.014 77.4325 185.853L77.4627 185.785H78.7765L78.7614 185.846C78.6909 186.122 78.5651 186.392 78.3839 186.653C78.2077 186.91 77.9787 187.144 77.6968 187.356C77.4149 187.562 77.0802 187.728 76.6926 187.854C76.3101 187.975 75.8797 188.035 75.4015 188.035ZM83.8049 187.952C82.9693 187.952 82.3628 187.783 81.9853 187.446C81.6128 187.109 81.4266 186.553 81.4266 185.778V180.84H80.1431V179.753H81.4266V177.646H82.7856V179.753H84.5675V180.84H82.7856V185.445C82.7856 185.924 82.8762 186.268 83.0574 186.48C83.2386 186.686 83.5406 186.789 83.9635 186.789C84.0792 186.789 84.1774 186.787 84.2579 186.782C84.3435 186.777 84.4467 186.769 84.5675 186.759V187.877C84.4416 187.897 84.3158 187.914 84.19 187.929C84.0641 187.944 83.9358 187.952 83.8049 187.952ZM86.5607 187.892V179.753H87.8745V187.892H86.5607ZM87.2251 178.182C86.9785 178.182 86.7646 178.094 86.5834 177.918C86.4072 177.737 86.3191 177.523 86.3191 177.276C86.3191 177.024 86.4072 176.81 86.5834 176.634C86.7646 176.458 86.9785 176.37 87.2251 176.37C87.4768 176.37 87.6907 176.458 87.8669 176.634C88.0431 176.81 88.1312 177.024 88.1312 177.276C88.1312 177.523 88.0431 177.737 87.8669 177.918C87.6907 178.094 87.4768 178.182 87.2251 178.182ZM90.3509 187.892V179.753H91.6646V180.976H91.7854C91.9918 180.543 92.2888 180.208 92.6764 179.971C93.0639 179.73 93.5572 179.609 94.1562 179.609C95.0723 179.609 95.7745 179.871 96.2627 180.394C96.756 180.913 97.0026 181.655 97.0026 182.622V187.892H95.6889V182.939C95.6889 182.204 95.5329 181.66 95.2208 181.308C94.9137 180.95 94.4356 180.772 93.7862 180.772C93.3534 180.772 92.9784 180.865 92.6613 181.051C92.3442 181.237 92.0975 181.502 91.9213 181.844C91.7502 182.186 91.6646 182.596 91.6646 183.075V187.892H90.3509ZM102.733 190.761C102.079 190.761 101.508 190.668 101.019 190.481C100.531 190.3 100.141 190.041 99.849 189.704C99.5621 189.371 99.3835 188.984 99.313 188.541L99.3281 188.533H100.687L100.695 188.541C100.765 188.848 100.977 189.1 101.329 189.296C101.681 189.497 102.149 189.598 102.733 189.598C103.463 189.598 104.032 189.432 104.44 189.1C104.852 188.772 105.059 188.309 105.059 187.71V186.064H104.938C104.767 186.361 104.553 186.616 104.296 186.827C104.039 187.038 103.75 187.2 103.428 187.31C103.106 187.416 102.758 187.469 102.386 187.469C101.686 187.469 101.08 187.303 100.566 186.97C100.058 186.633 99.6653 186.17 99.3885 185.581C99.1116 184.992 98.9732 184.318 98.9732 183.558V183.543C98.9732 182.783 99.1116 182.108 99.3885 181.519C99.6704 180.925 100.068 180.46 100.581 180.122C101.095 179.78 101.706 179.609 102.416 179.609C102.799 179.609 103.151 179.669 103.473 179.79C103.795 179.911 104.08 180.082 104.326 180.304C104.578 180.525 104.787 180.789 104.953 181.096H105.044V179.753H106.357V187.778C106.357 188.382 106.209 188.908 105.912 189.356C105.62 189.804 105.202 190.149 104.659 190.391C104.115 190.637 103.473 190.761 102.733 190.761ZM102.673 186.306C103.176 186.306 103.607 186.19 103.964 185.959C104.326 185.722 104.603 185.398 104.794 184.985C104.991 184.572 105.089 184.096 105.089 183.558V183.543C105.089 183.004 104.991 182.526 104.794 182.108C104.603 181.69 104.326 181.363 103.964 181.127C103.607 180.89 103.176 180.772 102.673 180.772C102.169 180.772 101.742 180.89 101.389 181.127C101.042 181.363 100.775 181.69 100.589 182.108C100.408 182.526 100.317 183.004 100.317 183.543V183.558C100.317 184.096 100.408 184.572 100.589 184.985C100.775 185.398 101.042 185.722 101.389 185.959C101.742 186.19 102.169 186.306 102.673 186.306ZM116.482 188.035C115.722 188.035 115.063 187.861 114.504 187.514C113.945 187.167 113.512 186.676 113.205 186.042C112.898 185.408 112.745 184.66 112.745 183.799V183.784C112.745 182.939 112.896 182.204 113.198 181.58C113.505 180.955 113.938 180.472 114.496 180.13C115.055 179.783 115.715 179.609 116.475 179.609C117.134 179.609 117.703 179.725 118.181 179.956C118.659 180.188 119.042 180.5 119.329 180.893C119.615 181.28 119.799 181.716 119.88 182.199L119.887 182.244H118.581L118.574 182.221C118.473 181.819 118.244 181.476 117.886 181.195C117.529 180.913 117.058 180.772 116.475 180.772C115.986 180.772 115.564 180.895 115.206 181.142C114.849 181.388 114.572 181.738 114.376 182.191C114.184 182.639 114.089 183.17 114.089 183.784V183.799C114.089 184.424 114.187 184.967 114.383 185.43C114.579 185.888 114.856 186.243 115.214 186.495C115.571 186.746 115.991 186.872 116.475 186.872C117.023 186.872 117.471 186.754 117.818 186.517C118.166 186.281 118.415 185.936 118.566 185.483L118.581 185.438L119.88 185.43L119.865 185.513C119.754 186.002 119.558 186.437 119.276 186.819C118.994 187.197 118.621 187.494 118.158 187.71C117.695 187.927 117.136 188.035 116.482 188.035ZM124.04 188.035C123.526 188.035 123.063 187.937 122.651 187.741C122.243 187.544 121.918 187.265 121.677 186.903C121.44 186.54 121.322 186.112 121.322 185.619V185.604C121.322 184.879 121.578 184.313 122.092 183.905C122.61 183.492 123.343 183.258 124.289 183.203L127.279 183.022V184.071L124.448 184.252C123.828 184.288 123.375 184.416 123.089 184.637C122.807 184.859 122.666 185.171 122.666 185.574V185.589C122.666 186.002 122.822 186.324 123.134 186.555C123.446 186.782 123.839 186.895 124.312 186.895C124.76 186.895 125.157 186.807 125.505 186.631C125.852 186.45 126.124 186.205 126.32 185.898C126.521 185.591 126.622 185.244 126.622 184.856V182.32C126.622 181.816 126.468 181.434 126.161 181.172C125.859 180.905 125.404 180.772 124.795 180.772C124.307 180.772 123.906 180.86 123.594 181.036C123.282 181.207 123.073 181.451 122.968 181.768L122.96 181.791H121.646L121.654 181.746C121.724 181.318 121.901 180.945 122.182 180.628C122.469 180.306 122.839 180.057 123.292 179.881C123.745 179.7 124.261 179.609 124.84 179.609C125.505 179.609 126.066 179.717 126.524 179.934C126.987 180.15 127.337 180.462 127.573 180.87C127.815 181.273 127.936 181.756 127.936 182.32V187.892H126.622V186.691H126.501C126.33 186.978 126.121 187.222 125.875 187.423C125.633 187.625 125.359 187.778 125.052 187.884C124.745 187.985 124.407 188.035 124.04 188.035ZM130.337 187.892V179.753H131.65V180.991H131.771C131.952 180.553 132.229 180.213 132.602 179.971C132.979 179.73 133.435 179.609 133.968 179.609C134.336 179.609 134.665 179.669 134.957 179.79C135.249 179.911 135.501 180.08 135.712 180.296C135.924 180.508 136.092 180.754 136.218 181.036H136.339C136.485 180.749 136.681 180.5 136.928 180.289C137.175 180.072 137.459 179.906 137.781 179.79C138.108 179.669 138.458 179.609 138.831 179.609C139.384 179.609 139.852 179.712 140.235 179.919C140.623 180.125 140.917 180.427 141.118 180.825C141.32 181.217 141.42 181.698 141.42 182.267V187.892H140.107V182.569C140.107 181.97 139.966 181.522 139.684 181.225C139.407 180.923 138.982 180.772 138.408 180.772C138.03 180.772 137.701 180.857 137.419 181.028C137.137 181.2 136.918 181.429 136.762 181.716C136.606 181.997 136.528 182.312 136.528 182.659V187.892H135.214V182.365C135.214 181.882 135.061 181.497 134.754 181.21C134.447 180.918 134.036 180.772 133.523 180.772C133.171 180.772 132.851 180.865 132.564 181.051C132.282 181.237 132.058 181.489 131.892 181.806C131.731 182.118 131.65 182.466 131.65 182.848V187.892H130.337ZM143.791 190.61V179.753H145.105V181.051H145.226C145.392 180.749 145.601 180.492 145.852 180.281C146.104 180.065 146.391 179.898 146.713 179.783C147.035 179.667 147.385 179.609 147.763 179.609C148.452 179.609 149.051 179.785 149.559 180.138C150.073 180.485 150.471 180.973 150.752 181.602C151.034 182.231 151.175 182.969 151.175 183.815V183.83C151.175 184.68 151.034 185.42 150.752 186.049C150.471 186.679 150.073 187.167 149.559 187.514C149.051 187.861 148.452 188.035 147.763 188.035C147.39 188.035 147.038 187.977 146.706 187.861C146.378 187.741 146.086 187.574 145.83 187.363C145.578 187.152 145.377 186.9 145.226 186.608H145.105V190.61H143.791ZM147.461 186.872C147.959 186.872 148.384 186.752 148.737 186.51C149.089 186.263 149.358 185.913 149.544 185.46C149.736 185.002 149.831 184.459 149.831 183.83V183.815C149.831 183.18 149.736 182.637 149.544 182.184C149.358 181.731 149.089 181.383 148.737 181.142C148.384 180.895 147.959 180.772 147.461 180.772C146.967 180.772 146.542 180.895 146.185 181.142C145.827 181.388 145.553 181.738 145.362 182.191C145.17 182.644 145.075 183.185 145.075 183.815V183.83C145.075 184.454 145.17 184.995 145.362 185.453C145.553 185.906 145.827 186.256 146.185 186.502C146.542 186.749 146.967 186.872 147.461 186.872ZM155.464 188.035C154.95 188.035 154.487 187.937 154.074 187.741C153.667 187.544 153.342 187.265 153.101 186.903C152.864 186.54 152.746 186.112 152.746 185.619V185.604C152.746 184.879 153.002 184.313 153.516 183.905C154.034 183.492 154.767 183.258 155.713 183.203L158.703 183.022V184.071L155.871 184.252C155.252 184.288 154.799 184.416 154.512 184.637C154.231 184.859 154.09 185.171 154.09 185.574V185.589C154.09 186.002 154.246 186.324 154.558 186.555C154.87 186.782 155.262 186.895 155.736 186.895C156.184 186.895 156.581 186.807 156.928 186.631C157.276 186.45 157.548 186.205 157.744 185.898C157.945 185.591 158.046 185.244 158.046 184.856V182.32C158.046 181.816 157.892 181.434 157.585 181.172C157.283 180.905 156.828 180.772 156.219 180.772C155.73 180.772 155.33 180.86 155.018 181.036C154.706 181.207 154.497 181.451 154.392 181.768L154.384 181.791H153.07L153.078 181.746C153.148 181.318 153.325 180.945 153.606 180.628C153.893 180.306 154.263 180.057 154.716 179.881C155.169 179.7 155.685 179.609 156.264 179.609C156.928 179.609 157.49 179.717 157.948 179.934C158.411 180.15 158.761 180.462 158.997 180.87C159.239 181.273 159.36 181.756 159.36 182.32V187.892H158.046V186.691H157.925C157.754 186.978 157.545 187.222 157.298 187.423C157.057 187.625 156.782 187.778 156.475 187.884C156.168 187.985 155.831 188.035 155.464 188.035ZM161.791 187.892V179.753H163.105V187.892H161.791ZM162.455 178.182C162.209 178.182 161.995 178.094 161.813 177.918C161.637 177.737 161.549 177.523 161.549 177.276C161.549 177.024 161.637 176.81 161.813 176.634C161.995 176.458 162.209 176.37 162.455 176.37C162.707 176.37 162.921 176.458 163.097 176.634C163.273 176.81 163.361 177.024 163.361 177.276C163.361 177.523 163.273 177.737 163.097 177.918C162.921 178.094 162.707 178.182 162.455 178.182ZM168.933 190.761C168.279 190.761 167.708 190.668 167.219 190.481C166.731 190.3 166.341 190.041 166.049 189.704C165.762 189.371 165.583 188.984 165.513 188.541L165.528 188.533H166.887L166.895 188.541C166.965 188.848 167.177 189.1 167.529 189.296C167.881 189.497 168.349 189.598 168.933 189.598C169.663 189.598 170.232 189.432 170.64 189.1C171.052 188.772 171.259 188.309 171.259 187.71V186.064H171.138C170.967 186.361 170.753 186.616 170.496 186.827C170.239 187.038 169.95 187.2 169.628 187.31C169.306 187.416 168.958 187.469 168.586 187.469C167.886 187.469 167.28 187.303 166.766 186.97C166.258 186.633 165.865 186.17 165.589 185.581C165.312 184.992 165.173 184.318 165.173 183.558V183.543C165.173 182.783 165.312 182.108 165.589 181.519C165.87 180.925 166.268 180.46 166.781 180.122C167.295 179.78 167.906 179.609 168.616 179.609C168.999 179.609 169.351 179.669 169.673 179.79C169.995 179.911 170.28 180.082 170.526 180.304C170.778 180.525 170.987 180.789 171.153 181.096H171.244V179.753H172.557V187.778C172.557 188.382 172.409 188.908 172.112 189.356C171.82 189.804 171.402 190.149 170.859 190.391C170.315 190.637 169.673 190.761 168.933 190.761ZM168.873 186.306C169.376 186.306 169.807 186.19 170.164 185.959C170.526 185.722 170.803 185.398 170.994 184.985C171.191 184.572 171.289 184.096 171.289 183.558V183.543C171.289 183.004 171.191 182.526 170.994 182.108C170.803 181.69 170.526 181.363 170.164 181.127C169.807 180.89 169.376 180.772 168.873 180.772C168.369 180.772 167.942 180.89 167.589 181.127C167.242 181.363 166.975 181.69 166.789 182.108C166.608 182.526 166.517 183.004 166.517 183.543V183.558C166.517 184.096 166.608 184.572 166.789 184.985C166.975 185.398 167.242 185.722 167.589 185.959C167.942 186.19 168.369 186.306 168.873 186.306ZM175.004 187.892V179.753H176.317V180.976H176.438C176.645 180.543 176.941 180.208 177.329 179.971C177.717 179.73 178.21 179.609 178.809 179.609C179.725 179.609 180.427 179.871 180.915 180.394C181.409 180.913 181.655 181.655 181.655 182.622V187.892H180.342V182.939C180.342 182.204 180.186 181.66 179.873 181.308C179.566 180.95 179.088 180.772 178.439 180.772C178.006 180.772 177.631 180.865 177.314 181.051C176.997 181.237 176.75 181.502 176.574 181.844C176.403 182.186 176.317 182.596 176.317 183.075V187.892H175.004ZM39.4476 206.035C38.6724 206.035 38.0055 205.864 37.4468 205.522C36.8931 205.179 36.4652 204.696 36.1632 204.072C35.8663 203.443 35.7178 202.703 35.7178 201.852V201.845C35.7178 201.004 35.8663 200.267 36.1632 199.632C36.4652 198.998 36.8906 198.502 37.4392 198.145C37.9879 197.788 38.6296 197.609 39.3645 197.609C40.1044 197.609 40.7386 197.78 41.2672 198.122C41.8007 198.465 42.2084 198.943 42.4903 199.557C42.7772 200.166 42.9206 200.876 42.9206 201.686V202.2H36.3973V201.15H42.2487L41.5994 202.109V201.588C41.5994 200.949 41.5037 200.423 41.3125 200.01C41.1212 199.597 40.8569 199.29 40.5197 199.089C40.1824 198.883 39.7949 198.779 39.357 198.779C38.919 198.779 38.5264 198.888 38.1791 199.104C37.8368 199.315 37.565 199.63 37.3637 200.048C37.1624 200.466 37.0617 200.979 37.0617 201.588V202.109C37.0617 202.688 37.1598 203.184 37.3562 203.596C37.5525 204.004 37.8318 204.319 38.1942 204.54C38.5566 204.757 38.9845 204.865 39.4778 204.865C39.8452 204.865 40.1648 204.814 40.4366 204.714C40.7084 204.613 40.9324 204.485 41.1086 204.329C41.2848 204.173 41.4081 204.014 41.4786 203.853L41.5088 203.785H42.8225L42.8074 203.846C42.7369 204.122 42.6111 204.392 42.4299 204.653C42.2537 204.91 42.0247 205.144 41.7428 205.356C41.4609 205.562 41.1262 205.728 40.7386 205.854C40.3561 205.975 39.9257 206.035 39.4476 206.035ZM45.5028 205.892V198.84H44.1513V197.753H45.5028V196.846C45.5028 196.036 45.7041 195.435 46.1068 195.042C46.5095 194.644 47.0959 194.446 47.866 194.446C48.0271 194.446 48.1781 194.453 48.319 194.468C48.465 194.478 48.6059 194.496 48.7418 194.521V195.57C48.6613 195.555 48.5682 195.545 48.4625 195.54C48.3568 195.535 48.246 195.533 48.1303 195.533C47.6622 195.533 47.3249 195.646 47.1185 195.873C46.9172 196.099 46.8165 196.436 46.8165 196.884V197.753H48.6663V198.84H46.8165V205.892H45.5028ZM51.105 205.892V198.84H49.7536V197.753H51.105V196.846C51.105 196.036 51.3064 195.435 51.7091 195.042C52.1117 194.644 52.6981 194.446 53.4683 194.446C53.6293 194.446 53.7803 194.453 53.9213 194.468C54.0672 194.478 54.2082 194.496 54.3441 194.521V195.57C54.2635 195.555 54.1704 195.545 54.0647 195.54C53.959 195.535 53.8483 195.533 53.7325 195.533C53.2644 195.533 52.9272 195.646 52.7208 195.873C52.5194 196.099 52.4188 196.436 52.4188 196.884V197.753H54.2686V198.84H52.4188V205.892H51.105ZM59.1535 206.035C58.3784 206.035 57.7115 205.864 57.1527 205.522C56.5991 205.179 56.1712 204.696 55.8692 204.072C55.5722 203.443 55.4237 202.703 55.4237 201.852V201.845C55.4237 201.004 55.5722 200.267 55.8692 199.632C56.1712 198.998 56.5965 198.502 57.1452 198.145C57.6938 197.788 58.3356 197.609 59.0705 197.609C59.8104 197.609 60.4446 197.78 60.9731 198.122C61.5067 198.465 61.9144 198.943 62.1963 199.557C62.4832 200.166 62.6266 200.876 62.6266 201.686V202.2H56.1033V201.15H61.9547L61.3053 202.109V201.588C61.3053 200.949 61.2097 200.423 61.0184 200.01C60.8272 199.597 60.5629 199.29 60.2257 199.089C59.8884 198.883 59.5009 198.779 59.0629 198.779C58.625 198.779 58.2324 198.888 57.8851 199.104C57.5428 199.315 57.271 199.63 57.0697 200.048C56.8684 200.466 56.7677 200.979 56.7677 201.588V202.109C56.7677 202.688 56.8658 203.184 57.0621 203.596C57.2584 204.004 57.5378 204.319 57.9002 204.54C58.2626 204.757 58.6905 204.865 59.1837 204.865C59.5512 204.865 59.8708 204.814 60.1426 204.714C60.4144 204.613 60.6384 204.485 60.8146 204.329C60.9908 204.173 61.1141 204.014 61.1845 203.853L61.2147 203.785H62.5285L62.5134 203.846C62.4429 204.122 62.3171 204.392 62.1359 204.653C61.9597 204.91 61.7307 205.144 61.4488 205.356C61.1669 205.562 60.8322 205.728 60.4446 205.854C60.0621 205.975 59.6317 206.035 59.1535 206.035ZM67.9948 206.035C67.2348 206.035 66.5754 205.861 66.0167 205.514C65.4579 205.167 65.0251 204.676 64.718 204.042C64.411 203.408 64.2575 202.66 64.2575 201.799V201.784C64.2575 200.939 64.4085 200.204 64.7105 199.58C65.0175 198.955 65.4504 198.472 66.0091 198.13C66.5678 197.783 67.2272 197.609 67.9873 197.609C68.6466 197.609 69.2154 197.725 69.6936 197.956C70.1718 198.188 70.5543 198.5 70.8412 198.893C71.1281 199.28 71.3119 199.716 71.3924 200.199L71.3999 200.244H70.0938L70.0862 200.221C69.9855 199.819 69.7565 199.476 69.3991 199.195C69.0418 198.913 68.5711 198.772 67.9873 198.772C67.499 198.772 67.0762 198.895 66.7188 199.142C66.3615 199.388 66.0846 199.738 65.8883 200.191C65.697 200.639 65.6014 201.17 65.6014 201.784V201.799C65.6014 202.424 65.6996 202.967 65.8959 203.43C66.0922 203.888 66.369 204.243 66.7264 204.495C67.0838 204.746 67.504 204.872 67.9873 204.872C68.5359 204.872 68.9839 204.754 69.3312 204.517C69.6785 204.281 69.9277 203.936 70.0787 203.483L70.0938 203.438L71.3924 203.43L71.3773 203.513C71.2666 204.002 71.0703 204.437 70.7884 204.819C70.5065 205.197 70.134 205.494 69.671 205.71C69.2079 205.927 68.6492 206.035 67.9948 206.035ZM76.3604 205.952C75.5249 205.952 74.9183 205.783 74.5408 205.446C74.1683 205.109 73.9821 204.553 73.9821 203.778V198.84H72.6986V197.753H73.9821V195.646H75.3411V197.753H77.123V198.84H75.3411V203.445C75.3411 203.924 75.4317 204.268 75.613 204.48C75.7942 204.686 76.0962 204.789 76.519 204.789C76.6347 204.789 76.7329 204.787 76.8134 204.782C76.899 204.777 77.0022 204.769 77.123 204.759V205.877C76.9972 205.897 76.8713 205.914 76.7455 205.929C76.6196 205.944 76.4913 205.952 76.3604 205.952ZM79.1162 205.892V197.753H80.43V205.892H79.1162ZM79.7807 196.182C79.534 196.182 79.3201 196.094 79.1389 195.918C78.9627 195.737 78.8746 195.523 78.8746 195.276C78.8746 195.024 78.9627 194.81 79.1389 194.634C79.3201 194.458 79.534 194.37 79.7807 194.37C80.0323 194.37 80.2462 194.458 80.4224 194.634C80.5986 194.81 80.6867 195.024 80.6867 195.276C80.6867 195.523 80.5986 195.737 80.4224 195.918C80.2462 196.094 80.0323 196.182 79.7807 196.182ZM85.2092 205.892L82.1967 197.753H83.5859L85.8133 204.457H85.9341L88.1614 197.753H89.5506L86.5381 205.892H85.2092ZM94.3072 206.035C93.5321 206.035 92.8651 205.864 92.3064 205.522C91.7527 205.179 91.3249 204.696 91.0229 204.072C90.7259 203.443 90.5774 202.703 90.5774 201.852V201.845C90.5774 201.004 90.7259 200.267 91.0229 199.632C91.3249 198.998 91.7502 198.502 92.2989 198.145C92.8475 197.788 93.4893 197.609 94.2242 197.609C94.9641 197.609 95.5983 197.78 96.1268 198.122C96.6604 198.465 97.0681 198.943 97.3499 199.557C97.6368 200.166 97.7803 200.876 97.7803 201.686V202.2H91.2569V201.15H97.1083L96.459 202.109V201.588C96.459 200.949 96.3634 200.423 96.1721 200.01C95.9808 199.597 95.7166 199.29 95.3793 199.089C95.0421 198.883 94.6545 198.779 94.2166 198.779C93.7787 198.779 93.3861 198.888 93.0388 199.104C92.6965 199.315 92.4247 199.63 92.2234 200.048C92.022 200.466 91.9214 200.979 91.9214 201.588V202.109C91.9214 202.688 92.0195 203.184 92.2158 203.596C92.4121 204.004 92.6915 204.319 93.0539 204.54C93.4163 204.757 93.8441 204.865 94.3374 204.865C94.7049 204.865 95.0245 204.814 95.2963 204.714C95.5681 204.613 95.7921 204.485 95.9683 204.329C96.1444 204.173 96.2677 204.014 96.3382 203.853L96.3684 203.785H97.6821L97.667 203.846C97.5966 204.122 97.4707 204.392 97.2895 204.653C97.1134 204.91 96.8843 205.144 96.6025 205.356C96.3206 205.562 95.9859 205.728 95.5983 205.854C95.2157 205.975 94.7854 206.035 94.3072 206.035ZM99.8188 205.892V197.753H101.133V198.976H101.253C101.46 198.543 101.757 198.208 102.144 197.971C102.532 197.73 103.025 197.609 103.624 197.609C104.54 197.609 105.242 197.871 105.731 198.394C106.224 198.913 106.471 199.655 106.471 200.622V205.892H105.157V200.939C105.157 200.204 105.001 199.66 104.689 199.308C104.382 198.95 103.903 198.772 103.254 198.772C102.821 198.772 102.446 198.865 102.129 199.051C101.812 199.237 101.565 199.502 101.389 199.844C101.218 200.186 101.133 200.596 101.133 201.075V205.892H99.8188ZM112.171 206.035C111.396 206.035 110.729 205.864 110.17 205.522C109.616 205.179 109.189 204.696 108.887 204.072C108.59 203.443 108.441 202.703 108.441 201.852V201.845C108.441 201.004 108.59 200.267 108.887 199.632C109.189 198.998 109.614 198.502 110.163 198.145C110.711 197.788 111.353 197.609 112.088 197.609C112.828 197.609 113.462 197.78 113.991 198.122C114.524 198.465 114.932 198.943 115.214 199.557C115.501 200.166 115.644 200.876 115.644 201.686V202.2H109.121V201.15H114.972L114.323 202.109V201.588C114.323 200.949 114.227 200.423 114.036 200.01C113.845 199.597 113.58 199.29 113.243 199.089C112.906 198.883 112.518 198.779 112.08 198.779C111.642 198.779 111.25 198.888 110.903 199.104C110.56 199.315 110.288 199.63 110.087 200.048C109.886 200.466 109.785 200.979 109.785 201.588V202.109C109.785 202.688 109.883 203.184 110.08 203.596C110.276 204.004 110.555 204.319 110.918 204.54C111.28 204.757 111.708 204.865 112.201 204.865C112.569 204.865 112.888 204.814 113.16 204.714C113.432 204.613 113.656 204.485 113.832 204.329C114.008 204.173 114.131 204.014 114.202 203.853L114.232 203.785H115.546L115.531 203.846C115.46 204.122 115.334 204.392 115.153 204.653C114.977 204.91 114.748 205.144 114.466 205.356C114.184 205.562 113.85 205.728 113.462 205.854C113.079 205.975 112.649 206.035 112.171 206.035ZM120.476 206.035C119.872 206.035 119.339 205.944 118.876 205.763C118.412 205.577 118.04 205.318 117.758 204.986C117.481 204.653 117.318 204.263 117.267 203.815H118.611C118.722 204.153 118.938 204.424 119.261 204.631C119.583 204.837 120.003 204.94 120.521 204.94C120.889 204.94 121.211 204.887 121.488 204.782C121.77 204.671 121.991 204.523 122.152 204.336C122.313 204.145 122.394 203.926 122.394 203.679V203.664C122.394 203.387 122.283 203.153 122.062 202.962C121.84 202.766 121.478 202.607 120.974 202.486L119.714 202.184C118.954 202.003 118.395 201.739 118.037 201.392C117.68 201.039 117.501 200.571 117.501 199.987V199.98C117.501 199.527 117.632 199.122 117.894 198.764C118.161 198.407 118.523 198.125 118.981 197.919C119.439 197.712 119.955 197.609 120.529 197.609C121.098 197.609 121.601 197.7 122.039 197.881C122.482 198.057 122.837 198.309 123.104 198.636C123.375 198.963 123.542 199.348 123.602 199.791H122.311C122.225 199.469 122.029 199.207 121.722 199.006C121.415 198.804 121.015 198.704 120.521 198.704C120.199 198.704 119.912 198.757 119.661 198.862C119.409 198.963 119.21 199.104 119.064 199.285C118.918 199.466 118.845 199.678 118.845 199.919V199.935C118.845 200.211 118.954 200.44 119.17 200.622C119.386 200.803 119.734 200.951 120.212 201.067L121.465 201.369C122.23 201.555 122.799 201.822 123.172 202.169C123.549 202.517 123.738 202.982 123.738 203.566V203.581C123.738 204.064 123.594 204.492 123.307 204.865C123.021 205.232 122.63 205.519 122.137 205.725C121.649 205.932 121.095 206.035 120.476 206.035ZM128.419 206.035C127.815 206.035 127.281 205.944 126.818 205.763C126.355 205.577 125.983 205.318 125.701 204.986C125.424 204.653 125.26 204.263 125.21 203.815H126.554C126.665 204.153 126.881 204.424 127.203 204.631C127.526 204.837 127.946 204.94 128.464 204.94C128.832 204.94 129.154 204.887 129.431 204.782C129.713 204.671 129.934 204.523 130.095 204.336C130.256 204.145 130.337 203.926 130.337 203.679V203.664C130.337 203.387 130.226 203.153 130.004 202.962C129.783 202.766 129.421 202.607 128.917 202.486L127.656 202.184C126.896 202.003 126.338 201.739 125.98 201.392C125.623 201.039 125.444 200.571 125.444 199.987V199.98C125.444 199.527 125.575 199.122 125.837 198.764C126.104 198.407 126.466 198.125 126.924 197.919C127.382 197.712 127.898 197.609 128.472 197.609C129.041 197.609 129.544 197.7 129.982 197.881C130.425 198.057 130.78 198.309 131.046 198.636C131.318 198.963 131.484 199.348 131.545 199.791H130.254C130.168 199.469 129.972 199.207 129.665 199.006C129.358 198.804 128.958 198.704 128.464 198.704C128.142 198.704 127.855 198.757 127.604 198.862C127.352 198.963 127.153 199.104 127.007 199.285C126.861 199.466 126.788 199.678 126.788 199.919V199.935C126.788 200.211 126.896 200.44 127.113 200.622C127.329 200.803 127.677 200.951 128.155 201.067L129.408 201.369C130.173 201.555 130.742 201.822 131.114 202.169C131.492 202.517 131.681 202.982 131.681 203.566V203.581C131.681 204.064 131.537 204.492 131.25 204.865C130.963 205.232 130.573 205.519 130.08 205.725C129.592 205.932 129.038 206.035 128.419 206.035Z" fill="#666666"/>
<g filter="url(#filter0_d_251_4866)">
<path d="M128.957 288.086C128.957 281.148 139.279 265.721 147.308 262.854C153.287 260.719 169.759 260.335 176.687 256.48C183.616 252.626 185.156 248.772 194.394 246.459C203.632 244.146 211.33 244.146 215.949 225.645C220.569 207.144 225.188 205.603 232.116 202.519C239.045 199.436 262.572 194.613 267.16 187.731C271.032 181.923 270.608 167.059 282.156 170.142C293.704 173.226 312.95 185.56 320.648 166.288C328.347 147.016 329.886 145.474 331.426 127.744C332.966 110.014 341.434 99.9927 353.752 99.9927" stroke="url(#paint3_linear_251_4866)" stroke-width="2.29382"/>
</g>
<defs>
<filter id="filter0_d_251_4866" x="118.863" y="89.8998" width="243.833" height="207.132" filterUnits="userSpaceOnUse" color-interpolation-filters="sRGB">
<feFlood flood-opacity="0" result="BackgroundImageFix"/>
<feColorMatrix in="SourceAlpha" type="matrix" values="0 0 0 0 0 0 0 0 0 0 0 0 0 0 0 0 0 0 127 0" result="hardAlpha"/>
<feOffset/>
<feGaussianBlur stdDeviation="4.47295"/>
<feComposite in2="hardAlpha" operator="out"/>
<feColorMatrix type="matrix" values="0 0 0 0 0.33698 0 0 0 0 0.205833 0 0 0 0 1 0 0 0 1 0"/>
<feBlend mode="normal" in2="BackgroundImageFix" result="effect1_dropShadow_251_4866"/>
<feBlend mode="normal" in="SourceGraphic" in2="effect1_dropShadow_251_4866" result="shape"/>
</filter>
<linearGradient id="paint0_linear_251_4866" x1="11.8267" y1="7.09788" x2="359.811" y2="279.692" gradientUnits="userSpaceOnUse">
<stop stop-color="#191919"/>
<stop offset="1" stop-color="#121212"/>
</linearGradient>
<linearGradient id="paint1_linear_251_4866" x1="240.727" y1="17.4145" x2="279.195" y2="56.7106" gradientUnits="userSpaceOnUse">
<stop stop-color="#191919"/>
<stop offset="1" stop-color="#1C1C1C"/>
</linearGradient>
<linearGradient id="paint2_linear_251_4866" x1="231.163" y1="17.4146" x2="244.294" y2="44.4022" gradientUnits="userSpaceOnUse">
<stop stop-color="#242424"/>
<stop offset="1" stop-color="#282828" stop-opacity="0"/>
</linearGradient>
<linearGradient id="paint3_linear_251_4866" x1="353.752" y1="99.9927" x2="122.076" y2="288.086" gradientUnits="userSpaceOnUse">
<stop stop-color="#9E8FED"/>
<stop offset="1" stop-color="#6D57DA"/>
</linearGradient>
</defs>
</svg>
