<svg width="354" height="224" viewBox="0 0 354 224" fill="none" xmlns="http://www.w3.org/2000/svg">
<rect y="0.725098" width="353.249" height="223" rx="20" fill="url(#paint0_linear_251_4789)"/>
<path fill-rule="evenodd" clip-rule="evenodd" d="M41.215 43.0467C41.7838 42.4812 42.1359 41.698 42.1359 40.8326C42.1359 39.1083 40.738 37.7104 39.0137 37.7104C37.4351 37.7104 36.1301 38.882 35.9209 40.4031C35.3521 40.9686 35 41.7518 35 42.6172C35 44.3415 36.3978 45.7394 38.1221 45.7394C39.7008 45.7394 41.0057 44.5678 41.215 43.0467ZM39.0137 43.9547C39.8726 43.9547 40.6505 43.6079 41.215 43.0467C41.2343 42.9063 41.2443 42.7629 41.2443 42.6172C41.2443 40.8929 39.8465 39.4951 38.1221 39.4951C37.2633 39.4951 36.4854 39.8419 35.9209 40.4031C35.9016 40.5435 35.8916 40.6869 35.8916 40.8326C35.8916 42.5569 37.2894 43.9547 39.0137 43.9547Z" fill="#8578C5"/>
<path d="M52.4629 45.9009C51.7728 45.9009 51.1787 45.7511 50.6807 45.4517C50.1859 45.1489 49.8034 44.7209 49.5332 44.1675C49.263 43.6141 49.1279 42.9598 49.1279 42.2046V42.1948C49.1279 41.4364 49.263 40.7821 49.5332 40.2319C49.8066 39.6785 50.1924 39.2521 50.6904 38.9526C51.1917 38.6532 51.7826 38.5034 52.4629 38.5034C53.1465 38.5034 53.7373 38.6532 54.2354 38.9526C54.7334 39.2521 55.1175 39.6785 55.3877 40.2319C55.6579 40.7853 55.793 41.4396 55.793 42.1948V42.2046C55.793 42.9598 55.6579 43.6141 55.3877 44.1675C55.1208 44.7209 54.7383 45.1489 54.2402 45.4517C53.7422 45.7511 53.1497 45.9009 52.4629 45.9009ZM52.4629 44.812C52.8828 44.812 53.2458 44.7046 53.5518 44.4897C53.8577 44.2749 54.0938 43.9722 54.2598 43.5815C54.429 43.1909 54.5137 42.7319 54.5137 42.2046V42.1948C54.5137 41.6642 54.429 41.2052 54.2598 40.8179C54.0938 40.4272 53.8577 40.1261 53.5518 39.9146C53.2458 39.6997 52.8828 39.5923 52.4629 39.5923C52.0462 39.5923 51.6833 39.6997 51.374 39.9146C51.068 40.1261 50.8304 40.4272 50.6611 40.8179C50.4951 41.2052 50.4121 41.6642 50.4121 42.1948V42.2046C50.4121 42.7319 50.4935 43.1909 50.6562 43.5815C50.8223 43.9722 51.0583 44.2749 51.3643 44.4897C51.6735 44.7046 52.0397 44.812 52.4629 44.812ZM57.8682 43.396V42.3804H59.7432C60.1956 42.3804 60.5472 42.2648 60.7979 42.0337C61.0485 41.7993 61.1738 41.4705 61.1738 41.0474V41.0376C61.1738 40.6112 61.0485 40.2824 60.7979 40.0513C60.5472 39.8201 60.1956 39.7046 59.7432 39.7046H57.8682V38.6792H60.0508C60.5293 38.6792 60.9476 38.7769 61.3057 38.9722C61.6637 39.1675 61.9437 39.4425 62.1455 39.7974C62.3473 40.1489 62.4482 40.5607 62.4482 41.0327V41.0425C62.4482 41.5112 62.3473 41.923 62.1455 42.2778C61.9437 42.6294 61.6637 42.9045 61.3057 43.103C60.9476 43.2983 60.5293 43.396 60.0508 43.396H57.8682ZM57.2383 45.7251V38.6792H58.498V45.7251H57.2383ZM63.8398 45.7251V38.6792H68.4004V39.7388H65.0996V41.6479H68.2197V42.6489H65.0996V44.6655H68.4004V45.7251H63.8398ZM69.9629 45.7251V38.6792H71.0566L74.8359 43.9771L73.9668 43.5327H74.5967V38.6792H75.8076V45.7251H74.7188L70.9395 40.4224L71.8086 40.8667H71.1787V45.7251H69.9629ZM80.8467 43.396V42.3804H82.7217C83.1742 42.3804 83.5257 42.2648 83.7764 42.0337C84.027 41.7993 84.1523 41.4705 84.1523 41.0474V41.0376C84.1523 40.6112 84.027 40.2824 83.7764 40.0513C83.5257 39.8201 83.1742 39.7046 82.7217 39.7046H80.8467V38.6792H83.0293C83.5078 38.6792 83.9261 38.7769 84.2842 38.9722C84.6423 39.1675 84.9222 39.4425 85.124 39.7974C85.3258 40.1489 85.4268 40.5607 85.4268 41.0327V41.0425C85.4268 41.5112 85.3258 41.923 85.124 42.2778C84.9222 42.6294 84.6423 42.9045 84.2842 43.103C83.9261 43.2983 83.5078 43.396 83.0293 43.396H80.8467ZM80.2168 45.7251V38.6792H81.4766V45.7251H80.2168ZM86.8184 45.7251V38.6792H89.665C90.1696 38.6792 90.6025 38.7687 90.9639 38.9478C91.3252 39.1268 91.6019 39.3791 91.7939 39.7046C91.986 40.0301 92.082 40.4175 92.082 40.8667V40.8765C92.082 41.342 91.9648 41.7554 91.7305 42.1167C91.4993 42.4748 91.1755 42.7287 90.7588 42.8784L92.2969 45.7251H90.8613L89.4746 43.0737C89.4681 43.0737 89.4583 43.0737 89.4453 43.0737C89.4323 43.0737 89.4209 43.0737 89.4111 43.0737H88.0781V45.7251H86.8184ZM88.0781 42.1069H89.5332C89.9336 42.1069 90.2445 42.0011 90.4658 41.7896C90.6872 41.578 90.7979 41.2834 90.7979 40.9058V40.896C90.7979 40.5282 90.6823 40.2368 90.4512 40.022C90.2233 39.8039 89.9092 39.6948 89.5088 39.6948H88.0781V42.1069ZM96.6523 45.9009C95.9622 45.9009 95.3682 45.7511 94.8701 45.4517C94.3753 45.1489 93.9928 44.7209 93.7227 44.1675C93.4525 43.6141 93.3174 42.9598 93.3174 42.2046V42.1948C93.3174 41.4364 93.4525 40.7821 93.7227 40.2319C93.9961 39.6785 94.3818 39.2521 94.8799 38.9526C95.3812 38.6532 95.972 38.5034 96.6523 38.5034C97.3359 38.5034 97.9268 38.6532 98.4248 38.9526C98.9229 39.2521 99.307 39.6785 99.5771 40.2319C99.8473 40.7853 99.9824 41.4396 99.9824 42.1948V42.2046C99.9824 42.9598 99.8473 43.6141 99.5771 44.1675C99.3102 44.7209 98.9277 45.1489 98.4297 45.4517C97.9316 45.7511 97.3392 45.9009 96.6523 45.9009ZM96.6523 44.812C97.0723 44.812 97.4352 44.7046 97.7412 44.4897C98.0472 44.2749 98.2832 43.9722 98.4492 43.5815C98.6185 43.1909 98.7031 42.7319 98.7031 42.2046V42.1948C98.7031 41.6642 98.6185 41.2052 98.4492 40.8179C98.2832 40.4272 98.0472 40.1261 97.7412 39.9146C97.4352 39.6997 97.0723 39.5923 96.6523 39.5923C96.2357 39.5923 95.8727 39.6997 95.5635 39.9146C95.2575 40.1261 95.0199 40.4272 94.8506 40.8179C94.6846 41.2052 94.6016 41.6642 94.6016 42.1948V42.2046C94.6016 42.7319 94.6829 43.1909 94.8457 43.5815C95.0117 43.9722 95.2477 44.2749 95.5537 44.4897C95.863 44.7046 96.2292 44.812 96.6523 44.812ZM103.181 45.9009C102.725 45.9009 102.333 45.8162 102.004 45.647C101.678 45.4744 101.426 45.2352 101.247 44.9292C101.068 44.6232 100.969 44.27 100.949 43.8696L100.944 43.8159H102.175L102.18 43.855C102.193 44.034 102.237 44.1951 102.312 44.3384C102.39 44.4784 102.5 44.5907 102.644 44.6753C102.787 44.7567 102.961 44.7974 103.166 44.7974C103.508 44.7974 103.767 44.6981 103.942 44.4995C104.121 44.2977 104.211 44.0063 104.211 43.6255V38.6792H105.466V43.6353C105.466 44.3481 105.266 44.9048 104.865 45.3052C104.465 45.7023 103.903 45.9009 103.181 45.9009ZM107.209 45.7251V38.6792H111.77V39.7388H108.469V41.6479H111.589V42.6489H108.469V44.6655H111.77V45.7251H107.209ZM116.271 45.9009C115.604 45.9009 115.028 45.7511 114.543 45.4517C114.061 45.1522 113.688 44.7274 113.425 44.1772C113.164 43.6239 113.034 42.9679 113.034 42.2095V42.1997C113.034 41.438 113.164 40.7821 113.425 40.2319C113.688 39.6785 114.061 39.2521 114.543 38.9526C115.025 38.6532 115.599 38.5034 116.267 38.5034C116.8 38.5034 117.282 38.6092 117.712 38.8208C118.142 39.0291 118.492 39.3188 118.762 39.6899C119.032 40.0578 119.195 40.481 119.25 40.9595L119.245 40.9985H118.015L118.01 40.9741C117.951 40.6974 117.84 40.4565 117.678 40.2515C117.515 40.0431 117.313 39.882 117.072 39.7681C116.831 39.6509 116.563 39.5923 116.267 39.5923C115.869 39.5923 115.524 39.6981 115.231 39.9097C114.938 40.1213 114.712 40.4224 114.553 40.813C114.396 41.2004 114.318 41.661 114.318 42.1948V42.2046C114.318 42.7384 114.396 43.2007 114.553 43.5913C114.712 43.9819 114.938 44.283 115.231 44.4946C115.524 44.7062 115.871 44.812 116.271 44.812C116.571 44.812 116.84 44.7599 117.077 44.6558C117.318 44.5516 117.518 44.4051 117.678 44.2163C117.84 44.0243 117.951 43.7996 118.01 43.5425L118.02 43.5132H119.25V43.5522C119.188 44.021 119.024 44.4312 118.757 44.7827C118.49 45.1343 118.145 45.4093 117.722 45.6079C117.299 45.8032 116.815 45.9009 116.271 45.9009ZM122.224 45.7251V39.7388H120.056V38.6792H125.651V39.7388H123.483V45.7251H122.224ZM129.421 45.9009C128.874 45.9009 128.399 45.8162 127.995 45.647C127.595 45.4777 127.279 45.2417 127.048 44.939C126.817 44.6362 126.687 44.283 126.657 43.8794L126.652 43.811H127.873L127.878 43.8599C127.897 44.0584 127.976 44.231 128.112 44.3774C128.252 44.5239 128.438 44.6395 128.669 44.7241C128.9 44.8055 129.164 44.8462 129.46 44.8462C129.743 44.8462 129.994 44.8022 130.212 44.7144C130.43 44.6265 130.601 44.506 130.725 44.353C130.848 44.1968 130.91 44.0177 130.91 43.8159V43.811C130.91 43.5571 130.811 43.3504 130.612 43.1909C130.414 43.0282 130.087 42.8979 129.631 42.8003L128.874 42.644C128.151 42.491 127.626 42.2469 127.297 41.9116C126.971 41.5731 126.809 41.1418 126.809 40.6177V40.6128C126.809 40.1929 126.919 39.825 127.141 39.5093C127.365 39.1935 127.673 38.9478 128.063 38.772C128.457 38.5929 128.908 38.5034 129.416 38.5034C129.937 38.5034 130.388 38.5913 130.769 38.7671C131.149 38.9396 131.449 39.1756 131.667 39.4751C131.885 39.7746 132.007 40.1131 132.033 40.4907L132.038 40.5542H130.837L130.827 40.4956C130.798 40.3101 130.721 40.1489 130.598 40.0122C130.477 39.8722 130.316 39.7616 130.114 39.6802C129.912 39.5988 129.676 39.5581 129.406 39.5581C129.149 39.5581 128.92 39.5988 128.718 39.6802C128.516 39.7583 128.356 39.869 128.239 40.0122C128.125 40.1554 128.068 40.328 128.068 40.5298V40.5347C128.068 40.7821 128.164 40.9871 128.356 41.1499C128.552 41.3127 128.869 41.4396 129.309 41.5308L130.065 41.6919C130.808 41.8481 131.343 42.0841 131.672 42.3999C132.004 42.7124 132.17 43.1356 132.17 43.6694V43.6743C132.17 44.13 132.058 44.5239 131.833 44.856C131.612 45.188 131.294 45.4451 130.881 45.6274C130.471 45.8097 129.984 45.9009 129.421 45.9009Z" fill="#8578C5"/>
<path d="M38.7687 78.0469V75.1348H43.8508C45.1575 75.1348 46.1656 74.8035 46.8749 74.1408C47.5936 73.4688 47.9529 72.5261 47.9529 71.3127V71.2847C47.9529 70.062 47.5936 69.1193 46.8749 68.4567C46.1656 67.794 45.1575 67.4626 43.8508 67.4626H38.7687V64.5225H44.7468C46.1096 64.5225 47.3043 64.8026 48.3309 65.3626C49.367 65.9226 50.1743 66.7113 50.753 67.7286C51.3317 68.7367 51.621 69.9174 51.621 71.2707V71.2987C51.621 72.6428 51.3317 73.8235 50.753 74.8408C50.1743 75.8489 49.367 76.6375 48.3309 77.2069C47.3043 77.7669 46.1096 78.0469 44.7468 78.0469H38.7687ZM36.9626 84.7251V64.5225H40.5747V84.7251H36.9626ZM53.9171 84.7251V69.8847H57.3892V72.4468H57.4732C57.6972 71.5507 58.1032 70.8507 58.6912 70.3467C59.2886 69.8334 60.0166 69.5767 60.8753 69.5767C61.09 69.5767 61.2953 69.5907 61.4913 69.6187C61.6873 69.6467 61.8506 69.6794 61.9813 69.7167V72.8668C61.8413 72.8108 61.6406 72.7641 61.3793 72.7268C61.1273 72.6894 60.852 72.6708 60.5533 72.6708C59.8999 72.6708 59.3352 72.8061 58.8592 73.0768C58.3832 73.3381 58.0192 73.7255 57.7672 74.2388C57.5152 74.7522 57.3892 75.3775 57.3892 76.1149V84.7251H53.9171ZM69.7795 85.0191C68.3235 85.0191 67.0588 84.7111 65.9854 84.0951C64.9121 83.4697 64.0767 82.583 63.4794 81.435C62.8913 80.2776 62.5973 78.9009 62.5973 77.3049V77.2769C62.5973 75.6902 62.896 74.3228 63.4934 73.1748C64.0907 72.0174 64.9261 71.1307 65.9994 70.5147C67.0728 69.8894 68.3282 69.5767 69.7655 69.5767C71.2122 69.5767 72.4723 69.8894 73.5456 70.5147C74.6283 71.1307 75.4684 72.0128 76.0657 73.1608C76.6631 74.3088 76.9617 75.6809 76.9617 77.2769V77.3049C76.9617 78.9103 76.6631 80.2916 76.0657 81.449C75.4777 82.597 74.647 83.4791 73.5736 84.0951C72.5003 84.7111 71.2356 85.0191 69.7795 85.0191ZM69.7935 82.205C70.5309 82.205 71.1702 82.0137 71.7116 81.631C72.2529 81.2483 72.6683 80.693 72.9576 79.965C73.2563 79.2276 73.4056 78.3409 73.4056 77.3049V77.2769C73.4056 76.2502 73.2563 75.3728 72.9576 74.6448C72.6589 73.9168 72.2343 73.3615 71.6836 72.9788C71.1422 72.5961 70.5029 72.4048 69.7655 72.4048C69.0468 72.4048 68.4122 72.5961 67.8615 72.9788C67.3201 73.3615 66.8955 73.9168 66.5874 74.6448C66.2888 75.3728 66.1394 76.2502 66.1394 77.2769V77.3049C66.1394 78.3409 66.2888 79.2276 66.5874 79.965C66.8955 80.693 67.3201 81.2483 67.8615 81.631C68.4122 82.0137 69.0562 82.205 69.7935 82.205ZM77.7037 89.6672C77.5637 89.6672 77.4097 89.6626 77.2417 89.6532C77.0737 89.6439 76.9384 89.6346 76.8357 89.6252V86.8952C76.9011 86.8952 76.9757 86.8952 77.0597 86.8952C77.1344 86.9045 77.2137 86.9092 77.2977 86.9092C78.0164 86.9092 78.5251 86.7738 78.8238 86.5031C79.1318 86.2418 79.2858 85.7705 79.2858 85.0891V69.8847H82.7579V85.1451C82.7579 86.6572 82.3379 87.7865 81.4979 88.5332C80.6578 89.2892 79.3931 89.6672 77.7037 89.6672ZM81.0218 67.7566C80.4805 67.7566 80.0185 67.57 79.6358 67.1966C79.2625 66.8233 79.0758 66.3753 79.0758 65.8526C79.0758 65.3206 79.2625 64.8726 79.6358 64.5085C80.0185 64.1352 80.4805 63.9485 81.0218 63.9485C81.5725 63.9485 82.0345 64.1352 82.4079 64.5085C82.7812 64.8726 82.9679 65.3206 82.9679 65.8526C82.9679 66.3753 82.7812 66.8233 82.4079 67.1966C82.0345 67.57 81.5725 67.7566 81.0218 67.7566ZM92.2501 85.0191C90.7661 85.0191 89.4874 84.7064 88.414 84.0811C87.35 83.4557 86.5333 82.569 85.964 81.421C85.3946 80.273 85.1099 78.9149 85.1099 77.3469V77.3329C85.1099 75.7742 85.3946 74.4162 85.964 73.2588C86.5427 72.0921 87.35 71.1867 88.386 70.5427C89.4314 69.8987 90.6634 69.5767 92.0821 69.5767C93.4915 69.5767 94.7095 69.8894 95.7362 70.5147C96.7723 71.1307 97.5656 71.9988 98.1163 73.1188C98.6763 74.2388 98.9563 75.5455 98.9563 77.0389V78.1589H86.832V75.8349H97.2903L95.6102 78.0049V76.6609C95.6102 75.6902 95.4609 74.8828 95.1622 74.2388C94.8635 73.5948 94.4529 73.1141 93.9302 72.7968C93.4075 72.4701 92.8055 72.3068 92.1241 72.3068C91.4335 72.3068 90.8174 72.4748 90.2761 72.8108C89.7441 73.1374 89.3241 73.6275 89.0161 74.2808C88.7174 74.9342 88.568 75.7275 88.568 76.6609V78.0049C88.568 78.9103 88.7174 79.685 89.0161 80.329C89.3241 80.9637 89.7581 81.4537 90.3181 81.799C90.8781 82.135 91.5455 82.303 92.3201 82.303C92.8988 82.303 93.4075 82.2144 93.8462 82.037C94.2849 81.8504 94.6442 81.6123 94.9242 81.323C95.2136 81.0337 95.4142 80.721 95.5262 80.385L95.5542 80.287H98.8023L98.7743 80.441C98.653 81.0103 98.429 81.5703 98.1023 82.121C97.7756 82.6624 97.3369 83.1524 96.7863 83.5911C96.2356 84.0297 95.5822 84.3798 94.8262 84.6411C94.0702 84.8931 93.2115 85.0191 92.2501 85.0191ZM107.735 85.0191C106.269 85.0191 105 84.7064 103.926 84.0811C102.853 83.4557 102.022 82.5644 101.434 81.407C100.856 80.2496 100.566 78.8776 100.566 77.2909V77.2769C100.566 75.6995 100.86 74.3368 101.448 73.1888C102.036 72.0314 102.862 71.1401 103.926 70.5147C105 69.8894 106.255 69.5767 107.693 69.5767C108.999 69.5767 110.129 69.8287 111.081 70.3327C112.033 70.8274 112.779 71.4854 113.321 72.3068C113.862 73.1281 114.17 74.0335 114.245 75.0228V75.1208H110.969L110.941 75.0088C110.801 74.2901 110.46 73.6788 109.919 73.1748C109.387 72.6614 108.659 72.4048 107.735 72.4048C107.007 72.4048 106.367 72.6054 105.817 73.0068C105.275 73.3988 104.855 73.9588 104.556 74.6868C104.258 75.4148 104.108 76.2875 104.108 77.3049V77.3189C104.108 78.3456 104.258 79.2229 104.556 79.951C104.864 80.679 105.289 81.239 105.831 81.631C106.381 82.0137 107.021 82.205 107.749 82.205C108.635 82.205 109.349 81.967 109.891 81.491C110.441 81.0057 110.796 80.3756 110.955 79.601L110.983 79.475H114.273L114.259 79.573C114.165 80.5997 113.839 81.5237 113.279 82.345C112.719 83.1664 111.967 83.8197 111.025 84.3051C110.082 84.7811 108.985 85.0191 107.735 85.0191ZM121.861 85.0191C120.321 85.0191 119.173 84.6831 118.417 84.0111C117.67 83.3391 117.297 82.2377 117.297 80.707V72.5728H115.197V69.8847H117.297V66.1186H120.839V69.8847H123.597V72.5728H120.839V80.427C120.839 81.1457 120.998 81.645 121.315 81.925C121.642 82.1957 122.118 82.331 122.743 82.331C122.92 82.331 123.074 82.3264 123.205 82.317C123.345 82.2984 123.476 82.2844 123.597 82.275V84.8931C123.392 84.9211 123.14 84.9491 122.841 84.9771C122.552 85.0051 122.225 85.0191 121.861 85.0191ZM131.787 85.0191C130.49 85.0191 129.379 84.8278 128.455 84.4451C127.54 84.0624 126.822 83.5257 126.299 82.835C125.786 82.135 125.473 81.3277 125.361 80.413L125.347 80.287H128.777L128.805 80.413C128.936 81.057 129.244 81.5563 129.729 81.911C130.224 82.2657 130.915 82.443 131.801 82.443C132.371 82.443 132.856 82.373 133.257 82.233C133.659 82.093 133.967 81.8877 134.181 81.617C134.405 81.3463 134.517 81.029 134.517 80.665V80.651C134.517 80.2123 134.368 79.8576 134.069 79.587C133.771 79.307 133.234 79.0783 132.459 78.9009L129.995 78.3549C128.576 78.0469 127.508 77.5429 126.789 76.8429C126.08 76.1429 125.725 75.2422 125.725 74.1408V74.1268C125.725 73.2215 125.972 72.4281 126.467 71.7467C126.962 71.0654 127.657 70.5334 128.553 70.1507C129.449 69.768 130.49 69.5767 131.675 69.5767C132.907 69.5767 133.962 69.782 134.839 70.1927C135.717 70.6034 136.393 71.1541 136.869 71.8447C137.355 72.5354 137.616 73.3101 137.653 74.1688L137.667 74.3228H134.419L134.405 74.2108C134.331 73.6135 134.06 73.1234 133.593 72.7408C133.127 72.3488 132.487 72.1528 131.675 72.1528C131.162 72.1528 130.714 72.2274 130.331 72.3768C129.958 72.5261 129.668 72.7361 129.463 73.0068C129.267 73.2775 129.169 73.5948 129.169 73.9588V73.9728C129.169 74.3928 129.328 74.7475 129.645 75.0368C129.972 75.3262 130.518 75.5595 131.283 75.7369L133.747 76.2829C135.287 76.6282 136.384 77.1229 137.037 77.7669C137.691 78.4016 138.017 79.2556 138.017 80.329V80.343C138.017 81.2763 137.751 82.0977 137.219 82.807C136.687 83.5071 135.95 84.0531 135.007 84.4451C134.074 84.8278 133.001 85.0191 131.787 85.0191Z" fill="#C4C4C4"/>
<rect x="215.509" y="36.418" width="102.048" height="32.6141" rx="16.3071" fill="url(#paint1_linear_251_4789)"/>
<rect x="215.509" y="36.418" width="102.048" height="32.6141" rx="16.3071" stroke="url(#paint2_linear_251_4789)" stroke-width="1.38585"/>
<path d="M238.281 56.7251V49.2192H235.557V48.27H242.061V49.2192H239.336V56.7251H238.281ZM243.619 56.7251V47.9009H244.639V51.3579H244.732C244.893 51.022 245.123 50.7622 245.424 50.5786C245.725 50.3911 246.107 50.2974 246.572 50.2974C247.045 50.2974 247.445 50.3892 247.773 50.5728C248.102 50.7524 248.352 51.0161 248.523 51.3638C248.695 51.7114 248.781 52.1353 248.781 52.6353V56.7251H247.762V52.8813C247.762 52.311 247.641 51.8892 247.398 51.6157C247.16 51.3384 246.789 51.1997 246.285 51.1997C245.949 51.1997 245.658 51.272 245.412 51.4165C245.166 51.561 244.975 51.7661 244.838 52.0317C244.705 52.2974 244.639 52.6157 244.639 52.9868V56.7251H243.619ZM250.65 56.7251V50.4087H251.67V56.7251H250.65ZM251.166 49.1899C250.975 49.1899 250.809 49.1216 250.668 48.9849C250.531 48.8442 250.463 48.6782 250.463 48.4868C250.463 48.2915 250.531 48.1255 250.668 47.9888C250.809 47.8521 250.975 47.7837 251.166 47.7837C251.361 47.7837 251.527 47.8521 251.664 47.9888C251.801 48.1255 251.869 48.2915 251.869 48.4868C251.869 48.6782 251.801 48.8442 251.664 48.9849C251.527 49.1216 251.361 49.1899 251.166 49.1899ZM255.76 56.8364C255.291 56.8364 254.877 56.7661 254.518 56.6255C254.158 56.481 253.869 56.2798 253.65 56.022C253.436 55.7642 253.309 55.4614 253.27 55.1138H254.312C254.398 55.3755 254.566 55.5864 254.816 55.7466C255.066 55.9067 255.393 55.9868 255.795 55.9868C256.08 55.9868 256.33 55.9458 256.545 55.8638C256.764 55.7778 256.936 55.6626 257.061 55.5181C257.186 55.3696 257.248 55.1997 257.248 55.0083V54.9966C257.248 54.7817 257.162 54.6001 256.99 54.4517C256.818 54.2993 256.537 54.1763 256.146 54.0825L255.168 53.8481C254.578 53.7075 254.145 53.5024 253.867 53.2329C253.59 52.9595 253.451 52.5962 253.451 52.1431V52.1372C253.451 51.7856 253.553 51.4712 253.756 51.1938C253.963 50.9165 254.244 50.6978 254.6 50.5376C254.955 50.3774 255.355 50.2974 255.801 50.2974C256.242 50.2974 256.633 50.3677 256.973 50.5083C257.316 50.645 257.592 50.8403 257.799 51.0942C258.01 51.3481 258.139 51.647 258.186 51.9907H257.184C257.117 51.7407 256.965 51.5376 256.727 51.3813C256.488 51.2251 256.178 51.147 255.795 51.147C255.545 51.147 255.322 51.188 255.127 51.27C254.932 51.3481 254.777 51.4575 254.664 51.5981C254.551 51.7388 254.494 51.9028 254.494 52.0903V52.1021C254.494 52.3169 254.578 52.4946 254.746 52.6353C254.914 52.7759 255.184 52.8911 255.555 52.981L256.527 53.2153C257.121 53.3599 257.562 53.5669 257.852 53.8364C258.145 54.106 258.291 54.4673 258.291 54.9204V54.9321C258.291 55.3071 258.18 55.6392 257.957 55.9282C257.734 56.2134 257.432 56.436 257.049 56.5962C256.67 56.7563 256.24 56.8364 255.76 56.8364ZM263.787 58.9399C263.721 58.9399 263.646 58.936 263.564 58.9282C263.482 58.9243 263.406 58.9165 263.336 58.9048V58.0669C263.398 58.0786 263.467 58.0864 263.541 58.0903C263.615 58.0942 263.688 58.0962 263.758 58.0962C264.047 58.0962 264.283 58.022 264.467 57.8735C264.654 57.7251 264.805 57.4692 264.918 57.106L265.035 56.731L262.697 50.4087H263.787L265.732 56.2446L265.328 55.606H265.809L265.404 56.2446L267.344 50.4087H268.416L265.949 57.1118C265.773 57.5845 265.59 57.9536 265.398 58.2192C265.211 58.4849 264.988 58.6704 264.73 58.7759C264.477 58.8853 264.162 58.9399 263.787 58.9399ZM272.107 56.8364C271.506 56.8364 270.988 56.7036 270.555 56.438C270.125 56.1724 269.793 55.7974 269.559 55.313C269.328 54.8247 269.213 54.2505 269.213 53.5903V53.5845C269.213 52.9321 269.328 52.3599 269.559 51.8677C269.793 51.3755 270.123 50.9907 270.549 50.7134C270.975 50.436 271.473 50.2974 272.043 50.2974C272.617 50.2974 273.109 50.4302 273.52 50.6958C273.934 50.9614 274.25 51.3325 274.469 51.8091C274.691 52.2817 274.803 52.8325 274.803 53.4614V53.8599H269.74V53.0454H274.281L273.777 53.7896V53.3853C273.777 52.8892 273.703 52.481 273.555 52.1606C273.406 51.8403 273.201 51.6021 272.939 51.4458C272.678 51.2856 272.377 51.2056 272.037 51.2056C271.697 51.2056 271.393 51.2896 271.123 51.4575C270.857 51.6216 270.646 51.8657 270.49 52.1899C270.334 52.5142 270.256 52.9126 270.256 53.3853V53.7896C270.256 54.2388 270.332 54.6235 270.484 54.9438C270.637 55.2603 270.854 55.5044 271.135 55.6763C271.416 55.8442 271.748 55.9282 272.131 55.9282C272.416 55.9282 272.664 55.8892 272.875 55.811C273.086 55.7329 273.26 55.6333 273.396 55.5122C273.533 55.3911 273.629 55.2681 273.684 55.1431L273.707 55.0903H274.727L274.715 55.1372C274.66 55.3521 274.562 55.561 274.422 55.7642C274.285 55.9634 274.107 56.145 273.889 56.3091C273.67 56.4692 273.41 56.5981 273.109 56.6958C272.812 56.7896 272.479 56.8364 272.107 56.8364ZM278.119 56.8364C277.721 56.8364 277.361 56.7603 277.041 56.6079C276.725 56.4556 276.473 56.2388 276.285 55.9575C276.102 55.6763 276.01 55.3442 276.01 54.9614V54.9497C276.01 54.3872 276.209 53.9478 276.607 53.6313C277.01 53.311 277.578 53.1294 278.312 53.0864L280.633 52.9458V53.7603L278.436 53.9009C277.955 53.9282 277.604 54.0278 277.381 54.1997C277.162 54.3716 277.053 54.6138 277.053 54.9263V54.938C277.053 55.2583 277.174 55.5083 277.416 55.688C277.658 55.8638 277.963 55.9517 278.33 55.9517C278.678 55.9517 278.986 55.8833 279.256 55.7466C279.525 55.606 279.736 55.4165 279.889 55.1782C280.045 54.9399 280.123 54.6704 280.123 54.3696V52.4009C280.123 52.0103 280.004 51.7134 279.766 51.5103C279.531 51.3032 279.178 51.1997 278.705 51.1997C278.326 51.1997 278.016 51.2681 277.773 51.4048C277.531 51.5376 277.369 51.7271 277.287 51.9731L277.281 51.9907H276.262L276.268 51.9556C276.322 51.6235 276.459 51.3345 276.678 51.0884C276.9 50.8384 277.188 50.645 277.539 50.5083C277.891 50.3677 278.291 50.2974 278.74 50.2974C279.256 50.2974 279.691 50.3813 280.047 50.5493C280.406 50.7173 280.678 50.9595 280.861 51.2759C281.049 51.5884 281.143 51.9634 281.143 52.4009V56.7251H280.123V55.7935H280.029C279.896 56.0161 279.734 56.2056 279.543 56.3618C279.355 56.5181 279.143 56.6372 278.904 56.7192C278.666 56.7974 278.404 56.8364 278.119 56.8364ZM283.006 56.7251V50.4087H284.025V51.3462H284.119C284.24 51.0142 284.445 50.7563 284.734 50.5728C285.023 50.3892 285.381 50.2974 285.807 50.2974C285.904 50.2974 286 50.3032 286.094 50.3149C286.191 50.3228 286.266 50.3306 286.316 50.3384V51.3286C286.211 51.3091 286.107 51.2954 286.006 51.2876C285.908 51.2759 285.803 51.27 285.689 51.27C285.365 51.27 285.078 51.3345 284.828 51.4634C284.578 51.5923 284.381 51.772 284.236 52.0024C284.096 52.2329 284.025 52.5024 284.025 52.811V56.7251H283.006Z" fill="#6B6B6B"/>
<path d="M292.707 51.3391L295.478 54.1108L298.25 51.3391" stroke="#6B6B6B" stroke-width="1.38585" stroke-linecap="round" stroke-linejoin="round"/>
<path d="M51.0703 149.725V143.338H36.7734V140.936C37.6328 139.634 38.4922 138.338 39.3516 137.049C40.224 135.76 41.0964 134.471 41.9688 133.182C42.8411 131.88 43.707 130.584 44.5664 129.295C45.4258 128.006 46.2917 126.717 47.1641 125.428C48.0365 124.126 48.9023 122.831 49.7617 121.542H53.6484V140.995H57.8477V143.338H53.6484V149.725H51.0703ZM39.4492 140.995H51.0703V123.924H50.9727C50.2044 125.07 49.4362 126.209 48.668 127.342C47.8997 128.462 47.1315 129.588 46.3633 130.721C45.5951 131.854 44.8268 132.987 44.0586 134.12C43.2904 135.252 42.5221 136.385 41.7539 137.518C40.9857 138.651 40.2174 139.79 39.4492 140.936V140.995ZM70.8359 150.174C68.8828 150.174 67.151 149.829 65.6406 149.139C64.1302 148.449 62.9453 147.499 62.0859 146.288C61.2266 145.064 60.7969 143.664 60.7969 142.088V142.049C60.7969 140.864 61.0638 139.777 61.5977 138.788C62.1315 137.785 62.8672 136.939 63.8047 136.249C64.7552 135.558 65.8424 135.083 67.0664 134.823V134.764C65.4909 134.321 64.2214 133.547 63.2578 132.44C62.2943 131.32 61.8125 129.999 61.8125 128.475V128.436C61.8125 127.017 62.1966 125.76 62.9648 124.667C63.7461 123.56 64.8138 122.687 66.168 122.049C67.5352 121.411 69.0911 121.092 70.8359 121.092C72.5938 121.092 74.1497 121.411 75.5039 122.049C76.8711 122.687 77.9388 123.56 78.707 124.667C79.4883 125.76 79.8789 127.017 79.8789 128.436V128.475C79.8789 129.999 79.3971 131.32 78.4336 132.44C77.4831 133.547 76.2135 134.321 74.625 134.764V134.823C75.862 135.083 76.9492 135.558 77.8867 136.249C78.8242 136.939 79.5599 137.785 80.0938 138.788C80.6276 139.777 80.8945 140.864 80.8945 142.049V142.088C80.8945 143.664 80.4648 145.064 79.6055 146.288C78.7591 147.499 77.5807 148.449 76.0703 149.139C74.5599 149.829 72.8151 150.174 70.8359 150.174ZM70.8359 147.831C72.2943 147.831 73.5703 147.577 74.6641 147.069C75.7708 146.561 76.6367 145.864 77.2617 144.979C77.8867 144.094 78.1992 143.078 78.1992 141.932V141.893C78.1992 140.76 77.8867 139.764 77.2617 138.905C76.6367 138.032 75.7708 137.349 74.6641 136.854C73.5703 136.359 72.2943 136.112 70.8359 136.112C69.4036 136.112 68.1341 136.359 67.0273 136.854C65.9206 137.349 65.0547 138.032 64.4297 138.905C63.8047 139.764 63.4922 140.76 63.4922 141.893V141.932C63.4922 143.078 63.8047 144.094 64.4297 144.979C65.0547 145.864 65.9206 146.561 67.0273 147.069C68.1341 147.577 69.4036 147.831 70.8359 147.831ZM70.8359 133.749C72.099 133.749 73.2057 133.534 74.1562 133.104C75.1198 132.674 75.875 132.075 76.4219 131.307C76.9688 130.539 77.2422 129.667 77.2422 128.69V128.651C77.2422 127.635 76.9688 126.737 76.4219 125.956C75.888 125.161 75.1393 124.536 74.1758 124.081C73.2122 123.625 72.099 123.397 70.8359 123.397C69.5859 123.397 68.4792 123.625 67.5156 124.081C66.5521 124.536 65.7969 125.161 65.25 125.956C64.7161 126.737 64.4492 127.635 64.4492 128.651V128.69C64.4492 129.667 64.7227 130.539 65.2695 131.307C65.8164 132.075 66.5651 132.674 67.5156 133.104C68.4792 133.534 69.5859 133.749 70.8359 133.749Z" fill="#C4C4C4"/>
<path d="M35.4043 171.725L38.5215 163.27H39.3301V164.635H38.9961L36.5117 171.725H35.4043ZM36.8164 169.305L37.1445 168.409H40.9648L41.293 169.305H36.8164ZM41.5742 171.725L39.0898 164.635V163.27H39.5645L42.6816 171.725H41.5742ZM46.0156 171.836C45.4844 171.836 45.0195 171.702 44.6211 171.432C44.2227 171.163 43.9141 170.784 43.6953 170.295C43.4766 169.803 43.3672 169.229 43.3672 168.573V168.561C43.3672 167.901 43.4766 167.327 43.6953 166.838C43.9141 166.35 44.2207 165.971 44.6152 165.702C45.0137 165.432 45.4805 165.297 46.0156 165.297C46.4492 165.297 46.8418 165.399 47.1934 165.602C47.5488 165.801 47.8125 166.069 47.9844 166.405H48.0781V162.901H49.0977V171.725H48.0781V170.717H47.9844C47.793 171.069 47.5273 171.344 47.1875 171.543C46.8477 171.739 46.457 171.836 46.0156 171.836ZM46.25 170.934C46.6328 170.934 46.9629 170.838 47.2402 170.647C47.5176 170.456 47.7305 170.184 47.8789 169.833C48.0273 169.477 48.1016 169.057 48.1016 168.573V168.561C48.1016 168.073 48.0273 167.653 47.8789 167.301C47.7305 166.95 47.5176 166.678 47.2402 166.487C46.9629 166.295 46.6328 166.2 46.25 166.2C45.8672 166.2 45.5371 166.295 45.2598 166.487C44.9863 166.674 44.7754 166.944 44.627 167.295C44.4824 167.647 44.4102 168.069 44.4102 168.561V168.573C44.4102 169.061 44.4824 169.483 44.627 169.838C44.7754 170.19 44.9863 170.461 45.2598 170.653C45.5371 170.84 45.8672 170.934 46.25 170.934ZM53.3867 171.836C52.8555 171.836 52.3906 171.702 51.9922 171.432C51.5938 171.163 51.2852 170.784 51.0664 170.295C50.8477 169.803 50.7383 169.229 50.7383 168.573V168.561C50.7383 167.901 50.8477 167.327 51.0664 166.838C51.2852 166.35 51.5918 165.971 51.9863 165.702C52.3848 165.432 52.8516 165.297 53.3867 165.297C53.8203 165.297 54.2129 165.399 54.5645 165.602C54.9199 165.801 55.1836 166.069 55.3555 166.405H55.4492V162.901H56.4688V171.725H55.4492V170.717H55.3555C55.1641 171.069 54.8984 171.344 54.5586 171.543C54.2188 171.739 53.8281 171.836 53.3867 171.836ZM53.6211 170.934C54.0039 170.934 54.334 170.838 54.6113 170.647C54.8887 170.456 55.1016 170.184 55.25 169.833C55.3984 169.477 55.4727 169.057 55.4727 168.573V168.561C55.4727 168.073 55.3984 167.653 55.25 167.301C55.1016 166.95 54.8887 166.678 54.6113 166.487C54.334 166.295 54.0039 166.2 53.6211 166.2C53.2383 166.2 52.9082 166.295 52.6309 166.487C52.3574 166.674 52.1465 166.944 51.998 167.295C51.8535 167.647 51.7812 168.069 51.7812 168.561V168.573C51.7812 169.061 51.8535 169.483 51.998 169.838C52.1465 170.19 52.3574 170.461 52.6309 170.653C52.9082 170.84 53.2383 170.934 53.6211 170.934ZM61.0039 171.836C60.4023 171.836 59.8848 171.704 59.4512 171.438C59.0215 171.172 58.6895 170.797 58.4551 170.313C58.2246 169.825 58.1094 169.25 58.1094 168.59V168.584C58.1094 167.932 58.2246 167.36 58.4551 166.868C58.6895 166.375 59.0195 165.991 59.4453 165.713C59.8711 165.436 60.3691 165.297 60.9395 165.297C61.5137 165.297 62.0059 165.43 62.416 165.696C62.8301 165.961 63.1465 166.333 63.3652 166.809C63.5879 167.282 63.6992 167.833 63.6992 168.461V168.86H58.6367V168.045H63.1777L62.6738 168.79V168.385C62.6738 167.889 62.5996 167.481 62.4512 167.161C62.3027 166.84 62.0977 166.602 61.8359 166.446C61.5742 166.286 61.2734 166.206 60.9336 166.206C60.5938 166.206 60.2891 166.29 60.0195 166.458C59.7539 166.622 59.543 166.866 59.3867 167.19C59.2305 167.514 59.1523 167.913 59.1523 168.385V168.79C59.1523 169.239 59.2285 169.624 59.3809 169.944C59.5332 170.26 59.75 170.504 60.0312 170.676C60.3125 170.844 60.6445 170.928 61.0273 170.928C61.3125 170.928 61.5605 170.889 61.7715 170.811C61.9824 170.733 62.1562 170.633 62.293 170.512C62.4297 170.391 62.5254 170.268 62.5801 170.143L62.6035 170.09H63.623L63.6113 170.137C63.5566 170.352 63.459 170.561 63.3184 170.764C63.1816 170.963 63.0039 171.145 62.7852 171.309C62.5664 171.469 62.3066 171.598 62.0059 171.696C61.709 171.79 61.375 171.836 61.0039 171.836ZM67.6133 171.836C67.082 171.836 66.6172 171.702 66.2188 171.432C65.8203 171.163 65.5117 170.784 65.293 170.295C65.0742 169.803 64.9648 169.229 64.9648 168.573V168.561C64.9648 167.901 65.0742 167.327 65.293 166.838C65.5117 166.35 65.8184 165.971 66.2129 165.702C66.6113 165.432 67.0781 165.297 67.6133 165.297C68.0469 165.297 68.4395 165.399 68.791 165.602C69.1465 165.801 69.4102 166.069 69.582 166.405H69.6758V162.901H70.6953V171.725H69.6758V170.717H69.582C69.3906 171.069 69.125 171.344 68.7852 171.543C68.4453 171.739 68.0547 171.836 67.6133 171.836ZM67.8477 170.934C68.2305 170.934 68.5605 170.838 68.8379 170.647C69.1152 170.456 69.3281 170.184 69.4766 169.833C69.625 169.477 69.6992 169.057 69.6992 168.573V168.561C69.6992 168.073 69.625 167.653 69.4766 167.301C69.3281 166.95 69.1152 166.678 68.8379 166.487C68.5605 166.295 68.2305 166.2 67.8477 166.2C67.4648 166.2 67.1348 166.295 66.8574 166.487C66.584 166.674 66.373 166.944 66.2246 167.295C66.0801 167.647 66.0078 168.069 66.0078 168.561V168.573C66.0078 169.061 66.0801 169.483 66.2246 169.838C66.373 170.19 66.584 170.461 66.8574 170.653C67.1348 170.84 67.4648 170.934 67.8477 170.934ZM36.0781 185.725V177.27H41.2109V178.219H37.1328V181.125H40.877V182.063H37.1328V185.725H36.0781ZM45.3945 185.836C44.793 185.836 44.2754 185.704 43.8418 185.438C43.4121 185.172 43.0801 184.797 42.8457 184.313C42.6152 183.825 42.5 183.25 42.5 182.59V182.584C42.5 181.932 42.6152 181.36 42.8457 180.868C43.0801 180.375 43.4102 179.991 43.8359 179.713C44.2617 179.436 44.7598 179.297 45.3301 179.297C45.9043 179.297 46.3965 179.43 46.8066 179.696C47.2207 179.961 47.5371 180.333 47.7559 180.809C47.9785 181.282 48.0898 181.833 48.0898 182.461V182.86H43.0273V182.045H47.5684L47.0645 182.79V182.385C47.0645 181.889 46.9902 181.481 46.8418 181.161C46.6934 180.84 46.4883 180.602 46.2266 180.446C45.9648 180.286 45.6641 180.206 45.3242 180.206C44.9844 180.206 44.6797 180.29 44.4102 180.458C44.1445 180.622 43.9336 180.866 43.7773 181.19C43.6211 181.514 43.543 181.913 43.543 182.385V182.79C43.543 183.239 43.6191 183.624 43.7715 183.944C43.9238 184.26 44.1406 184.504 44.4219 184.676C44.7031 184.844 45.0352 184.928 45.418 184.928C45.7031 184.928 45.9512 184.889 46.1621 184.811C46.373 184.733 46.5469 184.633 46.6836 184.512C46.8203 184.391 46.916 184.268 46.9707 184.143L46.9941 184.09H48.0137L48.002 184.137C47.9473 184.352 47.8496 184.561 47.709 184.764C47.5723 184.963 47.3945 185.145 47.1758 185.309C46.957 185.469 46.6973 185.598 46.3965 185.696C46.0996 185.79 45.7656 185.836 45.3945 185.836ZM51.4062 185.836C51.0078 185.836 50.6484 185.76 50.3281 185.608C50.0117 185.456 49.7598 185.239 49.5723 184.958C49.3887 184.676 49.2969 184.344 49.2969 183.961V183.95C49.2969 183.387 49.4961 182.948 49.8945 182.631C50.2969 182.311 50.8652 182.129 51.5996 182.086L53.9199 181.946V182.76L51.7227 182.901C51.2422 182.928 50.8906 183.028 50.668 183.2C50.4492 183.372 50.3398 183.614 50.3398 183.926V183.938C50.3398 184.258 50.4609 184.508 50.7031 184.688C50.9453 184.864 51.25 184.952 51.6172 184.952C51.9648 184.952 52.2734 184.883 52.543 184.747C52.8125 184.606 53.0234 184.417 53.1758 184.178C53.332 183.94 53.4102 183.67 53.4102 183.37V181.401C53.4102 181.01 53.291 180.713 53.0527 180.51C52.8184 180.303 52.4648 180.2 51.9922 180.2C51.6133 180.2 51.3027 180.268 51.0605 180.405C50.8184 180.538 50.6562 180.727 50.5742 180.973L50.5684 180.991H49.5488L49.5547 180.956C49.6094 180.624 49.7461 180.334 49.9648 180.088C50.1875 179.838 50.4746 179.645 50.8262 179.508C51.1777 179.368 51.5781 179.297 52.0273 179.297C52.543 179.297 52.9785 179.381 53.334 179.549C53.6934 179.717 53.9648 179.959 54.1484 180.276C54.3359 180.588 54.4297 180.963 54.4297 181.401V185.725H53.4102V184.793H53.3164C53.1836 185.016 53.0215 185.206 52.8301 185.362C52.6426 185.518 52.4297 185.637 52.1914 185.719C51.9531 185.797 51.6914 185.836 51.4062 185.836ZM58.5371 185.772C57.8887 185.772 57.418 185.641 57.125 185.379C56.8359 185.118 56.6914 184.686 56.6914 184.084V180.252H55.6953V179.409H56.6914V177.774H57.7461V179.409H59.1289V180.252H57.7461V183.827C57.7461 184.198 57.8164 184.465 57.957 184.629C58.0977 184.79 58.332 184.87 58.6602 184.87C58.75 184.87 58.8262 184.868 58.8887 184.864C58.9551 184.86 59.0352 184.854 59.1289 184.846V185.713C59.0312 185.729 58.9336 185.743 58.8359 185.754C58.7383 185.766 58.6387 185.772 58.5371 185.772ZM62.7676 185.836C62.291 185.836 61.8906 185.747 61.5664 185.567C61.2422 185.383 60.998 185.118 60.834 184.77C60.6738 184.418 60.5938 183.995 60.5938 183.499V179.409H61.6133V183.252C61.6133 183.819 61.7227 184.241 61.9414 184.518C62.1641 184.795 62.5273 184.934 63.0312 184.934C63.4023 184.934 63.7148 184.862 63.9688 184.717C64.2227 184.573 64.4141 184.368 64.543 184.102C64.6719 183.833 64.7363 183.514 64.7363 183.147V179.409H65.7559V185.725H64.7363V184.782H64.6426C64.4863 185.118 64.25 185.377 63.9336 185.561C63.6211 185.745 63.2324 185.836 62.7676 185.836ZM67.6602 185.725V179.409H68.6797V180.346H68.7734C68.8945 180.014 69.0996 179.756 69.3887 179.573C69.6777 179.389 70.0352 179.297 70.4609 179.297C70.5586 179.297 70.6543 179.303 70.748 179.315C70.8457 179.323 70.9199 179.331 70.9707 179.338V180.329C70.8652 180.309 70.7617 180.295 70.6602 180.288C70.5625 180.276 70.457 180.27 70.3438 180.27C70.0195 180.27 69.7324 180.334 69.4824 180.463C69.2324 180.592 69.0352 180.772 68.8906 181.002C68.75 181.233 68.6797 181.502 68.6797 181.811V185.725H67.6602ZM74.6328 185.836C74.0312 185.836 73.5137 185.704 73.0801 185.438C72.6504 185.172 72.3184 184.797 72.084 184.313C71.8535 183.825 71.7383 183.25 71.7383 182.59V182.584C71.7383 181.932 71.8535 181.36 72.084 180.868C72.3184 180.375 72.6484 179.991 73.0742 179.713C73.5 179.436 73.998 179.297 74.5684 179.297C75.1426 179.297 75.6348 179.43 76.0449 179.696C76.459 179.961 76.7754 180.333 76.9941 180.809C77.2168 181.282 77.3281 181.833 77.3281 182.461V182.86H72.2656V182.045H76.8066L76.3027 182.79V182.385C76.3027 181.889 76.2285 181.481 76.0801 181.161C75.9316 180.84 75.7266 180.602 75.4648 180.446C75.2031 180.286 74.9023 180.206 74.5625 180.206C74.2227 180.206 73.918 180.29 73.6484 180.458C73.3828 180.622 73.1719 180.866 73.0156 181.19C72.8594 181.514 72.7812 181.913 72.7812 182.385V182.79C72.7812 183.239 72.8574 183.624 73.0098 183.944C73.1621 184.26 73.3789 184.504 73.6602 184.676C73.9414 184.844 74.2734 184.928 74.6562 184.928C74.9414 184.928 75.1895 184.889 75.4004 184.811C75.6113 184.733 75.7852 184.633 75.9219 184.512C76.0586 184.391 76.1543 184.268 76.209 184.143L76.2324 184.09H77.252L77.2402 184.137C77.1855 184.352 77.0879 184.561 76.9473 184.764C76.8105 184.963 76.6328 185.145 76.4141 185.309C76.1953 185.469 75.9355 185.598 75.6348 185.696C75.3379 185.79 75.0039 185.836 74.6328 185.836ZM81.0781 185.836C80.6094 185.836 80.1953 185.766 79.8359 185.625C79.4766 185.481 79.1875 185.28 78.9688 185.022C78.7539 184.764 78.627 184.461 78.5879 184.114H79.6309C79.7168 184.375 79.8848 184.586 80.1348 184.747C80.3848 184.907 80.7109 184.987 81.1133 184.987C81.3984 184.987 81.6484 184.946 81.8633 184.864C82.082 184.778 82.2539 184.663 82.3789 184.518C82.5039 184.37 82.5664 184.2 82.5664 184.008V183.997C82.5664 183.782 82.4805 183.6 82.3086 183.452C82.1367 183.299 81.8555 183.176 81.4648 183.083L80.4863 182.848C79.8965 182.708 79.4629 182.502 79.1855 182.233C78.9082 181.959 78.7695 181.596 78.7695 181.143V181.137C78.7695 180.786 78.8711 180.471 79.0742 180.194C79.2812 179.917 79.5625 179.698 79.918 179.538C80.2734 179.377 80.6738 179.297 81.1191 179.297C81.5605 179.297 81.9512 179.368 82.291 179.508C82.6348 179.645 82.9102 179.84 83.1172 180.094C83.3281 180.348 83.457 180.647 83.5039 180.991H82.502C82.4355 180.741 82.2832 180.538 82.0449 180.381C81.8066 180.225 81.4961 180.147 81.1133 180.147C80.8633 180.147 80.6406 180.188 80.4453 180.27C80.25 180.348 80.0957 180.458 79.9824 180.598C79.8691 180.739 79.8125 180.903 79.8125 181.09V181.102C79.8125 181.317 79.8965 181.495 80.0645 181.635C80.2324 181.776 80.502 181.891 80.873 181.981L81.8457 182.215C82.4395 182.36 82.8809 182.567 83.1699 182.836C83.4629 183.106 83.6094 183.467 83.6094 183.92V183.932C83.6094 184.307 83.498 184.639 83.2754 184.928C83.0527 185.213 82.75 185.436 82.3672 185.596C81.9883 185.756 81.5586 185.836 81.0781 185.836Z" fill="#666666"/>
<path d="M222.834 111.725V188.725H224.834V111.725H222.834ZM130.418 188.725V111.725H128.418V188.725H130.418Z" fill="#1F1F1F" mask="url(#path-10-inside-1_251_4789)"/>
<path d="M155.727 149.725V147.85L165.707 137.381C167.048 135.975 168.077 134.81 168.793 133.885C169.522 132.948 170.023 132.108 170.297 131.366C170.583 130.624 170.727 129.842 170.727 129.022V128.983C170.727 127.915 170.466 126.965 169.945 126.131C169.438 125.298 168.734 124.64 167.836 124.159C166.938 123.677 165.915 123.436 164.77 123.436C163.507 123.436 162.38 123.696 161.391 124.217C160.414 124.725 159.639 125.422 159.066 126.307C158.493 127.193 158.194 128.189 158.168 129.295V129.452H155.59V129.276C155.616 127.7 156.033 126.301 156.84 125.077C157.66 123.84 158.754 122.87 160.121 122.167C161.488 121.45 163.018 121.092 164.711 121.092C166.391 121.092 167.882 121.437 169.184 122.127C170.486 122.818 171.508 123.749 172.25 124.92C173.005 126.092 173.383 127.407 173.383 128.866V128.905C173.383 129.907 173.194 130.884 172.816 131.834C172.439 132.785 171.788 133.853 170.863 135.038C169.939 136.222 168.643 137.674 166.977 139.393L158.559 148.163L159.418 146.327V148.163L158.559 147.342H174.105V149.725H155.727ZM188.129 150.174C186.762 150.174 185.447 149.914 184.184 149.393C182.934 148.872 181.814 148.065 180.824 146.971C179.835 145.864 179.053 144.445 178.48 142.713C177.908 140.982 177.621 138.885 177.621 136.424V136.385C177.621 133.182 178.044 130.441 178.891 128.163C179.75 125.871 180.98 124.12 182.582 122.909C184.184 121.698 186.098 121.092 188.324 121.092C189.9 121.092 191.312 121.379 192.562 121.952C193.826 122.525 194.867 123.325 195.688 124.354C196.521 125.37 197.074 126.535 197.348 127.85L197.406 128.104H194.711L194.652 127.889C194.392 127.004 193.969 126.229 193.383 125.565C192.797 124.901 192.068 124.387 191.195 124.022C190.336 123.644 189.366 123.456 188.285 123.456C186.436 123.456 184.919 124.015 183.734 125.135C182.549 126.255 181.671 127.746 181.098 129.608C180.538 131.47 180.238 133.521 180.199 135.76C180.186 135.917 180.18 136.073 180.18 136.229C180.18 136.385 180.18 136.542 180.18 136.698L180.941 140.448C180.941 141.802 181.254 143.039 181.879 144.159C182.504 145.265 183.357 146.151 184.438 146.815C185.518 147.466 186.742 147.792 188.109 147.792C189.424 147.792 190.616 147.479 191.684 146.854C192.764 146.216 193.617 145.363 194.242 144.295C194.88 143.215 195.199 142.004 195.199 140.663V140.624C195.199 139.282 194.893 138.084 194.281 137.03C193.669 135.975 192.829 135.148 191.762 134.549C190.694 133.937 189.483 133.631 188.129 133.631C186.801 133.631 185.59 133.931 184.496 134.53C183.402 135.129 182.536 135.943 181.898 136.971C181.26 138 180.941 139.152 180.941 140.428V140.448H179.887V136.581H180.258C180.622 135.591 181.195 134.699 181.977 133.905C182.771 133.097 183.728 132.459 184.848 131.991C185.967 131.509 187.198 131.268 188.539 131.268C190.336 131.268 191.938 131.678 193.344 132.499C194.75 133.306 195.857 134.413 196.664 135.819C197.484 137.212 197.895 138.801 197.895 140.584V140.624C197.895 142.446 197.465 144.081 196.605 145.526C195.759 146.958 194.6 148.091 193.129 148.924C191.671 149.758 190.004 150.174 188.129 150.174Z" fill="#C4C4C4"/>
<path d="M154.203 171.725V163.27H155.229L160.074 170.219L159.371 169.85H159.91V163.27H160.953V171.725H159.928L155.082 164.799L155.785 165.168H155.246V171.725H154.203ZM165.559 171.836C164.957 171.836 164.439 171.704 164.006 171.438C163.576 171.172 163.244 170.797 163.01 170.313C162.779 169.825 162.664 169.25 162.664 168.59V168.584C162.664 167.932 162.779 167.36 163.01 166.868C163.244 166.375 163.574 165.991 164 165.713C164.426 165.436 164.924 165.297 165.494 165.297C166.068 165.297 166.561 165.43 166.971 165.696C167.385 165.961 167.701 166.333 167.92 166.809C168.143 167.282 168.254 167.833 168.254 168.461V168.86H163.191V168.045H167.732L167.229 168.79V168.385C167.229 167.889 167.154 167.481 167.006 167.161C166.857 166.84 166.652 166.602 166.391 166.446C166.129 166.286 165.828 166.206 165.488 166.206C165.148 166.206 164.844 166.29 164.574 166.458C164.309 166.622 164.098 166.866 163.941 167.19C163.785 167.514 163.707 167.913 163.707 168.385V168.79C163.707 169.239 163.783 169.624 163.936 169.944C164.088 170.26 164.305 170.504 164.586 170.676C164.867 170.844 165.199 170.928 165.582 170.928C165.867 170.928 166.115 170.889 166.326 170.811C166.537 170.733 166.711 170.633 166.848 170.512C166.984 170.391 167.08 170.268 167.135 170.143L167.158 170.09H168.178L168.166 170.137C168.111 170.352 168.014 170.561 167.873 170.764C167.736 170.963 167.559 171.145 167.34 171.309C167.121 171.469 166.861 171.598 166.561 171.696C166.264 171.79 165.93 171.836 165.559 171.836ZM171.055 171.725L169.285 165.409H170.305L171.547 170.459H171.641L173.053 165.409H174.02L175.432 170.459H175.525L176.768 165.409H177.781L176.012 171.725H174.986L173.574 166.838H173.48L172.074 171.725H171.055ZM154.73 182.708V181.77H157.121C157.727 181.77 158.195 181.614 158.527 181.301C158.859 180.985 159.025 180.549 159.025 179.995V179.983C159.025 179.424 158.859 178.989 158.527 178.676C158.195 178.364 157.727 178.208 157.121 178.208H154.73V177.27H157.391C157.922 177.27 158.391 177.383 158.797 177.61C159.203 177.836 159.521 178.153 159.752 178.559C159.986 178.965 160.104 179.436 160.104 179.971V179.983C160.104 180.518 159.986 180.991 159.752 181.401C159.521 181.811 159.203 182.131 158.797 182.362C158.391 182.592 157.922 182.708 157.391 182.708H154.73ZM154.203 185.725V177.27H155.258V185.725H154.203ZM161.703 185.725V179.409H162.723V180.346H162.816C162.938 180.014 163.143 179.756 163.432 179.573C163.721 179.389 164.078 179.297 164.504 179.297C164.602 179.297 164.697 179.303 164.791 179.315C164.889 179.323 164.963 179.331 165.014 179.338V180.329C164.908 180.309 164.805 180.295 164.703 180.288C164.605 180.276 164.5 180.27 164.387 180.27C164.062 180.27 163.775 180.334 163.525 180.463C163.275 180.592 163.078 180.772 162.934 181.002C162.793 181.233 162.723 181.502 162.723 181.811V185.725H161.703ZM168.693 185.836C168.096 185.836 167.578 185.706 167.141 185.444C166.707 185.178 166.371 184.801 166.133 184.313C165.898 183.825 165.781 183.245 165.781 182.573V182.561C165.781 181.885 165.898 181.303 166.133 180.815C166.371 180.327 166.707 179.952 167.141 179.69C167.578 179.428 168.096 179.297 168.693 179.297C169.295 179.297 169.812 179.428 170.246 179.69C170.68 179.952 171.014 180.327 171.248 180.815C171.486 181.303 171.605 181.885 171.605 182.561V182.573C171.605 183.245 171.486 183.825 171.248 184.313C171.014 184.801 170.68 185.178 170.246 185.444C169.812 185.706 169.295 185.836 168.693 185.836ZM168.693 184.934C169.092 184.934 169.43 184.84 169.707 184.653C169.984 184.465 170.195 184.196 170.34 183.844C170.488 183.493 170.562 183.069 170.562 182.573V182.561C170.562 182.061 170.488 181.635 170.34 181.284C170.195 180.932 169.984 180.665 169.707 180.481C169.43 180.293 169.092 180.2 168.693 180.2C168.295 180.2 167.957 180.293 167.68 180.481C167.402 180.665 167.189 180.932 167.041 181.284C166.896 181.635 166.824 182.061 166.824 182.561V182.573C166.824 183.069 166.896 183.493 167.041 183.844C167.189 184.196 167.402 184.465 167.68 184.653C167.957 184.84 168.295 184.934 168.693 184.934ZM172.285 187.893C172.258 187.893 172.23 187.893 172.203 187.893C172.172 187.893 172.141 187.893 172.109 187.893V186.991C172.137 186.991 172.162 186.991 172.186 186.991C172.209 186.991 172.234 186.991 172.262 186.991C172.605 186.991 172.848 186.92 172.988 186.78C173.133 186.643 173.205 186.401 173.205 186.053V179.409H174.225V186.036C174.225 186.684 174.066 187.155 173.75 187.448C173.438 187.745 172.949 187.893 172.285 187.893ZM173.715 178.19C173.523 178.19 173.357 178.122 173.217 177.985C173.08 177.844 173.012 177.678 173.012 177.487C173.012 177.292 173.08 177.125 173.217 176.989C173.357 176.852 173.523 176.784 173.715 176.784C173.91 176.784 174.076 176.852 174.213 176.989C174.35 177.125 174.418 177.292 174.418 177.487C174.418 177.678 174.35 177.844 174.213 177.985C174.076 178.122 173.91 178.19 173.715 178.19ZM178.73 185.836C178.129 185.836 177.611 185.704 177.178 185.438C176.748 185.172 176.416 184.797 176.182 184.313C175.951 183.825 175.836 183.25 175.836 182.59V182.584C175.836 181.932 175.951 181.36 176.182 180.868C176.416 180.375 176.746 179.991 177.172 179.713C177.598 179.436 178.096 179.297 178.666 179.297C179.24 179.297 179.732 179.43 180.143 179.696C180.557 179.961 180.873 180.333 181.092 180.809C181.314 181.282 181.426 181.833 181.426 182.461V182.86H176.363V182.045H180.904L180.4 182.79V182.385C180.4 181.889 180.326 181.481 180.178 181.161C180.029 180.84 179.824 180.602 179.562 180.446C179.301 180.286 179 180.206 178.66 180.206C178.32 180.206 178.016 180.29 177.746 180.458C177.48 180.622 177.27 180.866 177.113 181.19C176.957 181.514 176.879 181.913 176.879 182.385V182.79C176.879 183.239 176.955 183.624 177.107 183.944C177.26 184.26 177.477 184.504 177.758 184.676C178.039 184.844 178.371 184.928 178.754 184.928C179.039 184.928 179.287 184.889 179.498 184.811C179.709 184.733 179.883 184.633 180.02 184.512C180.156 184.391 180.252 184.268 180.307 184.143L180.33 184.09H181.35L181.338 184.137C181.283 184.352 181.186 184.561 181.045 184.764C180.908 184.963 180.73 185.145 180.512 185.309C180.293 185.469 180.033 185.598 179.732 185.696C179.436 185.79 179.102 185.836 178.73 185.836ZM185.592 185.836C185.002 185.836 184.49 185.702 184.057 185.432C183.623 185.163 183.287 184.782 183.049 184.29C182.811 183.797 182.691 183.217 182.691 182.549V182.538C182.691 181.881 182.809 181.311 183.043 180.827C183.281 180.342 183.617 179.967 184.051 179.702C184.484 179.432 184.996 179.297 185.586 179.297C186.098 179.297 186.539 179.387 186.91 179.567C187.281 179.747 187.578 179.989 187.801 180.293C188.023 180.594 188.166 180.932 188.229 181.307L188.234 181.342H187.221L187.215 181.325C187.137 181.012 186.959 180.747 186.682 180.528C186.404 180.309 186.039 180.2 185.586 180.2C185.207 180.2 184.879 180.295 184.602 180.487C184.324 180.678 184.109 180.95 183.957 181.301C183.809 181.649 183.734 182.061 183.734 182.538V182.549C183.734 183.034 183.811 183.456 183.963 183.815C184.115 184.17 184.33 184.446 184.607 184.641C184.885 184.836 185.211 184.934 185.586 184.934C186.012 184.934 186.359 184.842 186.629 184.659C186.898 184.475 187.092 184.208 187.209 183.856L187.221 183.821L188.229 183.815L188.217 183.879C188.131 184.258 187.979 184.596 187.76 184.893C187.541 185.186 187.252 185.417 186.893 185.584C186.533 185.752 186.1 185.836 185.592 185.836ZM192.084 185.772C191.436 185.772 190.965 185.641 190.672 185.379C190.383 185.118 190.238 184.686 190.238 184.084V180.252H189.242V179.409H190.238V177.774H191.293V179.409H192.676V180.252H191.293V183.827C191.293 184.198 191.363 184.465 191.504 184.629C191.645 184.79 191.879 184.87 192.207 184.87C192.297 184.87 192.373 184.868 192.436 184.864C192.502 184.86 192.582 184.854 192.676 184.846V185.713C192.578 185.729 192.48 185.743 192.383 185.754C192.285 185.766 192.186 185.772 192.084 185.772ZM196.25 185.836C195.781 185.836 195.367 185.766 195.008 185.625C194.648 185.481 194.359 185.28 194.141 185.022C193.926 184.764 193.799 184.461 193.76 184.114H194.803C194.889 184.375 195.057 184.586 195.307 184.747C195.557 184.907 195.883 184.987 196.285 184.987C196.57 184.987 196.82 184.946 197.035 184.864C197.254 184.778 197.426 184.663 197.551 184.518C197.676 184.37 197.738 184.2 197.738 184.008V183.997C197.738 183.782 197.652 183.6 197.48 183.452C197.309 183.299 197.027 183.176 196.637 183.083L195.658 182.848C195.068 182.708 194.635 182.502 194.357 182.233C194.08 181.959 193.941 181.596 193.941 181.143V181.137C193.941 180.786 194.043 180.471 194.246 180.194C194.453 179.917 194.734 179.698 195.09 179.538C195.445 179.377 195.846 179.297 196.291 179.297C196.732 179.297 197.123 179.368 197.463 179.508C197.807 179.645 198.082 179.84 198.289 180.094C198.5 180.348 198.629 180.647 198.676 180.991H197.674C197.607 180.741 197.455 180.538 197.217 180.381C196.979 180.225 196.668 180.147 196.285 180.147C196.035 180.147 195.812 180.188 195.617 180.27C195.422 180.348 195.268 180.458 195.154 180.598C195.041 180.739 194.984 180.903 194.984 181.09V181.102C194.984 181.317 195.068 181.495 195.236 181.635C195.404 181.776 195.674 181.891 196.045 181.981L197.018 182.215C197.611 182.36 198.053 182.567 198.342 182.836C198.635 183.106 198.781 183.467 198.781 183.92V183.932C198.781 184.307 198.67 184.639 198.447 184.928C198.225 185.213 197.922 185.436 197.539 185.596C197.16 185.756 196.73 185.836 196.25 185.836Z" fill="#666666"/>
<path d="M275.113 149.725V147.85L285.094 137.381C286.435 135.975 287.464 134.81 288.18 133.885C288.909 132.948 289.41 132.108 289.684 131.366C289.97 130.624 290.113 129.842 290.113 129.022V128.983C290.113 127.915 289.853 126.965 289.332 126.131C288.824 125.298 288.121 124.64 287.223 124.159C286.324 123.677 285.302 123.436 284.156 123.436C282.893 123.436 281.767 123.696 280.777 124.217C279.801 124.725 279.026 125.422 278.453 126.307C277.88 127.193 277.581 128.189 277.555 129.295V129.452H274.977V129.276C275.003 127.7 275.419 126.301 276.227 125.077C277.047 123.84 278.141 122.87 279.508 122.167C280.875 121.45 282.405 121.092 284.098 121.092C285.777 121.092 287.268 121.437 288.57 122.127C289.872 122.818 290.895 123.749 291.637 124.92C292.392 126.092 292.77 127.407 292.77 128.866V128.905C292.77 129.907 292.581 130.884 292.203 131.834C291.826 132.785 291.174 133.853 290.25 135.038C289.326 136.222 288.03 137.674 286.363 139.393L277.945 148.163L278.805 146.327V148.163L277.945 147.342H293.492V149.725H275.113ZM309.82 149.725V143.338H295.523V140.936C296.383 139.634 297.242 138.338 298.102 137.049C298.974 135.76 299.846 134.471 300.719 133.182C301.591 131.88 302.457 130.584 303.316 129.295C304.176 128.006 305.042 126.717 305.914 125.428C306.786 124.126 307.652 122.831 308.512 121.542H312.398V140.995H316.598V143.338H312.398V149.725H309.82ZM298.199 140.995H309.82V123.924H309.723C308.954 125.07 308.186 126.209 307.418 127.342C306.65 128.462 305.882 129.588 305.113 130.721C304.345 131.854 303.577 132.987 302.809 134.12C302.04 135.252 301.272 136.385 300.504 137.518C299.736 138.651 298.967 139.79 298.199 140.936V140.995Z" fill="#C4C4C4"/>
<path d="M275.732 171.924C274.967 171.924 274.305 171.745 273.746 171.385C273.188 171.026 272.756 170.516 272.451 169.856C272.15 169.196 272 168.413 272 167.506V167.495C272 166.584 272.15 165.799 272.451 165.139C272.756 164.479 273.186 163.969 273.74 163.61C274.299 163.25 274.961 163.071 275.727 163.071C276.32 163.071 276.859 163.188 277.344 163.422C277.832 163.653 278.234 163.975 278.551 164.389C278.867 164.799 279.066 165.274 279.148 165.813L279.143 165.825H278.082L278.076 165.813C277.982 165.45 277.824 165.137 277.602 164.875C277.379 164.61 277.107 164.405 276.787 164.26C276.471 164.116 276.117 164.043 275.727 164.043C275.188 164.043 274.719 164.184 274.32 164.465C273.926 164.747 273.621 165.145 273.406 165.661C273.191 166.176 273.084 166.788 273.084 167.495V167.506C273.084 168.209 273.191 168.819 273.406 169.334C273.621 169.85 273.926 170.249 274.32 170.53C274.719 170.811 275.189 170.952 275.732 170.952C276.127 170.952 276.484 170.889 276.805 170.764C277.125 170.635 277.395 170.454 277.613 170.219C277.832 169.981 277.984 169.7 278.07 169.375L278.082 169.364H279.148V169.375C279.055 169.891 278.852 170.34 278.539 170.723C278.227 171.102 277.83 171.397 277.35 171.608C276.873 171.819 276.334 171.924 275.732 171.924ZM280.848 171.725V162.901H281.867V171.725H280.848ZM286.42 171.836C285.822 171.836 285.305 171.706 284.867 171.444C284.434 171.178 284.098 170.801 283.859 170.313C283.625 169.825 283.508 169.245 283.508 168.573V168.561C283.508 167.885 283.625 167.303 283.859 166.815C284.098 166.327 284.434 165.952 284.867 165.69C285.305 165.428 285.822 165.297 286.42 165.297C287.021 165.297 287.539 165.428 287.973 165.69C288.406 165.952 288.74 166.327 288.975 166.815C289.213 167.303 289.332 167.885 289.332 168.561V168.573C289.332 169.245 289.213 169.825 288.975 170.313C288.74 170.801 288.406 171.178 287.973 171.444C287.539 171.706 287.021 171.836 286.42 171.836ZM286.42 170.934C286.818 170.934 287.156 170.84 287.434 170.653C287.711 170.465 287.922 170.196 288.066 169.844C288.215 169.493 288.289 169.069 288.289 168.573V168.561C288.289 168.061 288.215 167.635 288.066 167.284C287.922 166.932 287.711 166.665 287.434 166.481C287.156 166.293 286.818 166.2 286.42 166.2C286.021 166.2 285.684 166.293 285.406 166.481C285.129 166.665 284.916 166.932 284.768 167.284C284.623 167.635 284.551 168.061 284.551 168.561V168.573C284.551 169.069 284.623 169.493 284.768 169.844C284.916 170.196 285.129 170.465 285.406 170.653C285.684 170.84 286.021 170.934 286.42 170.934ZM293.082 171.836C292.613 171.836 292.199 171.766 291.84 171.625C291.48 171.481 291.191 171.28 290.973 171.022C290.758 170.764 290.631 170.461 290.592 170.114H291.635C291.721 170.375 291.889 170.586 292.139 170.747C292.389 170.907 292.715 170.987 293.117 170.987C293.402 170.987 293.652 170.946 293.867 170.864C294.086 170.778 294.258 170.663 294.383 170.518C294.508 170.37 294.57 170.2 294.57 170.008V169.997C294.57 169.782 294.484 169.6 294.312 169.452C294.141 169.299 293.859 169.176 293.469 169.083L292.49 168.848C291.9 168.708 291.467 168.502 291.189 168.233C290.912 167.959 290.773 167.596 290.773 167.143V167.137C290.773 166.786 290.875 166.471 291.078 166.194C291.285 165.917 291.566 165.698 291.922 165.538C292.277 165.377 292.678 165.297 293.123 165.297C293.564 165.297 293.955 165.368 294.295 165.508C294.639 165.645 294.914 165.84 295.121 166.094C295.332 166.348 295.461 166.647 295.508 166.991H294.506C294.439 166.741 294.287 166.538 294.049 166.381C293.811 166.225 293.5 166.147 293.117 166.147C292.867 166.147 292.645 166.188 292.449 166.27C292.254 166.348 292.1 166.458 291.986 166.598C291.873 166.739 291.816 166.903 291.816 167.09V167.102C291.816 167.317 291.9 167.495 292.068 167.635C292.236 167.776 292.506 167.891 292.877 167.981L293.85 168.215C294.443 168.36 294.885 168.567 295.174 168.836C295.467 169.106 295.613 169.467 295.613 169.92V169.932C295.613 170.307 295.502 170.639 295.279 170.928C295.057 171.213 294.754 171.436 294.371 171.596C293.992 171.756 293.562 171.836 293.082 171.836ZM299.773 171.836C299.172 171.836 298.654 171.704 298.221 171.438C297.791 171.172 297.459 170.797 297.225 170.313C296.994 169.825 296.879 169.25 296.879 168.59V168.584C296.879 167.932 296.994 167.36 297.225 166.868C297.459 166.375 297.789 165.991 298.215 165.713C298.641 165.436 299.139 165.297 299.709 165.297C300.283 165.297 300.775 165.43 301.186 165.696C301.6 165.961 301.916 166.333 302.135 166.809C302.357 167.282 302.469 167.833 302.469 168.461V168.86H297.406V168.045H301.947L301.443 168.79V168.385C301.443 167.889 301.369 167.481 301.221 167.161C301.072 166.84 300.867 166.602 300.605 166.446C300.344 166.286 300.043 166.206 299.703 166.206C299.363 166.206 299.059 166.29 298.789 166.458C298.523 166.622 298.312 166.866 298.156 167.19C298 167.514 297.922 167.913 297.922 168.385V168.79C297.922 169.239 297.998 169.624 298.15 169.944C298.303 170.26 298.52 170.504 298.801 170.676C299.082 170.844 299.414 170.928 299.797 170.928C300.082 170.928 300.33 170.889 300.541 170.811C300.752 170.733 300.926 170.633 301.062 170.512C301.199 170.391 301.295 170.268 301.35 170.143L301.373 170.09H302.393L302.381 170.137C302.326 170.352 302.229 170.561 302.088 170.764C301.951 170.963 301.773 171.145 301.555 171.309C301.336 171.469 301.076 171.598 300.775 171.696C300.479 171.79 300.145 171.836 299.773 171.836ZM306.383 171.836C305.852 171.836 305.387 171.702 304.988 171.432C304.59 171.163 304.281 170.784 304.062 170.295C303.844 169.803 303.734 169.229 303.734 168.573V168.561C303.734 167.901 303.844 167.327 304.062 166.838C304.281 166.35 304.588 165.971 304.982 165.702C305.381 165.432 305.848 165.297 306.383 165.297C306.816 165.297 307.209 165.399 307.561 165.602C307.916 165.801 308.18 166.069 308.352 166.405H308.445V162.901H309.465V171.725H308.445V170.717H308.352C308.16 171.069 307.895 171.344 307.555 171.543C307.215 171.739 306.824 171.836 306.383 171.836ZM306.617 170.934C307 170.934 307.33 170.838 307.607 170.647C307.885 170.456 308.098 170.184 308.246 169.833C308.395 169.477 308.469 169.057 308.469 168.573V168.561C308.469 168.073 308.395 167.653 308.246 167.301C308.098 166.95 307.885 166.678 307.607 166.487C307.33 166.295 307 166.2 306.617 166.2C306.234 166.2 305.904 166.295 305.627 166.487C305.354 166.674 305.143 166.944 304.994 167.295C304.85 167.647 304.777 168.069 304.777 168.561V168.573C304.777 169.061 304.85 169.483 304.994 169.838C305.143 170.19 305.354 170.461 305.627 170.653C305.904 170.84 306.234 170.934 306.617 170.934ZM272.855 182.708V181.77H275.246C275.852 181.77 276.32 181.614 276.652 181.301C276.984 180.985 277.15 180.549 277.15 179.995V179.983C277.15 179.424 276.984 178.989 276.652 178.676C276.32 178.364 275.852 178.208 275.246 178.208H272.855V177.27H275.516C276.047 177.27 276.516 177.383 276.922 177.61C277.328 177.836 277.646 178.153 277.877 178.559C278.111 178.965 278.229 179.436 278.229 179.971V179.983C278.229 180.518 278.111 180.991 277.877 181.401C277.646 181.811 277.328 182.131 276.922 182.362C276.516 182.592 276.047 182.708 275.516 182.708H272.855ZM272.328 185.725V177.27H273.383V185.725H272.328ZM279.828 185.725V179.409H280.848V180.346H280.941C281.062 180.014 281.268 179.756 281.557 179.573C281.846 179.389 282.203 179.297 282.629 179.297C282.727 179.297 282.822 179.303 282.916 179.315C283.014 179.323 283.088 179.331 283.139 179.338V180.329C283.033 180.309 282.93 180.295 282.828 180.288C282.73 180.276 282.625 180.27 282.512 180.27C282.188 180.27 281.9 180.334 281.65 180.463C281.4 180.592 281.203 180.772 281.059 181.002C280.918 181.233 280.848 181.502 280.848 181.811V185.725H279.828ZM286.818 185.836C286.221 185.836 285.703 185.706 285.266 185.444C284.832 185.178 284.496 184.801 284.258 184.313C284.023 183.825 283.906 183.245 283.906 182.573V182.561C283.906 181.885 284.023 181.303 284.258 180.815C284.496 180.327 284.832 179.952 285.266 179.69C285.703 179.428 286.221 179.297 286.818 179.297C287.42 179.297 287.938 179.428 288.371 179.69C288.805 179.952 289.139 180.327 289.373 180.815C289.611 181.303 289.73 181.885 289.73 182.561V182.573C289.73 183.245 289.611 183.825 289.373 184.313C289.139 184.801 288.805 185.178 288.371 185.444C287.938 185.706 287.42 185.836 286.818 185.836ZM286.818 184.934C287.217 184.934 287.555 184.84 287.832 184.653C288.109 184.465 288.32 184.196 288.465 183.844C288.613 183.493 288.688 183.069 288.688 182.573V182.561C288.688 182.061 288.613 181.635 288.465 181.284C288.32 180.932 288.109 180.665 287.832 180.481C287.555 180.293 287.217 180.2 286.818 180.2C286.42 180.2 286.082 180.293 285.805 180.481C285.527 180.665 285.314 180.932 285.166 181.284C285.021 181.635 284.949 182.061 284.949 182.561V182.573C284.949 183.069 285.021 183.493 285.166 183.844C285.314 184.196 285.527 184.465 285.805 184.653C286.082 184.84 286.42 184.934 286.818 184.934ZM290.41 187.893C290.383 187.893 290.355 187.893 290.328 187.893C290.297 187.893 290.266 187.893 290.234 187.893V186.991C290.262 186.991 290.287 186.991 290.311 186.991C290.334 186.991 290.359 186.991 290.387 186.991C290.73 186.991 290.973 186.92 291.113 186.78C291.258 186.643 291.33 186.401 291.33 186.053V179.409H292.35V186.036C292.35 186.684 292.191 187.155 291.875 187.448C291.562 187.745 291.074 187.893 290.41 187.893ZM291.84 178.19C291.648 178.19 291.482 178.122 291.342 177.985C291.205 177.844 291.137 177.678 291.137 177.487C291.137 177.292 291.205 177.125 291.342 176.989C291.482 176.852 291.648 176.784 291.84 176.784C292.035 176.784 292.201 176.852 292.338 176.989C292.475 177.125 292.543 177.292 292.543 177.487C292.543 177.678 292.475 177.844 292.338 177.985C292.201 178.122 292.035 178.19 291.84 178.19ZM296.855 185.836C296.254 185.836 295.736 185.704 295.303 185.438C294.873 185.172 294.541 184.797 294.307 184.313C294.076 183.825 293.961 183.25 293.961 182.59V182.584C293.961 181.932 294.076 181.36 294.307 180.868C294.541 180.375 294.871 179.991 295.297 179.713C295.723 179.436 296.221 179.297 296.791 179.297C297.365 179.297 297.857 179.43 298.268 179.696C298.682 179.961 298.998 180.333 299.217 180.809C299.439 181.282 299.551 181.833 299.551 182.461V182.86H294.488V182.045H299.029L298.525 182.79V182.385C298.525 181.889 298.451 181.481 298.303 181.161C298.154 180.84 297.949 180.602 297.688 180.446C297.426 180.286 297.125 180.206 296.785 180.206C296.445 180.206 296.141 180.29 295.871 180.458C295.605 180.622 295.395 180.866 295.238 181.19C295.082 181.514 295.004 181.913 295.004 182.385V182.79C295.004 183.239 295.08 183.624 295.232 183.944C295.385 184.26 295.602 184.504 295.883 184.676C296.164 184.844 296.496 184.928 296.879 184.928C297.164 184.928 297.412 184.889 297.623 184.811C297.834 184.733 298.008 184.633 298.145 184.512C298.281 184.391 298.377 184.268 298.432 184.143L298.455 184.09H299.475L299.463 184.137C299.408 184.352 299.311 184.561 299.17 184.764C299.033 184.963 298.855 185.145 298.637 185.309C298.418 185.469 298.158 185.598 297.857 185.696C297.561 185.79 297.227 185.836 296.855 185.836ZM303.717 185.836C303.127 185.836 302.615 185.702 302.182 185.432C301.748 185.163 301.412 184.782 301.174 184.29C300.936 183.797 300.816 183.217 300.816 182.549V182.538C300.816 181.881 300.934 181.311 301.168 180.827C301.406 180.342 301.742 179.967 302.176 179.702C302.609 179.432 303.121 179.297 303.711 179.297C304.223 179.297 304.664 179.387 305.035 179.567C305.406 179.747 305.703 179.989 305.926 180.293C306.148 180.594 306.291 180.932 306.354 181.307L306.359 181.342H305.346L305.34 181.325C305.262 181.012 305.084 180.747 304.807 180.528C304.529 180.309 304.164 180.2 303.711 180.2C303.332 180.2 303.004 180.295 302.727 180.487C302.449 180.678 302.234 180.95 302.082 181.301C301.934 181.649 301.859 182.061 301.859 182.538V182.549C301.859 183.034 301.936 183.456 302.088 183.815C302.24 184.17 302.455 184.446 302.732 184.641C303.01 184.836 303.336 184.934 303.711 184.934C304.137 184.934 304.484 184.842 304.754 184.659C305.023 184.475 305.217 184.208 305.334 183.856L305.346 183.821L306.354 183.815L306.342 183.879C306.256 184.258 306.104 184.596 305.885 184.893C305.666 185.186 305.377 185.417 305.018 185.584C304.658 185.752 304.225 185.836 303.717 185.836ZM310.209 185.772C309.561 185.772 309.09 185.641 308.797 185.379C308.508 185.118 308.363 184.686 308.363 184.084V180.252H307.367V179.409H308.363V177.774H309.418V179.409H310.801V180.252H309.418V183.827C309.418 184.198 309.488 184.465 309.629 184.629C309.77 184.79 310.004 184.87 310.332 184.87C310.422 184.87 310.498 184.868 310.561 184.864C310.627 184.86 310.707 184.854 310.801 184.846V185.713C310.703 185.729 310.605 185.743 310.508 185.754C310.41 185.766 310.311 185.772 310.209 185.772ZM314.375 185.836C313.906 185.836 313.492 185.766 313.133 185.625C312.773 185.481 312.484 185.28 312.266 185.022C312.051 184.764 311.924 184.461 311.885 184.114H312.928C313.014 184.375 313.182 184.586 313.432 184.747C313.682 184.907 314.008 184.987 314.41 184.987C314.695 184.987 314.945 184.946 315.16 184.864C315.379 184.778 315.551 184.663 315.676 184.518C315.801 184.37 315.863 184.2 315.863 184.008V183.997C315.863 183.782 315.777 183.6 315.605 183.452C315.434 183.299 315.152 183.176 314.762 183.083L313.783 182.848C313.193 182.708 312.76 182.502 312.482 182.233C312.205 181.959 312.066 181.596 312.066 181.143V181.137C312.066 180.786 312.168 180.471 312.371 180.194C312.578 179.917 312.859 179.698 313.215 179.538C313.57 179.377 313.971 179.297 314.416 179.297C314.857 179.297 315.248 179.368 315.588 179.508C315.932 179.645 316.207 179.84 316.414 180.094C316.625 180.348 316.754 180.647 316.801 180.991H315.799C315.732 180.741 315.58 180.538 315.342 180.381C315.104 180.225 314.793 180.147 314.41 180.147C314.16 180.147 313.938 180.188 313.742 180.27C313.547 180.348 313.393 180.458 313.279 180.598C313.166 180.739 313.109 180.903 313.109 181.09V181.102C313.109 181.317 313.193 181.495 313.361 181.635C313.529 181.776 313.799 181.891 314.17 181.981L315.143 182.215C315.736 182.36 316.178 182.567 316.467 182.836C316.76 183.106 316.906 183.467 316.906 183.92V183.932C316.906 184.307 316.795 184.639 316.572 184.928C316.35 185.213 316.047 185.436 315.664 185.596C315.285 185.756 314.855 185.836 314.375 185.836Z" fill="#666666"/>
<defs>
<linearGradient id="paint0_linear_251_4789" x1="11.3306" y1="6.06002" x2="288.953" y2="286.804" gradientUnits="userSpaceOnUse">
<stop stop-color="#191919"/>
<stop offset="1" stop-color="#161616"/>
</linearGradient>
<linearGradient id="paint1_linear_251_4789" x1="239.641" y1="35.7251" x2="280.001" y2="75.0159" gradientUnits="userSpaceOnUse">
<stop stop-color="#191919"/>
<stop offset="1" stop-color="#1C1C1C"/>
</linearGradient>
<linearGradient id="paint2_linear_251_4789" x1="230.077" y1="35.7251" x2="244.261" y2="63.5062" gradientUnits="userSpaceOnUse">
<stop stop-color="#242424"/>
<stop offset="1" stop-color="#282828" stop-opacity="0"/>
</linearGradient>
</defs>
</svg>
