<svg width="354" height="77" viewBox="0 0 354 77" fill="none" xmlns="http://www.w3.org/2000/svg">
<rect x="0.746094" y="0.204102" width="353.249" height="76.1419" rx="20.6444" fill="url(#paint0_linear_251_4881)"/>
<rect x="18.5227" y="17.9812" width="40.1419" height="40.1419" rx="9.74875" fill="#1C1C1C" stroke="url(#paint1_linear_251_4881)" stroke-width="1.14691"/>
<g clip-path="url(#clip0_251_4881)">
<path d="M31.3836 30.6041C32.0933 31.1826 32.3621 31.1417 33.7018 31.0521L46.3322 30.2944C46.601 30.2944 46.3774 30.0256 46.287 29.9805L44.1889 28.4644C43.7896 28.1504 43.252 27.7963 42.2248 27.8816L29.998 28.7776C29.55 28.8185 29.4604 29.0429 29.6396 29.2221L31.3836 30.6041ZM32.1413 33.5502V46.8372C32.1413 47.5504 32.4962 47.8192 33.299 47.7741L47.1802 46.9712C47.983 46.9261 48.0762 46.4372 48.0762 45.8551V32.6578C48.0762 32.075 47.8519 31.7653 47.3594 31.8105L32.8553 32.6578C32.3177 32.7029 32.142 32.9675 32.142 33.5466L32.1413 33.5502ZM45.8433 34.2592C45.9329 34.6627 45.8433 35.062 45.4398 35.1107L44.7717 35.2455V45.053C44.1889 45.367 43.6556 45.5462 43.2112 45.5462C42.4943 45.5462 42.3151 45.3218 41.7811 44.6538L37.4056 37.7845V44.4301L38.7905 44.7441C38.7905 44.7441 38.7905 45.5469 37.6745 45.5469L34.5943 45.7261C34.5047 45.5469 34.5943 45.0989 34.9082 45.0129L35.7111 44.7885V36.0039L34.595 35.9143C34.5054 35.5107 34.7298 34.9323 35.3527 34.8878L38.6565 34.6634L43.2112 41.6223V35.4656L42.0499 35.3308C41.9603 34.8419 42.3151 34.4835 42.7632 34.4419L45.8433 34.2592ZM28.9715 27.5727L41.6915 26.6358C43.252 26.501 43.6556 26.5906 44.6369 27.3039L48.6991 30.1597C49.3672 30.6485 49.5916 30.7833 49.5916 31.3173V46.972C49.5916 47.954 49.2332 48.5325 47.9859 48.6221L33.2087 49.5145C32.2754 49.5597 31.8274 49.4249 31.3342 48.8013L28.3436 44.9183C27.8096 44.205 27.5859 43.671 27.5859 43.0481V29.1339C27.5859 28.3311 27.9443 27.663 28.9708 27.5734L28.9715 27.5727Z" fill="#D9D9D9"/>
</g>
<path d="M78.8696 30.7932V29.3596H82.5075C83.4334 29.3596 84.1502 29.1206 84.6579 28.6427C85.1657 28.1589 85.4196 27.4928 85.4196 26.6446V26.6267C85.4196 25.7725 85.1657 25.1064 84.6579 24.6285C84.1502 24.1507 83.4334 23.9117 82.5075 23.9117H78.8696V22.4781H82.9197C83.7321 22.4781 84.4489 22.6513 85.0701 22.9978C85.6914 23.3442 86.1782 23.8281 86.5306 24.4493C86.889 25.0706 87.0683 25.7904 87.0683 26.6088V26.6267C87.0683 27.445 86.889 28.1678 86.5306 28.7951C86.1782 29.4223 85.6914 29.9121 85.0701 30.2645C84.4489 30.617 83.7321 30.7932 82.9197 30.7932H78.8696ZM78.0632 35.4077V22.4781H79.6761V35.4077H78.0632ZM89.4606 35.4077V25.7665H91.0197V27.2091H91.1541C91.3393 26.7013 91.6499 26.3071 92.086 26.0263C92.528 25.7396 93.0686 25.5962 93.7078 25.5962C93.8571 25.5962 94.0035 25.6052 94.1468 25.6231C94.2962 25.6351 94.4067 25.647 94.4784 25.659V27.1733C94.3231 27.1434 94.1678 27.1225 94.0124 27.1105C93.8631 27.0926 93.7018 27.0836 93.5286 27.0836C93.0388 27.0836 92.6057 27.1822 92.2294 27.3793C91.853 27.5765 91.5573 27.8512 91.3423 28.2037C91.1272 28.5561 91.0197 28.9683 91.0197 29.4402V35.4077H89.4606ZM100.052 35.578C99.1437 35.578 98.3552 35.3778 97.6861 34.9776C97.0231 34.5714 96.5094 33.998 96.145 33.2573C95.7866 32.5106 95.6074 31.6235 95.6074 30.5961V30.5781C95.6074 29.5507 95.7866 28.6636 96.145 27.917C96.5094 27.1703 97.0231 26.5968 97.6861 26.1966C98.3552 25.7964 99.1437 25.5962 100.052 25.5962C100.972 25.5962 101.76 25.7964 102.417 26.1966C103.08 26.5968 103.591 27.1703 103.949 27.917C104.314 28.6636 104.496 29.5507 104.496 30.5781V30.5961C104.496 31.6235 104.314 32.5106 103.949 33.2573C103.591 33.998 103.08 34.5714 102.417 34.9776C101.76 35.3778 100.972 35.578 100.052 35.578ZM100.052 34.1981C100.661 34.1981 101.175 34.0547 101.593 33.768C102.017 33.4813 102.339 33.0721 102.561 32.5404C102.788 32.0028 102.901 31.3547 102.901 30.5961V30.5781C102.901 29.8135 102.788 29.1654 102.561 28.6338C102.339 28.0962 102.017 27.687 101.593 27.4062C101.175 27.1195 100.661 26.9761 100.052 26.9761C99.4483 26.9761 98.9346 27.1195 98.5105 27.4062C98.0864 27.687 97.7608 28.0962 97.5338 28.6338C97.3128 29.1654 97.2023 29.8135 97.2023 30.5781V30.5961C97.2023 31.3547 97.3128 32.0028 97.5338 32.5404C97.7608 33.0721 98.0864 33.4813 98.5105 33.768C98.9346 34.0547 99.4483 34.1981 100.052 34.1981ZM110.266 35.4884C109.287 35.4884 108.573 35.2882 108.125 34.888C107.683 34.4878 107.462 33.8277 107.462 32.9078V27.0568H105.947V25.7665H107.462V23.2666H109.075V25.7665H111.171V27.0568H109.075V32.5404C109.075 33.1019 109.182 33.5052 109.397 33.7501C109.612 33.989 109.968 34.1085 110.463 34.1085C110.601 34.1085 110.717 34.1055 110.813 34.0995C110.914 34.0935 111.034 34.0846 111.171 34.0726V35.3988C111.022 35.4226 110.873 35.4436 110.723 35.4615C110.574 35.4794 110.422 35.4884 110.266 35.4884ZM117.273 35.578C116.365 35.578 115.577 35.3778 114.908 34.9776C114.245 34.5714 113.731 33.998 113.367 33.2573C113.008 32.5106 112.829 31.6235 112.829 30.5961V30.5781C112.829 29.5507 113.008 28.6636 113.367 27.917C113.731 27.1703 114.245 26.5968 114.908 26.1966C115.577 25.7964 116.365 25.5962 117.273 25.5962C118.193 25.5962 118.982 25.7964 119.639 26.1966C120.302 26.5968 120.813 27.1703 121.171 27.917C121.535 28.6636 121.718 29.5507 121.718 30.5781V30.5961C121.718 31.6235 121.535 32.5106 121.171 33.2573C120.813 33.998 120.302 34.5714 119.639 34.9776C118.982 35.3778 118.193 35.578 117.273 35.578ZM117.273 34.1981C117.883 34.1981 118.396 34.0547 118.814 33.768C119.239 33.4813 119.561 33.0721 119.782 32.5404C120.009 32.0028 120.123 31.3547 120.123 30.5961V30.5781C120.123 29.8135 120.009 29.1654 119.782 28.6338C119.561 28.0962 119.239 27.687 118.814 27.4062C118.396 27.1195 117.883 26.9761 117.273 26.9761C116.67 26.9761 116.156 27.1195 115.732 27.4062C115.308 27.687 114.982 28.0962 114.755 28.6338C114.534 29.1654 114.424 29.8135 114.424 30.5781V30.5961C114.424 31.3547 114.534 32.0028 114.755 32.5404C114.982 33.0721 115.308 33.4813 115.732 33.768C116.156 34.0547 116.67 34.1981 117.273 34.1981ZM128.026 35.578C127.13 35.578 126.35 35.3719 125.687 34.9597C125.024 34.5475 124.51 33.9681 124.146 33.2214C123.781 32.4688 123.599 31.5817 123.599 30.5602V30.5423C123.599 29.5447 123.778 28.6756 124.137 27.9349C124.501 27.1942 125.015 26.6207 125.678 26.2145C126.341 25.8023 127.121 25.5962 128.017 25.5962C128.799 25.5962 129.474 25.7366 130.042 26.0174C130.609 26.2922 131.063 26.6625 131.404 27.1285C131.744 27.5884 131.959 28.1051 132.049 28.6786L132.058 28.7323H130.508L130.499 28.7055C130.379 28.2276 130.107 27.8214 129.683 27.4869C129.265 27.1464 128.709 26.9761 128.017 26.9761C127.443 26.9761 126.944 27.1225 126.52 27.4152C126.096 27.7079 125.768 28.123 125.535 28.6607C125.308 29.1923 125.194 29.8195 125.194 30.5423V30.5602C125.194 31.3009 125.311 31.9461 125.544 32.4956C125.777 33.0392 126.105 33.4604 126.529 33.759C126.953 34.0517 127.449 34.1981 128.017 34.1981C128.668 34.1981 129.199 34.0577 129.611 33.777C130.024 33.4902 130.319 33.0781 130.499 32.5404L130.516 32.4867L132.049 32.4777L132.04 32.5763C131.908 33.1557 131.675 33.6724 131.341 34.1264C131.006 34.5804 130.564 34.9358 130.015 35.1927C129.465 35.4495 128.802 35.578 128.026 35.578ZM138.258 35.578C137.35 35.578 136.562 35.3778 135.893 34.9776C135.23 34.5714 134.716 33.998 134.351 33.2573C133.993 32.5106 133.814 31.6235 133.814 30.5961V30.5781C133.814 29.5507 133.993 28.6636 134.351 27.917C134.716 27.1703 135.23 26.5968 135.893 26.1966C136.562 25.7964 137.35 25.5962 138.258 25.5962C139.178 25.5962 139.967 25.7964 140.624 26.1966C141.287 26.5968 141.797 27.1703 142.156 27.917C142.52 28.6636 142.702 29.5507 142.702 30.5781V30.5961C142.702 31.6235 142.52 32.5106 142.156 33.2573C141.797 33.998 141.287 34.5714 140.624 34.9776C139.967 35.3778 139.178 35.578 138.258 35.578ZM138.258 34.1981C138.867 34.1981 139.381 34.0547 139.799 33.768C140.223 33.4813 140.546 33.0721 140.767 32.5404C140.994 32.0028 141.107 31.3547 141.107 30.5961V30.5781C141.107 29.8135 140.994 29.1654 140.767 28.6338C140.546 28.0962 140.223 27.687 139.799 27.4062C139.381 27.1195 138.867 26.9761 138.258 26.9761C137.655 26.9761 137.141 27.1195 136.717 27.4062C136.293 27.687 135.967 28.0962 135.74 28.6338C135.519 29.1654 135.409 29.8135 135.409 30.5781V30.5961C135.409 31.3547 135.519 32.0028 135.74 32.5404C135.967 33.0721 136.293 33.4813 136.717 33.768C137.141 34.0547 137.655 34.1981 138.258 34.1981ZM145.158 35.4077V21.9494H146.717V35.4077H145.158ZM153.894 35.4077L158.67 22.4781H159.897V24.5569H159.395L155.587 35.4077H153.894ZM156.062 31.7071L156.564 30.3362H162.397L162.899 31.7071H156.062ZM163.338 35.4077L159.53 24.5569V22.4781H160.264L165.031 35.4077H163.338ZM167.056 35.4077V25.7665H168.615V27.236H168.75C168.965 26.7163 169.293 26.3131 169.735 26.0263C170.183 25.7396 170.724 25.5962 171.357 25.5962C171.793 25.5962 172.185 25.6679 172.531 25.8113C172.878 25.9547 173.176 26.1548 173.427 26.4116C173.678 26.6625 173.878 26.9582 174.027 27.2987H174.162C174.335 26.9582 174.568 26.6595 174.861 26.4027C175.153 26.1458 175.491 25.9487 175.873 25.8113C176.262 25.6679 176.677 25.5962 177.119 25.5962C177.77 25.5962 178.322 25.7187 178.776 25.9636C179.236 26.2085 179.586 26.5669 179.825 27.0388C180.064 27.5048 180.183 28.0752 180.183 28.7503V35.4077H178.624V29.1087C178.624 28.3978 178.457 27.8662 178.122 27.5137C177.794 27.1553 177.292 26.9761 176.617 26.9761C176.169 26.9761 175.778 27.0777 175.443 27.2808C175.115 27.4839 174.858 27.7557 174.673 28.0962C174.487 28.4307 174.395 28.804 174.395 29.2162V35.4077H172.836V28.8667C172.836 28.2933 172.654 27.8363 172.289 27.4958C171.925 27.1494 171.438 26.9761 170.829 26.9761C170.41 26.9761 170.034 27.0866 169.7 27.3077C169.365 27.5287 169.099 27.8244 168.902 28.1947C168.711 28.5651 168.615 28.9772 168.615 29.4312V35.4077H167.056ZM186.885 35.578C185.971 35.578 185.183 35.3749 184.52 34.9687C183.863 34.5625 183.355 33.989 182.997 33.2483C182.644 32.5076 182.468 31.6325 182.468 30.6229V30.614C182.468 29.6224 182.644 28.7503 182.997 27.9976C183.355 27.2449 183.86 26.6565 184.511 26.2324C185.162 25.8083 185.921 25.5962 186.787 25.5962C187.665 25.5962 188.418 25.7993 189.045 26.2055C189.678 26.6117 190.162 27.1792 190.496 27.908C190.831 28.6308 190.998 29.4701 190.998 30.4258V31.0351H183.274V29.7896H190.21L189.43 30.9276V30.3093C189.43 29.5567 189.317 28.9354 189.09 28.4456C188.869 27.9558 188.558 27.5914 188.158 27.3525C187.757 27.1075 187.298 26.9851 186.778 26.9851C186.264 26.9851 185.801 27.1135 185.389 27.3704C184.983 27.6213 184.66 27.9946 184.421 28.4904C184.182 28.9862 184.063 29.5925 184.063 30.3093V30.9276C184.063 31.6145 184.179 32.1999 184.412 32.6838C184.645 33.1677 184.977 33.541 185.407 33.8038C185.837 34.0607 186.342 34.1891 186.921 34.1891C187.357 34.1891 187.737 34.1294 188.059 34.0099C188.382 33.8904 188.648 33.7381 188.857 33.5529C189.066 33.3678 189.212 33.1766 189.296 32.9795L189.332 32.8988H190.882L190.864 32.9705C190.78 33.305 190.631 33.6276 190.416 33.9382C190.207 34.2429 189.935 34.5207 189.6 34.7715C189.266 35.0165 188.872 35.2136 188.418 35.3629C187.964 35.5063 187.453 35.578 186.885 35.578ZM193.382 35.4077V25.7665H194.941V27.2091H195.075C195.32 26.7013 195.672 26.3071 196.132 26.0263C196.598 25.7396 197.187 25.5962 197.898 25.5962C198.979 25.5962 199.809 25.9069 200.388 26.5281C200.974 27.1434 201.267 28.0215 201.267 29.1624V35.4077H199.707V29.5388C199.707 28.6726 199.522 28.0304 199.152 27.6123C198.788 27.1882 198.22 26.9761 197.449 26.9761C196.942 26.9761 196.5 27.0866 196.123 27.3077C195.747 27.5287 195.454 27.8423 195.245 28.2485C195.042 28.6547 194.941 29.1415 194.941 29.709V35.4077H193.382ZM207.592 35.578C206.78 35.578 206.069 35.3719 205.46 34.9597C204.851 34.5475 204.379 33.9681 204.044 33.2214C203.71 32.4747 203.542 31.5996 203.542 30.5961V30.5781C203.542 29.5686 203.71 28.6935 204.044 27.9528C204.379 27.2061 204.848 26.6267 205.451 26.2145C206.06 25.8023 206.771 25.5962 207.584 25.5962C208.247 25.5962 208.847 25.7516 209.385 26.0622C209.928 26.3668 210.331 26.779 210.594 27.2987H210.729V21.9494H212.288V35.4077H210.729V33.8666H210.594C210.301 34.4042 209.895 34.8253 209.376 35.1299C208.862 35.4286 208.267 35.578 207.592 35.578ZM207.942 34.1981C208.527 34.1981 209.029 34.0517 209.447 33.759C209.871 33.4663 210.197 33.0512 210.424 32.5136C210.651 31.9759 210.764 31.3368 210.764 30.5961V30.5781C210.764 29.8374 210.651 29.1983 210.424 28.6607C210.197 28.123 209.871 27.7079 209.447 27.4152C209.029 27.1225 208.527 26.9761 207.942 26.9761C207.363 26.9761 206.861 27.1225 206.437 27.4152C206.018 27.7019 205.696 28.1141 205.469 28.6517C205.248 29.1893 205.137 29.8315 205.137 30.5781V30.5961C205.137 31.3428 205.248 31.9849 205.469 32.5225C205.696 33.0601 206.018 33.4753 206.437 33.768C206.861 34.0547 207.363 34.1981 207.942 34.1981ZM215.227 35.4077V25.7665H216.786V27.236H216.92C217.135 26.7163 217.464 26.3131 217.906 26.0263C218.354 25.7396 218.894 25.5962 219.528 25.5962C219.964 25.5962 220.355 25.6679 220.701 25.8113C221.048 25.9547 221.346 26.1548 221.597 26.4116C221.848 26.6625 222.048 26.9582 222.198 27.2987H222.332C222.505 26.9582 222.738 26.6595 223.031 26.4027C223.324 26.1458 223.661 25.9487 224.043 25.8113C224.432 25.6679 224.847 25.5962 225.289 25.5962C225.94 25.5962 226.493 25.7187 226.947 25.9636C227.407 26.2085 227.756 26.5669 227.995 27.0388C228.234 27.5048 228.353 28.0752 228.353 28.7503V35.4077H226.794V29.1087C226.794 28.3978 226.627 27.8662 226.293 27.5137C225.964 27.1553 225.462 26.9761 224.787 26.9761C224.339 26.9761 223.948 27.0777 223.613 27.2808C223.285 27.4839 223.028 27.7557 222.843 28.0962C222.658 28.4307 222.565 28.804 222.565 29.2162V35.4077H221.006V28.8667C221.006 28.2933 220.824 27.8363 220.459 27.4958C220.095 27.1494 219.608 26.9761 218.999 26.9761C218.581 26.9761 218.204 27.0866 217.87 27.3077C217.535 27.5287 217.27 27.8244 217.072 28.1947C216.881 28.5651 216.786 28.9772 216.786 29.4312V35.4077H215.227ZM235.056 35.578C234.142 35.578 233.353 35.3749 232.69 34.9687C232.033 34.5625 231.525 33.989 231.167 33.2483C230.814 32.5076 230.638 31.6325 230.638 30.6229V30.614C230.638 29.6224 230.814 28.7503 231.167 27.9976C231.525 27.2449 232.03 26.6565 232.681 26.2324C233.332 25.8083 234.091 25.5962 234.957 25.5962C235.835 25.5962 236.588 25.7993 237.215 26.2055C237.848 26.6117 238.332 27.1792 238.667 27.908C239.001 28.6308 239.168 29.4701 239.168 30.4258V31.0351H231.445V29.7896H238.38L237.6 30.9276V30.3093C237.6 29.5567 237.487 28.9354 237.26 28.4456C237.039 27.9558 236.728 27.5914 236.328 27.3525C235.928 27.1075 235.468 26.9851 234.948 26.9851C234.434 26.9851 233.971 27.1135 233.559 27.3704C233.153 27.6213 232.831 27.9946 232.592 28.4904C232.353 28.9862 232.233 29.5925 232.233 30.3093V30.9276C232.233 31.6145 232.35 32.1999 232.583 32.6838C232.816 33.1677 233.147 33.541 233.577 33.8038C234.007 34.0607 234.512 34.1891 235.091 34.1891C235.528 34.1891 235.907 34.1294 236.229 34.0099C236.552 33.8904 236.818 33.7381 237.027 33.5529C237.236 33.3678 237.382 33.1766 237.466 32.9795L237.502 32.8988H239.052L239.034 32.9705C238.95 33.305 238.801 33.6276 238.586 33.9382C238.377 34.2429 238.105 34.5207 237.771 34.7715C237.436 35.0165 237.042 35.2136 236.588 35.3629C236.134 35.5063 235.623 35.578 235.056 35.578ZM241.552 35.4077V25.7665H243.111V27.2091H243.245C243.49 26.7013 243.843 26.3071 244.303 26.0263C244.769 25.7396 245.357 25.5962 246.068 25.5962C247.149 25.5962 247.979 25.9069 248.559 26.5281C249.144 27.1434 249.437 28.0215 249.437 29.1624V35.4077H247.878V29.5388C247.878 28.6726 247.693 28.0304 247.322 27.6123C246.958 27.1882 246.39 26.9761 245.62 26.9761C245.112 26.9761 244.67 27.0866 244.294 27.3077C243.917 27.5287 243.625 27.8423 243.416 28.2485C243.212 28.6547 243.111 29.1415 243.111 29.709V35.4077H241.552ZM255.601 35.4884C254.622 35.4884 253.908 35.2882 253.46 34.888C253.018 34.4878 252.797 33.8277 252.797 32.9078V27.0568H251.283V25.7665H252.797V23.2666H254.41V25.7665H256.506V27.0568H254.41V32.5404C254.41 33.1019 254.517 33.5052 254.732 33.7501C254.947 33.989 255.303 34.1085 255.799 34.1085C255.936 34.1085 256.052 34.1055 256.148 34.0995C256.25 34.0935 256.369 34.0846 256.506 34.0726V35.3988C256.357 35.4226 256.208 35.4436 256.058 35.4615C255.909 35.4794 255.757 35.4884 255.601 35.4884ZM261.945 35.578C261.229 35.578 260.595 35.4704 260.046 35.2554C259.496 35.0344 259.057 34.7267 258.729 34.3325C258.4 33.9323 258.206 33.4663 258.146 32.9347V32.9257H259.732V32.9347C259.864 33.3409 260.117 33.6664 260.494 33.9114C260.876 34.1563 261.378 34.2787 261.999 34.2787C262.435 34.2787 262.817 34.216 263.146 34.0906C263.475 33.9591 263.731 33.7829 263.917 33.5619C264.108 33.3409 264.203 33.084 264.203 32.7913V32.7734C264.203 32.4449 264.072 32.1671 263.809 31.9401C263.552 31.7071 263.128 31.522 262.537 31.3846L261.04 31.0262C260.138 30.8111 259.475 30.4975 259.051 30.0853C258.627 29.6672 258.415 29.1117 258.415 28.4187V28.4098C258.415 27.8722 258.57 27.3913 258.881 26.9672C259.198 26.543 259.625 26.2085 260.162 25.9636C260.706 25.7187 261.318 25.5962 261.999 25.5962C262.674 25.5962 263.271 25.7038 263.791 25.9188C264.317 26.1339 264.738 26.4355 265.055 26.8238C265.371 27.2121 265.565 27.6691 265.637 28.1947V28.2037H264.105C264.009 27.8154 263.779 27.5018 263.415 27.2629C263.05 27.0179 262.576 26.8955 261.99 26.8955C261.608 26.8955 261.267 26.9582 260.969 27.0836C260.676 27.2031 260.443 27.3704 260.27 27.5854C260.097 27.8005 260.01 28.0514 260.01 28.3381V28.356C260.01 28.6845 260.138 28.9563 260.395 29.1714C260.652 29.3864 261.061 29.5626 261.623 29.7L263.11 30.0584C264.024 30.2795 264.699 30.5961 265.135 31.0082C265.577 31.4144 265.798 31.964 265.798 32.6569V32.6748C265.798 33.2483 265.628 33.7531 265.287 34.1891C264.953 34.6252 264.496 34.9657 263.917 35.2106C263.337 35.4555 262.68 35.578 261.945 35.578ZM274.257 30.7932V29.3596H277.895C278.82 29.3596 279.537 29.1206 280.045 28.6427C280.553 28.1589 280.807 27.4928 280.807 26.6446V26.6267C280.807 25.7725 280.553 25.1064 280.045 24.6285C279.537 24.1507 278.82 23.9117 277.895 23.9117H274.257V22.4781H278.307C279.119 22.4781 279.836 22.6513 280.457 22.9978C281.078 23.3442 281.565 23.8281 281.918 24.4493C282.276 25.0706 282.455 25.7904 282.455 26.6088V26.6267C282.455 27.445 282.276 28.1678 281.918 28.7951C281.565 29.4223 281.078 29.9121 280.457 30.2645C279.836 30.617 279.119 30.7932 278.307 30.7932H274.257ZM273.45 35.4077V22.4781H275.063V35.4077H273.45ZM285.045 35.4077V22.4781H289.982C290.812 22.4781 291.535 22.6394 292.15 22.9619C292.772 23.2785 293.252 23.7236 293.593 24.297C293.933 24.8705 294.104 25.5455 294.104 26.322V26.3399C294.104 27.236 293.874 28.0125 293.414 28.6696C292.954 29.3267 292.318 29.7837 291.505 30.0405L294.498 35.4077H292.607L289.839 30.2914C289.827 30.2914 289.812 30.2914 289.794 30.2914C289.776 30.2914 289.761 30.2914 289.749 30.2914H286.658V35.4077H285.045ZM286.658 28.8578H289.839C290.669 28.8578 291.308 28.6457 291.756 28.2216C292.21 27.7915 292.437 27.1822 292.437 26.3937V26.3758C292.437 25.6052 292.201 25.0019 291.729 24.5658C291.257 24.1298 290.603 23.9117 289.767 23.9117H286.658V28.8578ZM296.98 35.4077V22.4781H301.415C302.694 22.4781 303.787 22.7349 304.695 23.2487C305.609 23.7564 306.307 24.4912 306.791 25.4529C307.275 26.4146 307.517 27.5735 307.517 28.9295V28.9474C307.517 30.3034 307.275 31.4652 306.791 32.4329C306.307 33.3946 305.612 34.1324 304.704 34.6461C303.796 35.1538 302.699 35.4077 301.415 35.4077H296.98ZM298.593 33.9562H301.308C302.269 33.9562 303.091 33.759 303.772 33.3648C304.453 32.9705 304.972 32.4001 305.331 31.6534C305.689 30.9067 305.868 30.0107 305.868 28.9653V28.9474C305.868 27.896 305.686 26.997 305.322 26.2503C304.963 25.4977 304.444 24.9242 303.763 24.53C303.082 24.1298 302.263 23.9296 301.308 23.9296H298.593V33.9562Z" fill="#C4C4C4"/>
<path d="M78.7786 56.1421L77.1042 50.0603H78.3306L79.417 54.7533H79.5122L80.7611 50.0603H81.9203L83.1747 54.7533H83.2643L84.3564 50.0603H85.5604L83.8915 56.1421H82.6315L81.3715 51.606H81.2763L80.0274 56.1421H78.7786ZM87.9741 56.1421L86.2996 50.0603H87.526L88.6125 54.7533H88.7077L89.9565 50.0603H91.1157L92.3702 54.7533H92.4598L93.5518 50.0603H94.7558L93.087 56.1421H91.827L90.5669 51.606H90.4717L89.2229 56.1421H87.9741ZM97.1695 56.1421L95.4951 50.0603H96.7215L97.8079 54.7533H97.9031L99.152 50.0603H100.311L101.566 54.7533H101.655L102.747 50.0603H103.951L102.282 56.1421H101.022L99.7624 51.606H99.6672L98.4183 56.1421H97.1695ZM105.318 56.2317C105.086 56.2317 104.89 56.1514 104.73 55.9909C104.573 55.8303 104.495 55.6381 104.495 55.4141C104.495 55.1826 104.573 54.9885 104.73 54.8317C104.89 54.6749 105.086 54.5964 105.318 54.5964C105.553 54.5964 105.749 54.6749 105.906 54.8317C106.063 54.9885 106.141 55.1826 106.141 55.4141C106.141 55.6381 106.063 55.8303 105.906 55.9909C105.749 56.1514 105.553 56.2317 105.318 56.2317ZM108 56.1421V50.0603H109.215V50.9788H109.311C109.46 50.6539 109.68 50.4001 109.971 50.2171C110.263 50.0342 110.63 49.9427 111.075 49.9427C111.758 49.9427 112.281 50.1387 112.643 50.5307C113.005 50.9227 113.186 51.4809 113.186 52.2052V56.1421H111.965V52.4908C111.965 51.983 111.859 51.606 111.646 51.3596C111.437 51.1094 111.108 50.9844 110.66 50.9844C110.365 50.9844 110.11 51.0497 109.893 51.1804C109.677 51.3073 109.509 51.4902 109.389 51.7292C109.273 51.9644 109.215 52.2463 109.215 52.5748V56.1421H108ZM117.453 56.2597C116.86 56.2597 116.346 56.1328 115.913 55.8789C115.484 55.625 115.153 55.2629 114.922 54.7925C114.691 54.3183 114.575 53.7564 114.575 53.1068V53.0956C114.575 52.4423 114.691 51.8804 114.922 51.41C115.157 50.9395 115.489 50.5774 115.919 50.3235C116.352 50.0697 116.863 49.9427 117.453 49.9427C118.047 49.9427 118.558 50.0697 118.988 50.3235C119.417 50.5737 119.747 50.9358 119.979 51.41C120.214 51.8804 120.332 52.4423 120.332 53.0956V53.1068C120.332 53.7564 120.214 54.3183 119.979 54.7925C119.747 55.2629 119.417 55.625 118.988 55.8789C118.562 56.1328 118.051 56.2597 117.453 56.2597ZM117.453 55.2405C117.8 55.2405 118.095 55.1565 118.338 54.9885C118.581 54.8167 118.766 54.5722 118.892 54.2548C119.019 53.9375 119.083 53.5548 119.083 53.1068V53.0956C119.083 52.6439 119.019 52.2593 118.892 51.942C118.766 51.6246 118.581 51.382 118.338 51.214C118.095 51.0422 117.8 50.9563 117.453 50.9563C117.106 50.9563 116.811 51.0422 116.568 51.214C116.326 51.382 116.139 51.6246 116.008 51.942C115.881 52.2593 115.818 52.6439 115.818 53.0956V53.1068C115.818 53.5548 115.881 53.9375 116.008 54.2548C116.139 54.5722 116.326 54.8167 116.568 54.9885C116.811 55.1565 117.106 55.2405 117.453 55.2405ZM124.073 56.1813C123.408 56.1813 122.926 56.0544 122.628 55.8005C122.333 55.5429 122.185 55.1229 122.185 54.5404V51.018H121.233V50.0603H122.185V48.5259H123.429V50.0603H124.733V51.018H123.429V54.2436C123.429 54.5722 123.494 54.8093 123.625 54.9549C123.755 55.0967 123.972 55.1677 124.274 55.1677C124.364 55.1677 124.44 55.1658 124.504 55.1621C124.571 55.1583 124.648 55.1527 124.733 55.1453V56.1197C124.636 56.1346 124.532 56.1477 124.42 56.1589C124.308 56.1738 124.192 56.1813 124.073 56.1813ZM126.173 56.1421V50.0603H127.394V56.1421H126.173ZM126.789 48.9739C126.58 48.9739 126.4 48.8992 126.251 48.7499C126.102 48.6006 126.027 48.4213 126.027 48.2123C126.027 48.0032 126.102 47.8259 126.251 47.6803C126.4 47.5309 126.58 47.4563 126.789 47.4563C126.998 47.4563 127.177 47.5309 127.326 47.6803C127.476 47.8259 127.55 48.0032 127.55 48.2123C127.55 48.4213 127.476 48.6006 127.326 48.7499C127.177 48.8992 126.998 48.9739 126.789 48.9739ZM131.734 56.2597C131.14 56.2597 130.627 56.1328 130.194 55.8789C129.764 55.625 129.434 55.2629 129.202 54.7925C128.971 54.3183 128.855 53.7564 128.855 53.1068V53.0956C128.855 52.4423 128.971 51.8804 129.202 51.41C129.438 50.9395 129.77 50.5774 130.199 50.3235C130.632 50.0697 131.144 49.9427 131.734 49.9427C132.327 49.9427 132.839 50.0697 133.268 50.3235C133.697 50.5737 134.028 50.9358 134.259 51.41C134.495 51.8804 134.612 52.4423 134.612 53.0956V53.1068C134.612 53.7564 134.495 54.3183 134.259 54.7925C134.028 55.2629 133.697 55.625 133.268 55.8789C132.842 56.1328 132.331 56.2597 131.734 56.2597ZM131.734 55.2405C132.081 55.2405 132.376 55.1565 132.618 54.9885C132.861 54.8167 133.046 54.5722 133.173 54.2548C133.3 53.9375 133.363 53.5548 133.363 53.1068V53.0956C133.363 52.6439 133.3 52.2593 133.173 51.942C133.046 51.6246 132.861 51.382 132.618 51.214C132.376 51.0422 132.081 50.9563 131.734 50.9563C131.386 50.9563 131.091 51.0422 130.849 51.214C130.606 51.382 130.419 51.6246 130.289 51.942C130.162 52.2593 130.098 52.6439 130.098 53.0956V53.1068C130.098 53.5548 130.162 53.9375 130.289 54.2548C130.419 54.5722 130.606 54.8167 130.849 54.9885C131.091 55.1565 131.386 55.2405 131.734 55.2405ZM136.057 56.1421V50.0603H137.272V50.9788H137.367C137.517 50.6539 137.737 50.4001 138.028 50.2171C138.319 50.0342 138.687 49.9427 139.131 49.9427C139.815 49.9427 140.337 50.1387 140.699 50.5307C141.062 50.9227 141.243 51.4809 141.243 52.2052V56.1421H140.022V52.4908C140.022 51.983 139.915 51.606 139.703 51.3596C139.494 51.1094 139.165 50.9844 138.717 50.9844C138.422 50.9844 138.166 51.0497 137.95 51.1804C137.733 51.3073 137.565 51.4902 137.446 51.7292C137.33 51.9644 137.272 52.2463 137.272 52.5748V56.1421H136.057ZM143.869 56.2317C143.638 56.2317 143.442 56.1514 143.281 55.9909C143.124 55.8303 143.046 55.6381 143.046 55.4141C143.046 55.1826 143.124 54.9885 143.281 54.8317C143.442 54.6749 143.638 54.5964 143.869 54.5964C144.104 54.5964 144.3 54.6749 144.457 54.8317C144.614 54.9885 144.692 55.1826 144.692 55.4141C144.692 55.6381 144.614 55.8303 144.457 55.9909C144.3 56.1514 144.104 56.2317 143.869 56.2317ZM148.887 56.2597C148.297 56.2597 147.787 56.1328 147.358 55.8789C146.932 55.6213 146.604 55.2554 146.372 54.7813C146.141 54.3071 146.025 53.7415 146.025 53.0844V53.0732C146.025 52.4273 146.139 51.871 146.367 51.4044C146.598 50.9377 146.927 50.5774 147.352 50.3235C147.782 50.0697 148.291 49.9427 148.881 49.9427C149.393 49.9427 149.831 50.0323 150.197 50.2115C150.567 50.387 150.86 50.6297 151.077 50.9395C151.297 51.2457 151.435 51.5948 151.491 51.9868L151.497 52.0148H150.326L150.321 52.0036C150.253 51.7049 150.098 51.4566 149.856 51.2588C149.613 51.0572 149.29 50.9563 148.887 50.9563C148.551 50.9563 148.262 51.0422 148.019 51.214C147.776 51.382 147.59 51.6246 147.459 51.942C147.332 52.2593 147.268 52.6364 147.268 53.0732V53.0844C147.268 53.5324 147.334 53.917 147.464 54.238C147.595 54.5591 147.782 54.8074 148.024 54.9829C148.267 55.1546 148.555 55.2405 148.887 55.2405C149.268 55.2405 149.576 55.1565 149.811 54.9885C150.05 54.8205 150.218 54.5722 150.315 54.2436L150.326 54.2156L151.491 54.21L151.48 54.2604C151.409 54.6562 151.265 55.0034 151.049 55.3021C150.832 55.6007 150.543 55.8359 150.181 56.0077C149.822 56.1757 149.391 56.2597 148.887 56.2597ZM155.445 56.2597C154.851 56.2597 154.338 56.1328 153.905 55.8789C153.475 55.625 153.145 55.2629 152.913 54.7925C152.682 54.3183 152.566 53.7564 152.566 53.1068V53.0956C152.566 52.4423 152.682 51.8804 152.913 51.41C153.149 50.9395 153.481 50.5774 153.91 50.3235C154.343 50.0697 154.855 49.9427 155.445 49.9427C156.038 49.9427 156.55 50.0697 156.979 50.3235C157.408 50.5737 157.739 50.9358 157.97 51.41C158.206 51.8804 158.323 52.4423 158.323 53.0956V53.1068C158.323 53.7564 158.206 54.3183 157.97 54.7925C157.739 55.2629 157.408 55.625 156.979 55.8789C156.554 56.1328 156.042 56.2597 155.445 56.2597ZM155.445 55.2405C155.792 55.2405 156.087 55.1565 156.33 54.9885C156.572 54.8167 156.757 54.5722 156.884 54.2548C157.011 53.9375 157.074 53.5548 157.074 53.1068V53.0956C157.074 52.6439 157.011 52.2593 156.884 51.942C156.757 51.6246 156.572 51.382 156.33 51.214C156.087 51.0422 155.792 50.9563 155.445 50.9563C155.097 50.9563 154.803 51.0422 154.56 51.214C154.317 51.382 154.131 51.6246 154 51.942C153.873 52.2593 153.809 52.6439 153.809 53.0956V53.1068C153.809 53.5548 153.873 53.9375 154 54.2548C154.131 54.5722 154.317 54.8167 154.56 54.9885C154.803 55.1565 155.097 55.2405 155.445 55.2405ZM159.768 56.1421V50.0603H160.983V50.9956H161.078C161.213 50.6595 161.422 50.4001 161.706 50.2171C161.993 50.0342 162.337 49.9427 162.736 49.9427C163.012 49.9427 163.261 49.9875 163.481 50.0771C163.701 50.1667 163.89 50.2937 164.047 50.4579C164.207 50.6185 164.332 50.8089 164.422 51.0292H164.517C164.618 50.8089 164.76 50.6185 164.943 50.4579C165.125 50.2937 165.338 50.1667 165.581 50.0771C165.827 49.9875 166.089 49.9427 166.365 49.9427C166.776 49.9427 167.127 50.023 167.418 50.1835C167.709 50.3403 167.931 50.5681 168.084 50.8667C168.237 51.1654 168.314 51.5257 168.314 51.9476V56.1421H167.099V52.2388C167.099 51.8206 167.002 51.507 166.807 51.298C166.617 51.0889 166.324 50.9844 165.928 50.9844C165.671 50.9844 165.445 51.0441 165.251 51.1636C165.06 51.2793 164.911 51.4361 164.803 51.634C164.698 51.8281 164.646 52.0484 164.646 52.2948V56.1421H163.431V52.1156C163.431 51.7684 163.324 51.494 163.111 51.2924C162.902 51.087 162.618 50.9844 162.26 50.9844C162.017 50.9844 161.799 51.0478 161.605 51.1748C161.414 51.3017 161.263 51.4734 161.151 51.69C161.039 51.9028 160.983 52.1417 160.983 52.4068V56.1421H159.768Z" fill="#4A4A4A"/>
<defs>
<linearGradient id="paint0_linear_251_4881" x1="12.0767" y1="2.02567" x2="69.5421" y2="172.219" gradientUnits="userSpaceOnUse">
<stop stop-color="#191919"/>
<stop offset="1" stop-color="#161616"/>
</linearGradient>
<linearGradient id="paint1_linear_251_4881" x1="11.6412" y1="-2.08977" x2="38.5936" y2="58.6965" gradientUnits="userSpaceOnUse">
<stop stop-color="#535353"/>
<stop offset="1" stop-opacity="0"/>
</linearGradient>
<clipPath id="clip0_251_4881">
<rect width="22.9382" height="22.9382" fill="white" transform="translate(27.125 26.5835)"/>
</clipPath>
</defs>
</svg>
