<svg width="354" height="336" viewBox="0 0 354 336" fill="none" xmlns="http://www.w3.org/2000/svg">
<rect x="-0.00390625" y="0.975586" width="353.249" height="334.941" rx="20.6444" fill="url(#paint0_linear_251_4949)"/>
<path fill-rule="evenodd" clip-rule="evenodd" d="M40.6173 42.2044C41.1861 41.6389 41.5382 40.8557 41.5382 39.9903C41.5382 38.266 40.1403 36.8682 38.416 36.8682C36.8375 36.8682 35.5325 38.0396 35.3232 39.5606C34.7544 40.1261 34.4023 40.9093 34.4023 41.7747C34.4023 43.499 35.8002 44.8968 37.5245 44.8968C39.103 44.8968 40.408 43.7254 40.6173 42.2044ZM38.416 43.1125C39.2749 43.1125 40.0528 42.7656 40.6173 42.2044C40.6366 42.0639 40.6466 41.9205 40.6466 41.7747C40.6466 40.0504 39.2488 38.6525 37.5245 38.6525C36.6656 38.6525 35.8877 38.9994 35.3232 39.5606C35.3039 39.7011 35.2939 39.8445 35.2939 39.9903C35.2939 41.7146 36.6917 43.1125 38.416 43.1125Z" fill="#8578C5"/>
<path d="M50.7371 44.5441C50.2354 44.5441 49.7993 44.4664 49.4289 44.3111C49.0616 44.1558 48.7718 43.9393 48.5598 43.6615C48.3477 43.3837 48.2283 43.0597 48.2014 42.6893L48.1969 42.6266H49.3169L49.3214 42.6714C49.3393 42.8536 49.411 43.0119 49.5365 43.1463C49.6649 43.2807 49.8351 43.3867 50.0472 43.4644C50.2592 43.5391 50.5012 43.5764 50.773 43.5764C51.0328 43.5764 51.2628 43.5361 51.4629 43.4554C51.663 43.3748 51.8198 43.2643 51.9333 43.1239C52.0468 42.9805 52.1036 42.8163 52.1036 42.6311V42.6266C52.1036 42.3936 52.0125 42.204 51.8303 42.0576C51.6481 41.9083 51.3479 41.7888 50.9298 41.6992L50.2354 41.5559C49.5723 41.4155 49.0899 41.1915 48.7883 40.8838C48.4896 40.5732 48.3403 40.1775 48.3403 39.6966V39.6921C48.3403 39.3068 48.4418 38.9693 48.6449 38.6796C48.851 38.3899 49.1332 38.1644 49.4917 38.0031C49.853 37.8388 50.2667 37.7567 50.7326 37.7567C51.2105 37.7567 51.6242 37.8374 51.9736 37.9986C52.3231 38.1569 52.5979 38.3735 52.798 38.6483C52.9981 38.923 53.1101 39.2337 53.134 39.5801L53.1385 39.6384H52.0364L52.0274 39.5846C52.0005 39.4144 51.9303 39.2665 51.8168 39.1411C51.7063 39.0126 51.5585 38.9111 51.3733 38.8364C51.1881 38.7618 50.9716 38.7244 50.7237 38.7244C50.4877 38.7244 50.2772 38.7618 50.092 38.8364C49.9068 38.9081 49.7605 39.0097 49.6529 39.1411C49.5484 39.2725 49.4961 39.4308 49.4961 39.616V39.6204C49.4961 39.8474 49.5842 40.0356 49.7605 40.1849C49.9397 40.3343 50.2309 40.4508 50.6341 40.5344L51.3285 40.6822C52.0095 40.8256 52.5008 41.0421 52.8025 41.3318C53.1071 41.6186 53.2594 42.0069 53.2594 42.4967V42.5012C53.2594 42.9193 53.1564 43.2807 52.9503 43.5854C52.7472 43.89 52.456 44.126 52.0767 44.2932C51.7004 44.4605 51.2538 44.5441 50.7371 44.5441ZM56.167 44.3828V38.8902H54.1779V37.918H59.3121V38.8902H57.3229V44.3828H56.167ZM59.33 44.3828L61.6238 37.918H62.5826V39.1187H62.2376L60.5396 44.3828H59.33ZM60.4859 42.7117L60.786 41.8202H63.7519L64.052 42.7117H60.4859ZM64.0117 44.3828L62.3138 39.1187V37.918H62.9231L65.2214 44.3828H64.0117ZM67.224 44.3828V38.8902H65.2348V37.918H70.369V38.8902H68.3798V44.3828H67.224ZM73.8277 44.5441C73.3259 44.5441 72.8898 44.4664 72.5195 44.3111C72.1521 44.1558 71.8624 43.9393 71.6503 43.6615C71.4383 43.3837 71.3188 43.0597 71.2919 42.6893L71.2874 42.6266H72.4075L72.412 42.6714C72.4299 42.8536 72.5016 43.0119 72.627 43.1463C72.7554 43.2807 72.9257 43.3867 73.1377 43.4644C73.3498 43.5391 73.5917 43.5764 73.8635 43.5764C74.1234 43.5764 74.3533 43.5361 74.5535 43.4554C74.7536 43.3748 74.9104 43.2643 75.0239 43.1239C75.1374 42.9805 75.1941 42.8163 75.1941 42.6311V42.6266C75.1941 42.3936 75.103 42.204 74.9208 42.0576C74.7386 41.9083 74.4385 41.7888 74.0203 41.6992L73.3259 41.5559C72.6628 41.4155 72.1805 41.1915 71.8788 40.8838C71.5801 40.5732 71.4308 40.1775 71.4308 39.6966V39.6921C71.4308 39.3068 71.5324 38.9693 71.7355 38.6796C71.9415 38.3899 72.2238 38.1644 72.5822 38.0031C72.9436 37.8388 73.3573 37.7567 73.8232 37.7567C74.3011 37.7567 74.7147 37.8374 75.0642 37.9986C75.4136 38.1569 75.6884 38.3735 75.8885 38.6483C76.0886 38.923 76.2006 39.2337 76.2245 39.5801L76.229 39.6384H75.1269L75.1179 39.5846C75.0911 39.4144 75.0209 39.2665 74.9074 39.1411C74.7969 39.0126 74.649 38.9111 74.4638 38.8364C74.2787 38.7618 74.0621 38.7244 73.8142 38.7244C73.5783 38.7244 73.3677 38.7618 73.1825 38.8364C72.9974 38.9081 72.851 39.0097 72.7435 39.1411C72.6389 39.2725 72.5867 39.4308 72.5867 39.616V39.6204C72.5867 39.8474 72.6748 40.0356 72.851 40.1849C73.0302 40.3343 73.3214 40.4508 73.7246 40.5344L74.419 40.6822C75.1 40.8256 75.5913 41.0421 75.893 41.3318C76.1977 41.6186 76.35 42.0069 76.35 42.4967V42.5012C76.35 42.9193 76.2469 43.2807 76.0409 43.5854C75.8378 43.89 75.5465 44.126 75.1672 44.2932C74.7909 44.4605 74.3444 44.5441 73.8277 44.5441Z" fill="#8578C5"/>
<path d="M40.5529 82.5576L35.1347 62.3551H38.8868L42.4009 77.6015H42.4709L46.517 62.3551H49.7931L53.8392 77.6015H53.9092L57.4233 62.3551H61.1614L55.7573 82.5576H52.2712L48.1971 68.0532H48.1131L44.039 82.5576H40.5529ZM68.1476 82.8516C66.6916 82.8516 65.4269 82.5436 64.3535 81.9276C63.2801 81.3022 62.4448 80.4156 61.8474 79.2675C61.2594 78.1102 60.9654 76.7335 60.9654 75.1374V75.1094C60.9654 73.5227 61.2641 72.1553 61.8614 71.0073C62.4588 69.8499 63.2941 68.9632 64.3675 68.3472C65.4409 67.7219 66.6962 67.4092 68.1336 67.4092C69.5803 67.4092 70.8404 67.7219 71.9137 68.3472C72.9964 68.9632 73.8364 69.8453 74.4338 70.9933C75.0311 72.1413 75.3298 73.5134 75.3298 75.1094V75.1374C75.3298 76.7428 75.0311 78.1242 74.4338 79.2815C73.8458 80.4296 73.0151 81.3116 71.9417 81.9276C70.8684 82.5436 69.6037 82.8516 68.1476 82.8516ZM68.1616 80.0375C68.899 80.0375 69.5383 79.8462 70.0797 79.4635C70.621 79.0809 71.0364 78.5255 71.3257 77.7975C71.6244 77.0601 71.7737 76.1734 71.7737 75.1374V75.1094C71.7737 74.0827 71.6244 73.2054 71.3257 72.4773C71.027 71.7493 70.6023 71.194 70.0517 70.8113C69.5103 70.4286 68.871 70.2373 68.1336 70.2373C67.4149 70.2373 66.7802 70.4286 66.2296 70.8113C65.6882 71.194 65.2635 71.7493 64.9555 72.4773C64.6569 73.2054 64.5075 74.0827 64.5075 75.1094V75.1374C64.5075 76.1734 64.6569 77.0601 64.9555 77.7975C65.2635 78.5255 65.6882 79.0809 66.2296 79.4635C66.7802 79.8462 67.4243 80.0375 68.1616 80.0375ZM77.5699 82.5576V67.7172H81.042V70.2793H81.126C81.35 69.3833 81.756 68.6832 82.344 68.1792C82.9413 67.6659 83.6694 67.4092 84.5281 67.4092C84.7427 67.4092 84.9481 67.4232 85.1441 67.4512C85.3401 67.4792 85.5034 67.5119 85.6341 67.5492V70.6993C85.4941 70.6433 85.2934 70.5966 85.0321 70.5593C84.7801 70.522 84.5047 70.5033 84.2061 70.5033C83.5527 70.5033 82.988 70.6386 82.512 70.9093C82.036 71.1706 81.672 71.558 81.42 72.0713C81.168 72.5847 81.042 73.21 81.042 73.9474V82.5576H77.5699ZM87.5801 82.5576V62.3551H91.0522V82.5576H87.5801ZM96.9324 82.5576L91.9623 75.8094L94.1883 73.2334L100.951 82.5576H96.9324ZM90.5482 77.9375V73.8774H91.1362L96.6804 67.7172H100.699L93.7823 75.2354H93.1383L90.5482 77.9375ZM102.393 82.5576V62.3551H105.879V82.5576H102.393ZM115.413 82.8516C113.957 82.8516 112.692 82.5436 111.619 81.9276C110.545 81.3022 109.71 80.4156 109.113 79.2675C108.525 78.1102 108.231 76.7335 108.231 75.1374V75.1094C108.231 73.5227 108.529 72.1553 109.127 71.0073C109.724 69.8499 110.559 68.9632 111.633 68.3472C112.706 67.7219 113.962 67.4092 115.399 67.4092C116.846 67.4092 118.106 67.7219 119.179 68.3472C120.262 68.9632 121.102 69.8453 121.699 70.9933C122.296 72.1413 122.595 73.5134 122.595 75.1094V75.1374C122.595 76.7428 122.296 78.1242 121.699 79.2815C121.111 80.4296 120.28 81.3116 119.207 81.9276C118.134 82.5436 116.869 82.8516 115.413 82.8516ZM115.427 80.0375C116.164 80.0375 116.804 79.8462 117.345 79.4635C117.886 79.0809 118.302 78.5255 118.591 77.7975C118.89 77.0601 119.039 76.1734 119.039 75.1374V75.1094C119.039 74.0827 118.89 73.2054 118.591 72.4773C118.292 71.7493 117.868 71.194 117.317 70.8113C116.776 70.4286 116.136 70.2373 115.399 70.2373C114.68 70.2373 114.046 70.4286 113.495 70.8113C112.954 71.194 112.529 71.7493 112.221 72.4773C111.922 73.2054 111.773 74.0827 111.773 75.1094V75.1374C111.773 76.1734 111.922 77.0601 112.221 77.7975C112.529 78.5255 112.954 79.0809 113.495 79.4635C114.046 79.8462 114.69 80.0375 115.427 80.0375ZM129.217 82.8096C128.237 82.8096 127.369 82.623 126.613 82.2496C125.867 81.8669 125.283 81.3396 124.863 80.6676C124.452 79.9862 124.247 79.2069 124.247 78.3295V78.3015C124.247 76.9855 124.737 75.9448 125.717 75.1794C126.707 74.4047 128.097 73.966 129.889 73.8634L135.559 73.5134V75.8234L130.379 76.1454C129.521 76.2014 128.863 76.4068 128.405 76.7615C127.948 77.1161 127.719 77.5875 127.719 78.1755V78.1895C127.719 78.7962 127.948 79.2769 128.405 79.6315C128.872 79.9769 129.488 80.1496 130.253 80.1496C130.925 80.1496 131.523 80.0142 132.045 79.7435C132.577 79.4729 132.997 79.1042 133.305 78.6375C133.613 78.1708 133.767 77.6435 133.767 77.0555V72.6033C133.767 71.8567 133.529 71.2686 133.053 70.8393C132.587 70.4006 131.91 70.1813 131.023 70.1813C130.202 70.1813 129.544 70.3586 129.049 70.7133C128.555 71.0586 128.247 71.5066 128.125 72.0573L128.097 72.1833H124.877L124.891 72.0153C124.966 71.138 125.26 70.354 125.773 69.6633C126.287 68.9632 126.996 68.4126 127.901 68.0112C128.816 67.6099 129.899 67.4092 131.149 67.4092C132.391 67.4092 133.464 67.6145 134.369 68.0252C135.284 68.4359 135.989 69.0099 136.483 69.7473C136.987 70.4846 137.239 71.3526 137.239 72.3513V82.5576H133.767V80.2756H133.683C133.403 80.7889 133.039 81.2369 132.591 81.6196C132.143 82.0023 131.63 82.2963 131.051 82.5016C130.482 82.707 129.871 82.8096 129.217 82.8096ZM145.584 82.8516C144.333 82.8516 143.246 82.5436 142.322 81.9276C141.407 81.3022 140.698 80.4109 140.194 79.2535C139.699 78.0962 139.452 76.7241 139.452 75.1374V75.1234C139.452 73.5274 139.704 72.1553 140.208 71.0073C140.712 69.8499 141.421 68.9632 142.336 68.3472C143.25 67.7219 144.328 67.4092 145.57 67.4092C146.624 67.4092 147.553 67.6659 148.356 68.1792C149.168 68.6832 149.784 69.3786 150.204 70.2653H150.288V62.3551H153.76V82.5576H150.288V80.0375H150.204C149.784 80.9149 149.177 81.6056 148.384 82.1096C147.59 82.6043 146.657 82.8516 145.584 82.8516ZM146.634 79.9255C147.352 79.9255 147.987 79.7295 148.538 79.3375C149.088 78.9455 149.518 78.3902 149.826 77.6715C150.134 76.9528 150.288 76.1081 150.288 75.1374V75.1234C150.288 74.1527 150.129 73.3127 149.812 72.6033C149.504 71.8847 149.074 71.3293 148.524 70.9373C147.982 70.5453 147.352 70.3493 146.634 70.3493C145.887 70.3493 145.238 70.5453 144.688 70.9373C144.146 71.32 143.726 71.866 143.428 72.5753C143.138 73.2847 142.994 74.1341 142.994 75.1234V75.1374C142.994 76.1174 143.138 76.9668 143.428 77.6855C143.726 78.4042 144.146 78.9595 144.688 79.3515C145.238 79.7342 145.887 79.9255 146.634 79.9255Z" fill="#C4C4C4"/>
<rect x="216.095" y="36.0757" width="102.048" height="31.0161" rx="15.508" fill="url(#paint1_linear_251_4949)"/>
<rect x="216.095" y="36.0757" width="102.048" height="31.0161" rx="15.508" stroke="url(#paint2_linear_251_4949)" stroke-width="1.38585"/>
<path d="M236.598 55.084V48.1493H234.08V47.2723H240.089V48.1493H237.572V55.084H236.598ZM241.529 55.084V46.9313H242.471V50.1252H242.558C242.706 49.8149 242.919 49.5749 243.197 49.4052C243.475 49.232 243.828 49.1454 244.258 49.1454C244.694 49.1454 245.064 49.2302 245.368 49.3998C245.671 49.5658 245.902 49.8094 246.06 50.1306C246.219 50.4518 246.299 50.8434 246.299 51.3054V55.084H245.357V51.5327C245.357 51.0058 245.245 50.6161 245.021 50.3634C244.801 50.1072 244.458 49.9791 243.993 49.9791C243.682 49.9791 243.413 50.0458 243.186 50.1794C242.959 50.3129 242.782 50.5024 242.655 50.7478C242.533 50.9932 242.471 51.2873 242.471 51.6302V55.084H241.529ZM248.026 55.084V49.2483H248.968V55.084H248.026ZM248.502 48.1222C248.325 48.1222 248.172 48.0591 248.042 47.9328C247.916 47.8029 247.852 47.6495 247.852 47.4726C247.852 47.2922 247.916 47.1388 248.042 47.0125C248.172 46.8862 248.325 46.823 248.502 46.823C248.682 46.823 248.836 46.8862 248.962 47.0125C249.088 47.1388 249.152 47.2922 249.152 47.4726C249.152 47.6495 249.088 47.8029 248.962 47.9328C248.836 48.0591 248.682 48.1222 248.502 48.1222ZM252.746 55.1868C252.313 55.1868 251.931 55.1219 251.598 54.992C251.266 54.8584 250.999 54.6726 250.797 54.4344C250.599 54.1962 250.481 53.9165 250.445 53.5953H251.409C251.488 53.8371 251.644 54.032 251.875 54.1799C252.106 54.3279 252.407 54.4019 252.779 54.4019C253.042 54.4019 253.273 54.364 253.472 54.2882C253.674 54.2088 253.832 54.1023 253.948 53.9688C254.063 53.8317 254.121 53.6747 254.121 53.4978V53.487C254.121 53.2885 254.042 53.1207 253.883 52.9836C253.724 52.8428 253.464 52.7291 253.103 52.6425L252.199 52.426C251.654 52.296 251.254 52.1066 250.998 51.8575C250.741 51.6049 250.613 51.2693 250.613 50.8506V50.8452C250.613 50.5204 250.707 50.2299 250.895 49.9737C251.086 49.7174 251.346 49.5153 251.674 49.3673C252.003 49.2194 252.373 49.1454 252.784 49.1454C253.192 49.1454 253.553 49.2104 253.867 49.3403C254.184 49.4666 254.439 49.647 254.63 49.8816C254.825 50.1162 254.944 50.3923 254.987 50.7099H254.062C254 50.4789 253.86 50.2912 253.639 50.1469C253.419 50.0025 253.132 49.9304 252.779 49.9304C252.548 49.9304 252.342 49.9682 252.161 50.044C251.981 50.1162 251.838 50.2173 251.734 50.3472C251.629 50.4771 251.577 50.6287 251.577 50.8019V50.8127C251.577 51.0112 251.654 51.1755 251.81 51.3054C251.965 51.4353 252.214 51.5418 252.557 51.6248L253.455 51.8413C254.004 51.9748 254.412 52.1661 254.679 52.4151C254.949 52.6642 255.085 52.998 255.085 53.4166V53.4275C255.085 53.7739 254.982 54.0807 254.776 54.3478C254.57 54.6112 254.291 54.8169 253.937 54.9649C253.587 55.1129 253.19 55.1868 252.746 55.1868ZM260.163 57.1303C260.101 57.1303 260.033 57.1267 259.957 57.1195C259.881 57.1158 259.811 57.1086 259.746 57.0978V56.3237C259.804 56.3345 259.867 56.3417 259.935 56.3453C260.004 56.3489 260.071 56.3507 260.136 56.3507C260.403 56.3507 260.621 56.2822 260.791 56.145C260.964 56.0079 261.103 55.7715 261.207 55.4359L261.316 55.0894L259.156 49.2483H260.163L261.96 54.6401L261.586 54.05H262.03L261.657 54.6401L263.449 49.2483H264.439L262.16 55.4413C261.998 55.878 261.828 56.219 261.651 56.4644C261.478 56.7098 261.272 56.8813 261.034 56.9787C260.8 57.0798 260.509 57.1303 260.163 57.1303ZM267.85 55.1868C267.294 55.1868 266.816 55.0641 266.415 54.8187C266.018 54.5733 265.711 54.2268 265.495 53.7793C265.282 53.3282 265.175 52.7977 265.175 52.1878V52.1824C265.175 51.5797 265.282 51.0509 265.495 50.5962C265.711 50.1415 266.016 49.786 266.41 49.5298C266.803 49.2735 267.263 49.1454 267.79 49.1454C268.321 49.1454 268.775 49.2681 269.154 49.5135C269.537 49.7589 269.829 50.1018 270.031 50.5421C270.237 50.9788 270.34 51.4876 270.34 52.0687V52.4368H265.663V51.6843H269.858L269.393 52.3718V51.9983C269.393 51.54 269.324 51.1628 269.187 50.8669C269.05 50.5709 268.86 50.3508 268.618 50.2064C268.377 50.0585 268.099 49.9845 267.785 49.9845C267.471 49.9845 267.189 50.0621 266.94 50.2173C266.695 50.3688 266.5 50.5944 266.356 50.894C266.211 51.1935 266.139 51.5616 266.139 51.9983V52.3718C266.139 52.7869 266.209 53.1423 266.35 53.4383C266.491 53.7306 266.691 53.9562 266.951 54.115C267.211 54.2702 267.518 54.3478 267.871 54.3478C268.135 54.3478 268.364 54.3117 268.559 54.2395C268.754 54.1673 268.914 54.0753 269.041 53.9634C269.167 53.8515 269.255 53.7378 269.306 53.6223L269.328 53.5736H270.27L270.259 53.6169C270.208 53.8154 270.118 54.0085 269.988 54.1962C269.862 54.3802 269.698 54.548 269.495 54.6996C269.293 54.8476 269.053 54.9667 268.775 55.0569C268.501 55.1435 268.193 55.1868 267.85 55.1868ZM273.404 55.1868C273.036 55.1868 272.704 55.1165 272.408 54.9757C272.116 54.835 271.883 54.6347 271.71 54.3748C271.54 54.115 271.455 53.8082 271.455 53.4545V53.4437C271.455 52.924 271.639 52.518 272.007 52.2257C272.379 51.9297 272.904 51.7619 273.583 51.7222L275.726 51.5923V52.3448L273.696 52.4747C273.252 52.4999 272.928 52.592 272.722 52.7508C272.52 52.9096 272.419 53.1333 272.419 53.422V53.4329C272.419 53.7288 272.531 53.9598 272.754 54.1258C272.978 54.2882 273.26 54.3694 273.599 54.3694C273.92 54.3694 274.205 54.3062 274.454 54.1799C274.703 54.05 274.898 53.875 275.039 53.6548C275.183 53.4347 275.255 53.1857 275.255 52.9078V51.0888C275.255 50.7279 275.145 50.4537 274.925 50.266C274.709 50.0747 274.382 49.9791 273.945 49.9791C273.595 49.9791 273.308 50.0422 273.085 50.1685C272.861 50.2912 272.711 50.4663 272.635 50.6937L272.63 50.7099H271.688L271.693 50.6774C271.744 50.3706 271.87 50.1036 272.072 49.8762C272.278 49.6452 272.543 49.4666 272.868 49.3403C273.193 49.2104 273.563 49.1454 273.978 49.1454C274.454 49.1454 274.857 49.223 275.185 49.3782C275.517 49.5334 275.768 49.7571 275.937 50.0494C276.111 50.3382 276.197 50.6846 276.197 51.0888V55.084H275.255V54.2232H275.169C275.046 54.429 274.896 54.604 274.719 54.7483C274.546 54.8927 274.35 55.0028 274.129 55.0786C273.909 55.1508 273.667 55.1868 273.404 55.1868ZM277.919 55.084V49.2483H278.861V50.1144H278.947C279.059 49.8076 279.249 49.5695 279.516 49.3998C279.783 49.2302 280.113 49.1454 280.506 49.1454C280.597 49.1454 280.685 49.1508 280.772 49.1616C280.862 49.1689 280.931 49.1761 280.977 49.1833V50.0982C280.88 50.0801 280.784 50.0675 280.691 50.0603C280.6 50.0494 280.503 50.044 280.398 50.044C280.099 50.044 279.833 50.1036 279.602 50.2227C279.371 50.3418 279.189 50.5078 279.056 50.7207C278.926 50.9336 278.861 51.1827 278.861 51.4678V55.084H277.919Z" fill="#6B6B6B"/>
<path d="M295.277 50.198L298.049 52.9697L300.82 50.198" stroke="#6B6B6B" stroke-width="1.38585" stroke-linecap="round" stroke-linejoin="round"/>
<rect x="34.4023" y="106.762" width="79.1369" height="4.58764" rx="2.29382" fill="#A594F7"/>
<rect x="119.273" y="106.762" width="136.482" height="4.58764" rx="2.29382" fill="#FB96D0"/>
<rect x="261.492" y="106.762" width="34.4073" height="4.58764" rx="2.29382" fill="#97E3FB"/>
<rect x="301.633" y="106.762" width="17.2037" height="4.58764" rx="2.29382" fill="#F4D282"/>
<rect x="34.4023" y="138.847" width="6.88147" height="6.88147" rx="3.44073" fill="#A594F7"/>
<path d="M48.8609 143.827V142.751H51.6027C52.2971 142.751 52.8347 142.572 53.2155 142.214C53.5964 141.851 53.7868 141.351 53.7868 140.715V140.702C53.7868 140.061 53.5964 139.562 53.2155 139.203C52.8347 138.845 52.2971 138.666 51.6027 138.666H48.8609V137.59H51.9118C52.5211 137.59 53.0587 137.72 53.5247 137.98C53.9906 138.24 54.3557 138.603 54.6201 139.069C54.8889 139.535 55.0233 140.075 55.0233 140.688V140.702C55.0233 141.316 54.8889 141.858 54.6201 142.328C54.3557 142.799 53.9906 143.166 53.5247 143.43C53.0587 143.695 52.5211 143.827 51.9118 143.827H48.8609ZM48.256 147.288V137.59H49.4657V147.288H48.256ZM57.0057 147.288V137.59H60.7085C61.3313 137.59 61.8734 137.711 62.3348 137.953C62.8008 138.191 63.1614 138.524 63.4168 138.955C63.6721 139.385 63.7998 139.891 63.7998 140.473V140.487C63.7998 141.159 63.6273 141.741 63.2824 142.234C62.9374 142.727 62.4603 143.07 61.851 143.262L64.0955 147.288H62.6776L60.601 143.45C60.5921 143.45 60.5809 143.45 60.5674 143.45C60.554 143.45 60.5428 143.45 60.5338 143.45H58.2154V147.288H57.0057ZM58.2154 142.375H60.601C61.2238 142.375 61.7031 142.216 62.0391 141.898C62.3796 141.575 62.5499 141.118 62.5499 140.527V140.514C62.5499 139.936 62.3729 139.483 62.019 139.156C61.6651 138.829 61.1745 138.666 60.5473 138.666H58.2154V142.375ZM70.0698 147.516C69.1424 147.516 68.3472 147.31 67.6841 146.898C67.021 146.481 66.5103 145.892 66.1519 145.13C65.798 144.369 65.621 143.473 65.621 142.442V142.429C65.621 141.39 65.8002 140.491 66.1586 139.734C66.5215 138.977 67.0345 138.392 67.6975 137.98C68.3651 137.568 69.1558 137.362 70.0698 137.362C70.9882 137.362 71.7789 137.568 72.442 137.98C73.1095 138.392 73.6225 138.979 73.9809 139.741C74.3393 140.498 74.5185 141.394 74.5185 142.429V142.442C74.5185 143.473 74.3393 144.369 73.9809 145.13C73.627 145.888 73.1162 146.474 72.4487 146.891C71.7856 147.308 70.9927 147.516 70.0698 147.516ZM70.0698 146.401C70.7328 146.401 71.304 146.237 71.7834 145.91C72.2628 145.583 72.6324 145.124 72.8922 144.532C73.1521 143.936 73.282 143.24 73.282 142.442V142.429C73.282 141.622 73.1521 140.924 72.8922 140.332C72.6324 139.741 72.2628 139.284 71.7834 138.961C71.304 138.639 70.7328 138.477 70.0698 138.477C69.4112 138.477 68.8422 138.639 68.3628 138.961C67.8835 139.284 67.5116 139.741 67.2473 140.332C66.9874 140.924 66.8575 141.622 66.8575 142.429V142.442C66.8575 143.24 66.9852 143.936 67.2406 144.532C67.4959 145.124 67.8633 145.583 68.3427 145.91C68.822 146.237 69.3977 146.401 70.0698 146.401ZM76.6152 147.288V137.59H79.9417C80.9005 137.59 81.7203 137.783 82.4013 138.168C83.0868 138.549 83.6109 139.1 83.9738 139.821C84.3367 140.543 84.5182 141.412 84.5182 142.429V142.442C84.5182 143.459 84.3367 144.331 83.9738 145.056C83.6109 145.778 83.089 146.331 82.408 146.716C81.727 147.097 80.9049 147.288 79.9417 147.288H76.6152ZM77.8249 146.199H79.8611C80.5824 146.199 81.1984 146.051 81.7091 145.755C82.2199 145.46 82.6096 145.032 82.8784 144.472C83.1472 143.912 83.2816 143.24 83.2816 142.456V142.442C83.2816 141.654 83.145 140.98 82.8717 140.42C82.6029 139.855 82.2131 139.425 81.7024 139.129C81.1917 138.829 80.5779 138.679 79.8611 138.679H77.8249V146.199ZM90.4588 147.516C89.6569 147.516 88.9669 147.366 88.389 147.066C87.8155 146.766 87.3742 146.349 87.0651 145.816C86.756 145.278 86.6014 144.658 86.6014 143.954V137.59H87.811V143.874C87.811 144.617 88.0418 145.225 88.5032 145.695C88.9692 146.165 89.621 146.401 90.4588 146.401C91.3011 146.401 91.9507 146.165 92.4076 145.695C92.8646 145.225 93.0931 144.617 93.0931 143.874V137.59H94.3027V143.954C94.3027 144.658 94.1482 145.278 93.839 145.816C93.5344 146.349 93.0953 146.766 92.5219 147.066C91.9484 147.366 91.2607 147.516 90.4588 147.516ZM100.667 147.516C99.7886 147.516 99.0293 147.31 98.3886 146.898C97.748 146.486 97.2529 145.901 96.9034 145.144C96.5585 144.387 96.386 143.488 96.386 142.449V142.436C96.386 141.392 96.5585 140.491 96.9034 139.734C97.2529 138.977 97.7457 138.392 98.3819 137.98C99.0225 137.568 99.7819 137.362 100.66 137.362C101.341 137.362 101.959 137.496 102.515 137.765C103.075 138.029 103.536 138.399 103.899 138.874C104.262 139.344 104.491 139.889 104.585 140.507L104.578 140.52H103.362L103.355 140.507C103.247 140.09 103.066 139.732 102.81 139.432C102.555 139.127 102.244 138.892 101.876 138.726C101.513 138.56 101.108 138.477 100.66 138.477C100.042 138.477 99.5042 138.639 99.0472 138.961C98.5947 139.284 98.2452 139.741 97.9988 140.332C97.7524 140.924 97.6292 141.625 97.6292 142.436V142.449C97.6292 143.255 97.7524 143.954 97.9988 144.546C98.2452 145.137 98.5947 145.594 99.0472 145.917C99.5042 146.239 100.044 146.401 100.667 146.401C101.119 146.401 101.529 146.329 101.897 146.185C102.264 146.038 102.573 145.829 102.824 145.561C103.075 145.287 103.25 144.965 103.348 144.593L103.362 144.579H104.585V144.593C104.477 145.184 104.244 145.699 103.886 146.138C103.527 146.573 103.073 146.911 102.522 147.153C101.975 147.395 101.357 147.516 100.667 147.516ZM108.798 147.288V138.679H105.673V137.59H113.133V138.679H110.008V147.288H108.798Z" fill="#ABABAB"/>
<path d="M212.353 147.288V138.934H212.245L209.779 140.722V139.445L212.359 137.59H213.562V147.288H212.353ZM219.792 147.516C219.348 147.516 218.909 147.431 218.475 147.261C218.045 147.09 217.653 146.815 217.299 146.434C216.949 146.053 216.669 145.552 216.459 144.929C216.248 144.302 216.143 143.531 216.143 142.617V142.604C216.143 141.502 216.291 140.561 216.586 139.781C216.882 138.997 217.308 138.399 217.863 137.987C218.419 137.57 219.088 137.362 219.872 137.362C220.415 137.362 220.903 137.463 221.337 137.664C221.777 137.861 222.142 138.139 222.433 138.498C222.729 138.852 222.93 139.268 223.038 139.748L223.058 139.835H221.842L221.815 139.761C221.716 139.488 221.575 139.255 221.391 139.062C221.212 138.865 220.993 138.713 220.733 138.605C220.477 138.498 220.186 138.444 219.859 138.444C219.272 138.444 218.795 138.616 218.428 138.961C218.06 139.302 217.787 139.757 217.608 140.325C217.433 140.89 217.332 141.51 217.305 142.187C217.301 142.245 217.299 142.306 217.299 142.368C217.299 142.427 217.299 142.487 217.299 142.55L217.588 144.163C217.588 144.588 217.684 144.974 217.877 145.319C218.074 145.664 218.338 145.939 218.67 146.145C219.001 146.347 219.371 146.448 219.778 146.448C220.186 146.448 220.556 146.349 220.887 146.152C221.219 145.95 221.481 145.679 221.674 145.339C221.871 144.998 221.969 144.62 221.969 144.203V144.19C221.969 143.76 221.875 143.379 221.687 143.047C221.503 142.711 221.248 142.449 220.921 142.261C220.594 142.068 220.22 141.972 219.799 141.972C219.382 141.972 219.006 142.066 218.67 142.254C218.338 142.442 218.074 142.702 217.877 143.034C217.684 143.361 217.588 143.735 217.588 144.156V144.163H217.191V142.415H217.426C217.547 142.151 217.727 141.905 217.964 141.676C218.201 141.448 218.493 141.264 218.838 141.125C219.183 140.986 219.572 140.917 220.007 140.917C220.616 140.917 221.161 141.058 221.64 141.34C222.119 141.622 222.496 142.008 222.769 142.496C223.047 142.984 223.186 143.54 223.186 144.163V144.176C223.186 144.821 223.038 145.395 222.742 145.897C222.451 146.398 222.05 146.795 221.539 147.086C221.028 147.373 220.446 147.516 219.792 147.516Z" fill="#ABABAB"/>
<path d="M249.677 143.827V142.751H252.419C253.114 142.751 253.651 142.572 254.032 142.214C254.413 141.851 254.603 141.351 254.603 140.715V140.702C254.603 140.061 254.413 139.562 254.032 139.203C253.651 138.845 253.114 138.666 252.419 138.666H249.677V137.59H252.728C253.338 137.59 253.875 137.72 254.341 137.98C254.807 138.24 255.172 138.603 255.436 139.069C255.705 139.535 255.84 140.075 255.84 140.688V140.702C255.84 141.316 255.705 141.858 255.436 142.328C255.172 142.799 254.807 143.166 254.341 143.43C253.875 143.695 253.338 143.827 252.728 143.827H249.677ZM249.072 147.288V137.59H250.282V147.288H249.072ZM257.822 147.288V137.59H261.525C262.148 137.59 262.69 137.711 263.151 137.953C263.617 138.191 263.978 138.524 264.233 138.955C264.489 139.385 264.616 139.891 264.616 140.473V140.487C264.616 141.159 264.444 141.741 264.099 142.234C263.754 142.727 263.277 143.07 262.667 143.262L264.912 147.288H263.494L261.417 143.45C261.408 143.45 261.397 143.45 261.384 143.45C261.37 143.45 261.359 143.45 261.35 143.45H259.032V147.288H257.822ZM259.032 142.375H261.417C262.04 142.375 262.52 142.216 262.856 141.898C263.196 141.575 263.366 141.118 263.366 140.527V140.514C263.366 139.936 263.189 139.483 262.835 139.156C262.481 138.829 261.991 138.666 261.364 138.666H259.032V142.375ZM270.886 147.516C269.959 147.516 269.164 147.31 268.501 146.898C267.837 146.481 267.327 145.892 266.968 145.13C266.614 144.369 266.437 143.473 266.437 142.442V142.429C266.437 141.39 266.617 140.491 266.975 139.734C267.338 138.977 267.851 138.392 268.514 137.98C269.181 137.568 269.972 137.362 270.886 137.362C271.805 137.362 272.595 137.568 273.258 137.98C273.926 138.392 274.439 138.979 274.797 139.741C275.156 140.498 275.335 141.394 275.335 142.429V142.442C275.335 143.473 275.156 144.369 274.797 145.13C274.443 145.888 273.933 146.474 273.265 146.891C272.602 147.308 271.809 147.516 270.886 147.516ZM270.886 146.401C271.549 146.401 272.12 146.237 272.6 145.91C273.079 145.583 273.449 145.124 273.709 144.532C273.968 143.936 274.098 143.24 274.098 142.442V142.429C274.098 141.622 273.968 140.924 273.709 140.332C273.449 139.741 273.079 139.284 272.6 138.961C272.12 138.639 271.549 138.477 270.886 138.477C270.228 138.477 269.659 138.639 269.179 138.961C268.7 139.284 268.328 139.741 268.064 140.332C267.804 140.924 267.674 141.622 267.674 142.429V142.442C267.674 143.24 267.802 143.936 268.057 144.532C268.312 145.124 268.68 145.583 269.159 145.91C269.638 146.237 270.214 146.401 270.886 146.401ZM279.508 147.516C278.948 147.516 278.471 147.411 278.077 147.2C277.683 146.985 277.376 146.694 277.156 146.327C276.941 145.959 276.816 145.545 276.78 145.083L276.773 144.989H277.983L277.989 145.056C278.016 145.298 278.088 145.522 278.204 145.729C278.321 145.93 278.487 146.094 278.702 146.219C278.917 146.34 279.183 146.401 279.501 146.401C280.039 146.401 280.449 146.246 280.731 145.937C281.013 145.623 281.155 145.171 281.155 144.579V137.59H282.364V144.593C282.364 145.511 282.111 146.228 281.605 146.743C281.103 147.258 280.404 147.516 279.508 147.516ZM284.837 147.288V137.59H290.845V138.679H286.047V141.79H290.596V142.866H286.047V146.199H290.845V147.288H284.837ZM296.94 147.516C296.062 147.516 295.303 147.31 294.662 146.898C294.022 146.486 293.526 145.901 293.177 145.144C292.832 144.387 292.66 143.488 292.66 142.449V142.436C292.66 141.392 292.832 140.491 293.177 139.734C293.526 138.977 294.019 138.392 294.655 137.98C295.296 137.568 296.055 137.362 296.934 137.362C297.615 137.362 298.233 137.496 298.788 137.765C299.348 138.029 299.81 138.399 300.173 138.874C300.536 139.344 300.764 139.889 300.858 140.507L300.851 140.52H299.635L299.628 140.507C299.521 140.09 299.339 139.732 299.084 139.432C298.829 139.127 298.517 138.892 298.15 138.726C297.787 138.56 297.382 138.477 296.934 138.477C296.315 138.477 295.778 138.639 295.321 138.961C294.868 139.284 294.519 139.741 294.272 140.332C294.026 140.924 293.903 141.625 293.903 142.436V142.449C293.903 143.255 294.026 143.954 294.272 144.546C294.519 145.137 294.868 145.594 295.321 145.917C295.778 146.239 296.318 146.401 296.94 146.401C297.393 146.401 297.803 146.329 298.17 146.185C298.537 146.038 298.847 145.829 299.097 145.561C299.348 145.287 299.523 144.965 299.622 144.593L299.635 144.579H300.858V144.593C300.751 145.184 300.518 145.699 300.159 146.138C299.801 146.573 299.346 146.911 298.795 147.153C298.249 147.395 297.63 147.516 296.94 147.516ZM305.072 147.288V138.679H301.947V137.59H309.406V138.679H306.281V147.288H305.072ZM314.453 147.516C313.745 147.516 313.127 147.402 312.598 147.173C312.074 146.94 311.658 146.622 311.348 146.219C311.044 145.811 310.867 145.345 310.817 144.821L310.811 144.747H312.02L312.027 144.821C312.058 145.144 312.182 145.424 312.397 145.661C312.616 145.894 312.907 146.076 313.27 146.206C313.638 146.336 314.054 146.401 314.52 146.401C314.959 146.401 315.349 146.331 315.69 146.192C316.035 146.049 316.306 145.852 316.503 145.601C316.7 145.35 316.798 145.061 316.798 144.734V144.727C316.798 144.324 316.651 143.986 316.355 143.712C316.059 143.435 315.578 143.222 314.91 143.074L313.835 142.839C312.863 142.624 312.155 142.292 311.711 141.844C311.272 141.392 311.053 140.814 311.053 140.11V140.104C311.057 139.566 311.203 139.091 311.49 138.679C311.781 138.267 312.182 137.944 312.692 137.711C313.208 137.478 313.799 137.362 314.467 137.362C315.112 137.362 315.683 137.478 316.18 137.711C316.677 137.94 317.072 138.249 317.363 138.639C317.659 139.028 317.822 139.465 317.854 139.949L317.86 140.043H316.651L316.637 139.956C316.592 139.669 316.476 139.416 316.288 139.196C316.1 138.972 315.849 138.796 315.535 138.666C315.221 138.536 314.854 138.473 314.433 138.477C314.03 138.477 313.667 138.54 313.344 138.666C313.022 138.791 312.764 138.972 312.571 139.21C312.383 139.443 312.289 139.73 312.289 140.07V140.077C312.289 140.462 312.433 140.787 312.719 141.051C313.006 141.316 313.479 141.519 314.137 141.663L315.212 141.905C316.225 142.129 316.949 142.454 317.383 142.879C317.818 143.305 318.035 143.867 318.035 144.566V144.573C318.035 145.177 317.887 145.699 317.591 146.138C317.296 146.577 316.879 146.918 316.341 147.16C315.804 147.397 315.174 147.516 314.453 147.516Z" fill="#4A4A4A"/>
<line x1="34.4023" y1="166.918" x2="318.836" y2="166.918" stroke="#1F1F1F" stroke-width="1.14691"/>
<rect x="34.4023" y="189.254" width="6.88147" height="6.88147" rx="3.44073" fill="#FB96D0"/>
<path d="M51.0584 197.695L47.4832 187.998H48.7533L51.6027 196.129H51.7102L54.5596 187.998H55.8297L52.2546 197.695H51.0584ZM57.5299 197.695V187.998H58.7395V197.695H57.5299ZM64.3912 197.923C63.6833 197.923 63.0651 197.809 62.5364 197.581C62.0123 197.348 61.5956 197.03 61.2865 196.626C60.9818 196.219 60.8049 195.753 60.7556 195.229L60.7489 195.155H61.9585L61.9652 195.229C61.9966 195.551 62.1198 195.831 62.3348 196.069C62.5544 196.302 62.8456 196.483 63.2085 196.613C63.5758 196.743 63.9925 196.808 64.4584 196.808C64.8975 196.808 65.2872 196.738 65.6277 196.599C65.9727 196.456 66.2437 196.259 66.4409 196.008C66.638 195.757 66.7365 195.468 66.7365 195.141V195.134C66.7365 194.731 66.5887 194.393 66.293 194.12C65.9973 193.842 65.5157 193.629 64.8482 193.481L63.7729 193.246C62.8008 193.031 62.0929 192.699 61.6494 192.251C61.2103 191.799 60.9908 191.221 60.9908 190.518V190.511C60.9953 189.973 61.1409 189.498 61.4276 189.086C61.7188 188.674 62.1198 188.352 62.6305 188.119C63.1457 187.886 63.7371 187.769 64.4046 187.769C65.0498 187.769 65.621 187.886 66.1183 188.119C66.6156 188.347 67.0098 188.656 67.301 189.046C67.5967 189.436 67.7603 189.873 67.7916 190.356L67.7983 190.45H66.5887L66.5753 190.363C66.5305 190.076 66.414 189.823 66.2258 189.604C66.0376 189.38 65.7868 189.203 65.4732 189.073C65.1595 188.943 64.7922 188.88 64.371 188.885C63.9678 188.885 63.6049 188.947 63.2824 189.073C62.9598 189.198 62.7022 189.38 62.5096 189.617C62.3214 189.85 62.2273 190.137 62.2273 190.477V190.484C62.2273 190.869 62.3707 191.194 62.6574 191.458C62.9441 191.723 63.4168 191.927 64.0754 192.07L65.1506 192.312C66.1631 192.536 66.8866 192.861 67.3212 193.286C67.7558 193.712 67.9731 194.274 67.9731 194.973V194.98C67.9731 195.585 67.8252 196.107 67.5295 196.546C67.2338 196.985 66.8172 197.325 66.2796 197.567C65.742 197.805 65.1125 197.923 64.3912 197.923ZM73.8331 197.923C73.0311 197.923 72.3412 197.773 71.7632 197.473C71.1898 197.173 70.7485 196.756 70.4394 196.223C70.1302 195.685 69.9757 195.065 69.9757 194.362V187.998H71.1853V194.281C71.1853 195.025 71.416 195.632 71.8775 196.102C72.3434 196.573 72.9953 196.808 73.8331 196.808C74.6753 196.808 75.3249 196.573 75.7819 196.102C76.2389 195.632 76.4674 195.025 76.4674 194.281V187.998H77.677V194.362C77.677 195.065 77.5224 195.685 77.2133 196.223C76.9087 196.756 76.4696 197.173 75.8962 197.473C75.3227 197.773 74.635 197.923 73.8331 197.923ZM79.1622 197.695L82.7373 187.998H83.6647V189.563H83.2816L80.4323 197.695H79.1622ZM80.7817 194.919L81.1581 193.891H85.5396L85.9159 194.919H80.7817ZM86.2385 197.695L83.3892 189.563V187.998H83.9335L87.5086 197.695H86.2385ZM89.2088 197.695V187.998H90.4185V196.606H95.0957V197.695H89.2088Z" fill="#ABABAB"/>
<path d="M207.98 197.695V196.862L211.26 193.313C211.672 192.865 211.995 192.496 212.228 192.204C212.461 191.909 212.624 191.642 212.718 191.405C212.812 191.167 212.859 190.907 212.859 190.625V190.612C212.859 190.271 212.785 189.967 212.637 189.698C212.49 189.429 212.279 189.216 212.006 189.059C211.732 188.903 211.405 188.824 211.025 188.824C210.639 188.824 210.301 188.905 210.01 189.066C209.719 189.223 209.492 189.445 209.331 189.731C209.17 190.014 209.089 190.345 209.089 190.726L209.082 190.739L207.927 190.733L207.913 190.726C207.918 190.153 208.057 189.644 208.33 189.201C208.603 188.753 208.979 188.403 209.459 188.152C209.938 187.897 210.487 187.769 211.105 187.769C211.67 187.769 212.178 187.888 212.631 188.125C213.083 188.358 213.439 188.679 213.699 189.086C213.964 189.494 214.096 189.96 214.096 190.484V190.498C214.096 190.865 214.031 191.219 213.901 191.559C213.775 191.9 213.551 192.278 213.229 192.695C212.906 193.107 212.452 193.616 211.865 194.22L209.358 196.808L209.66 196.25V196.808L209.365 196.606H214.257V197.695H207.98ZM219.714 197.923C219.27 197.923 218.831 197.838 218.397 197.668C217.967 197.498 217.575 197.222 217.221 196.841C216.871 196.461 216.591 195.959 216.381 195.336C216.17 194.709 216.065 193.938 216.065 193.024V193.011C216.065 191.909 216.213 190.968 216.508 190.188C216.804 189.404 217.23 188.806 217.785 188.394C218.341 187.977 219.01 187.769 219.794 187.769C220.337 187.769 220.825 187.87 221.259 188.072C221.699 188.269 222.064 188.546 222.355 188.905C222.651 189.259 222.852 189.675 222.96 190.155L222.98 190.242H221.763L221.737 190.168C221.638 189.895 221.497 189.662 221.313 189.469C221.134 189.272 220.914 189.12 220.655 189.012C220.399 188.905 220.108 188.851 219.781 188.851C219.194 188.851 218.717 189.024 218.35 189.369C217.982 189.709 217.709 190.164 217.53 190.733C217.355 191.297 217.254 191.918 217.227 192.594C217.223 192.652 217.221 192.713 217.221 192.776C217.221 192.834 217.221 192.894 217.221 192.957L217.51 194.57C217.51 194.996 217.606 195.381 217.799 195.726C217.996 196.071 218.26 196.346 218.592 196.552C218.923 196.754 219.293 196.855 219.7 196.855C220.108 196.855 220.478 196.756 220.809 196.559C221.141 196.358 221.403 196.086 221.595 195.746C221.793 195.405 221.891 195.027 221.891 194.61V194.597C221.891 194.167 221.797 193.786 221.609 193.454C221.425 193.118 221.17 192.856 220.843 192.668C220.516 192.475 220.142 192.379 219.721 192.379C219.304 192.379 218.928 192.473 218.592 192.661C218.26 192.85 217.996 193.109 217.799 193.441C217.606 193.768 217.51 194.142 217.51 194.563V194.57H217.113V192.823H217.348C217.469 192.558 217.648 192.312 217.886 192.083C218.123 191.855 218.415 191.671 218.76 191.532C219.105 191.394 219.494 191.324 219.929 191.324C220.538 191.324 221.083 191.465 221.562 191.747C222.041 192.03 222.418 192.415 222.691 192.903C222.969 193.392 223.108 193.947 223.108 194.57V194.583C223.108 195.229 222.96 195.802 222.664 196.304C222.373 196.806 221.972 197.202 221.461 197.493C220.95 197.78 220.368 197.923 219.714 197.923Z" fill="#ABABAB"/>
<path d="M249.677 194.234V193.159H252.419C253.114 193.159 253.651 192.979 254.032 192.621C254.413 192.258 254.603 191.759 254.603 191.122V191.109C254.603 190.468 254.413 189.969 254.032 189.61C253.651 189.252 253.114 189.073 252.419 189.073H249.677V187.998H252.728C253.338 187.998 253.875 188.128 254.341 188.387C254.807 188.647 255.172 189.01 255.436 189.476C255.705 189.942 255.84 190.482 255.84 191.096V191.109C255.84 191.723 255.705 192.265 255.436 192.735C255.172 193.206 254.807 193.573 254.341 193.837C253.875 194.102 253.338 194.234 252.728 194.234H249.677ZM249.072 197.695V187.998H250.282V197.695H249.072ZM257.822 197.695V187.998H261.525C262.148 187.998 262.69 188.119 263.151 188.36C263.617 188.598 263.978 188.932 264.233 189.362C264.489 189.792 264.616 190.298 264.616 190.881V190.894C264.616 191.566 264.444 192.148 264.099 192.641C263.754 193.134 263.277 193.477 262.667 193.669L264.912 197.695H263.494L261.417 193.858C261.408 193.858 261.397 193.858 261.384 193.858C261.37 193.858 261.359 193.858 261.35 193.858H259.032V197.695H257.822ZM259.032 192.782H261.417C262.04 192.782 262.52 192.623 262.856 192.305C263.196 191.983 263.366 191.526 263.366 190.934V190.921C263.366 190.343 263.189 189.89 262.835 189.563C262.481 189.236 261.991 189.073 261.364 189.073H259.032V192.782ZM270.886 197.923C269.959 197.923 269.164 197.717 268.501 197.305C267.837 196.888 267.327 196.299 266.968 195.538C266.614 194.776 266.437 193.88 266.437 192.85V192.836C266.437 191.797 266.617 190.898 266.975 190.141C267.338 189.384 267.851 188.8 268.514 188.387C269.181 187.975 269.972 187.769 270.886 187.769C271.805 187.769 272.595 187.975 273.258 188.387C273.926 188.8 274.439 189.386 274.797 190.148C275.156 190.905 275.335 191.801 275.335 192.836V192.85C275.335 193.88 275.156 194.776 274.797 195.538C274.443 196.295 273.933 196.882 273.265 197.298C272.602 197.715 271.809 197.923 270.886 197.923ZM270.886 196.808C271.549 196.808 272.12 196.644 272.6 196.317C273.079 195.99 273.449 195.531 273.709 194.94C273.968 194.344 274.098 193.647 274.098 192.85V192.836C274.098 192.03 273.968 191.331 273.709 190.739C273.449 190.148 273.079 189.691 272.6 189.369C272.12 189.046 271.549 188.885 270.886 188.885C270.228 188.885 269.659 189.046 269.179 189.369C268.7 189.691 268.328 190.148 268.064 190.739C267.804 191.331 267.674 192.03 267.674 192.836V192.85C267.674 193.647 267.802 194.344 268.057 194.94C268.312 195.531 268.68 195.99 269.159 196.317C269.638 196.644 270.214 196.808 270.886 196.808ZM279.508 197.923C278.948 197.923 278.471 197.818 278.077 197.607C277.683 197.392 277.376 197.101 277.156 196.734C276.941 196.366 276.816 195.952 276.78 195.491L276.773 195.397H277.983L277.989 195.464C278.016 195.706 278.088 195.93 278.204 196.136C278.321 196.337 278.487 196.501 278.702 196.626C278.917 196.747 279.183 196.808 279.501 196.808C280.039 196.808 280.449 196.653 280.731 196.344C281.013 196.03 281.155 195.578 281.155 194.987V187.998H282.364V195C282.364 195.918 282.111 196.635 281.605 197.15C281.103 197.666 280.404 197.923 279.508 197.923ZM284.837 197.695V187.998H290.845V189.086H286.047V192.198H290.596V193.273H286.047V196.606H290.845V197.695H284.837ZM296.94 197.923C296.062 197.923 295.303 197.717 294.662 197.305C294.022 196.893 293.526 196.308 293.177 195.551C292.832 194.794 292.66 193.896 292.66 192.856V192.843C292.66 191.799 292.832 190.898 293.177 190.141C293.526 189.384 294.019 188.8 294.655 188.387C295.296 187.975 296.055 187.769 296.934 187.769C297.615 187.769 298.233 187.904 298.788 188.172C299.348 188.437 299.81 188.806 300.173 189.281C300.536 189.752 300.764 190.296 300.858 190.914L300.851 190.928H299.635L299.628 190.914C299.521 190.498 299.339 190.139 299.084 189.839C298.829 189.534 298.517 189.299 298.15 189.133C297.787 188.968 297.382 188.885 296.934 188.885C296.315 188.885 295.778 189.046 295.321 189.369C294.868 189.691 294.519 190.148 294.272 190.739C294.026 191.331 293.903 192.032 293.903 192.843V192.856C293.903 193.663 294.026 194.362 294.272 194.953C294.519 195.544 294.868 196.001 295.321 196.324C295.778 196.646 296.318 196.808 296.94 196.808C297.393 196.808 297.803 196.736 298.17 196.593C298.537 196.445 298.847 196.237 299.097 195.968C299.348 195.694 299.523 195.372 299.622 195L299.635 194.987H300.858V195C300.751 195.591 300.518 196.107 300.159 196.546C299.801 196.98 299.346 197.318 298.795 197.56C298.249 197.802 297.63 197.923 296.94 197.923ZM305.072 197.695V189.086H301.947V187.998H309.406V189.086H306.281V197.695H305.072ZM314.453 197.923C313.745 197.923 313.127 197.809 312.598 197.581C312.074 197.348 311.658 197.03 311.348 196.626C311.044 196.219 310.867 195.753 310.817 195.229L310.811 195.155H312.02L312.027 195.229C312.058 195.551 312.182 195.831 312.397 196.069C312.616 196.302 312.907 196.483 313.27 196.613C313.638 196.743 314.054 196.808 314.52 196.808C314.959 196.808 315.349 196.738 315.69 196.599C316.035 196.456 316.306 196.259 316.503 196.008C316.7 195.757 316.798 195.468 316.798 195.141V195.134C316.798 194.731 316.651 194.393 316.355 194.12C316.059 193.842 315.578 193.629 314.91 193.481L313.835 193.246C312.863 193.031 312.155 192.699 311.711 192.251C311.272 191.799 311.053 191.221 311.053 190.518V190.511C311.057 189.973 311.203 189.498 311.49 189.086C311.781 188.674 312.182 188.352 312.692 188.119C313.208 187.886 313.799 187.769 314.467 187.769C315.112 187.769 315.683 187.886 316.18 188.119C316.677 188.347 317.072 188.656 317.363 189.046C317.659 189.436 317.822 189.873 317.854 190.356L317.86 190.45H316.651L316.637 190.363C316.592 190.076 316.476 189.823 316.288 189.604C316.1 189.38 315.849 189.203 315.535 189.073C315.221 188.943 314.854 188.88 314.433 188.885C314.03 188.885 313.667 188.947 313.344 189.073C313.022 189.198 312.764 189.38 312.571 189.617C312.383 189.85 312.289 190.137 312.289 190.477V190.484C312.289 190.869 312.433 191.194 312.719 191.458C313.006 191.723 313.479 191.927 314.137 192.07L315.212 192.312C316.225 192.536 316.949 192.861 317.383 193.286C317.818 193.712 318.035 194.274 318.035 194.973V194.98C318.035 195.585 317.887 196.107 317.591 196.546C317.296 196.985 316.879 197.325 316.341 197.567C315.804 197.805 315.174 197.923 314.453 197.923Z" fill="#4A4A4A"/>
<line x1="34.4023" y1="217.325" x2="318.836" y2="217.325" stroke="#1F1F1F" stroke-width="1.14691"/>
<rect x="34.4023" y="239.661" width="6.88147" height="6.88147" rx="3.44073" fill="#97E3FB"/>
<path d="M48.256 248.102V238.405H49.6606L52.9803 246.496H53.0879L56.4076 238.405H57.8121V248.102H56.6832V240.696H56.0918L57.4493 238.674L53.5448 248.102H52.5234L48.6257 238.674L49.9764 240.696H49.385V248.102H48.256ZM64.3576 248.331C63.4302 248.331 62.635 248.124 61.9719 247.712C61.3089 247.296 60.7981 246.706 60.4397 245.945C60.0858 245.183 59.9088 244.287 59.9088 243.257V243.243C59.9088 242.204 60.088 241.306 60.4465 240.549C60.8093 239.791 61.3223 239.207 61.9854 238.795C62.6529 238.382 63.4437 238.176 64.3576 238.176C65.276 238.176 66.0668 238.382 66.7298 238.795C67.3974 239.207 67.9103 239.794 68.2687 240.555C68.6272 241.312 68.8064 242.208 68.8064 243.243V243.257C68.8064 244.287 68.6272 245.183 68.2687 245.945C67.9148 246.702 67.4041 247.289 66.7365 247.706C66.0735 248.122 65.2805 248.331 64.3576 248.331ZM64.3576 247.215C65.0207 247.215 65.5919 247.051 66.0712 246.724C66.5506 246.397 66.9202 245.938 67.1801 245.347C67.4399 244.751 67.5699 244.054 67.5699 243.257V243.243C67.5699 242.437 67.4399 241.738 67.1801 241.147C66.9202 240.555 66.5506 240.098 66.0712 239.776C65.5919 239.453 65.0207 239.292 64.3576 239.292C63.699 239.292 63.13 239.453 62.6507 239.776C62.1713 240.098 61.7995 240.555 61.5351 241.147C61.2753 241.738 61.1454 242.437 61.1454 243.243V243.257C61.1454 244.054 61.273 244.751 61.5284 245.347C61.7838 245.938 62.1511 246.397 62.6305 246.724C63.1099 247.051 63.6856 247.215 64.3576 247.215ZM73.0199 248.102V239.493H69.895V238.405H77.3544V239.493H74.2296V248.102H73.0199ZM79.2226 248.102V238.405H80.4323V248.102H79.2226ZM86.9777 248.331C86.0504 248.331 85.2551 248.124 84.5921 247.712C83.929 247.296 83.4183 246.706 83.0599 245.945C82.7059 245.183 82.529 244.287 82.529 243.257V243.243C82.529 242.204 82.7082 241.306 83.0666 240.549C83.4295 239.791 83.9425 239.207 84.6055 238.795C85.2731 238.382 86.0638 238.176 86.9777 238.176C87.8962 238.176 88.6869 238.382 89.35 238.795C90.0175 239.207 90.5305 239.794 90.8889 240.555C91.2473 241.312 91.4265 242.208 91.4265 243.243V243.257C91.4265 244.287 91.2473 245.183 90.8889 245.945C90.535 246.702 90.0242 247.289 89.3567 247.706C88.6936 248.122 87.9006 248.331 86.9777 248.331ZM86.9777 247.215C87.6408 247.215 88.212 247.051 88.6914 246.724C89.1708 246.397 89.5404 245.938 89.8002 245.347C90.0601 244.751 90.19 244.054 90.19 243.257V243.243C90.19 242.437 90.0601 241.738 89.8002 241.147C89.5404 240.555 89.1708 240.098 88.6914 239.776C88.212 239.453 87.6408 239.292 86.9777 239.292C86.3192 239.292 85.7502 239.453 85.2708 239.776C84.7914 240.098 84.4196 240.555 84.1553 241.147C83.8954 241.738 83.7655 242.437 83.7655 243.243V243.257C83.7655 244.054 83.8932 244.751 84.1485 245.347C84.4039 245.938 84.7713 246.397 85.2507 246.724C85.73 247.051 86.3057 247.215 86.9777 247.215ZM93.5232 248.102V238.405H94.6992L100.257 246.375L99.4504 245.952H100.069V238.405H101.265V248.102H100.089L94.5312 240.159L95.3376 240.582H94.7194V248.102H93.5232Z" fill="#ABABAB"/>
<path d="M220.408 248.331C219.964 248.331 219.525 248.245 219.091 248.075C218.66 247.905 218.268 247.629 217.914 247.249C217.565 246.868 217.285 246.366 217.074 245.743C216.864 245.116 216.759 244.345 216.759 243.432V243.418C216.759 242.316 216.906 241.375 217.202 240.596C217.498 239.812 217.923 239.213 218.479 238.801C219.035 238.385 219.704 238.176 220.488 238.176C221.03 238.176 221.519 238.277 221.953 238.479C222.392 238.676 222.758 238.954 223.049 239.312C223.344 239.666 223.546 240.083 223.654 240.562L223.674 240.649H222.457L222.43 240.575C222.332 240.302 222.191 240.069 222.007 239.877C221.828 239.679 221.608 239.527 221.349 239.42C221.093 239.312 220.802 239.258 220.475 239.258C219.888 239.258 219.411 239.431 219.043 239.776C218.676 240.116 218.403 240.571 218.224 241.14C218.049 241.704 217.948 242.325 217.921 243.001C217.917 243.06 217.914 243.12 217.914 243.183C217.914 243.241 217.914 243.302 217.914 243.364L218.203 244.977C218.203 245.403 218.3 245.788 218.492 246.133C218.69 246.478 218.954 246.754 219.285 246.96C219.617 247.161 219.987 247.262 220.394 247.262C220.802 247.262 221.172 247.163 221.503 246.966C221.835 246.765 222.097 246.494 222.289 246.153C222.486 245.813 222.585 245.434 222.585 245.017V245.004C222.585 244.574 222.491 244.193 222.303 243.862C222.119 243.526 221.864 243.264 221.537 243.075C221.21 242.883 220.836 242.786 220.414 242.786C219.998 242.786 219.621 242.88 219.285 243.069C218.954 243.257 218.69 243.517 218.492 243.848C218.3 244.175 218.203 244.549 218.203 244.97V244.977H217.807V243.23H218.042C218.163 242.966 218.342 242.719 218.58 242.491C218.817 242.262 219.108 242.079 219.453 241.94C219.798 241.801 220.188 241.731 220.623 241.731C221.232 241.731 221.776 241.872 222.256 242.155C222.735 242.437 223.111 242.822 223.385 243.311C223.662 243.799 223.801 244.354 223.801 244.977V244.991C223.801 245.636 223.654 246.209 223.358 246.711C223.067 247.213 222.666 247.609 222.155 247.9C221.644 248.187 221.062 248.331 220.408 248.331Z" fill="#ABABAB"/>
<path d="M249.677 244.641V243.566H252.419C253.114 243.566 253.651 243.387 254.032 243.028C254.413 242.665 254.603 242.166 254.603 241.53V241.516C254.603 240.876 254.413 240.376 254.032 240.018C253.651 239.659 253.114 239.48 252.419 239.48H249.677V238.405H252.728C253.338 238.405 253.875 238.535 254.341 238.795C254.807 239.054 255.172 239.417 255.436 239.883C255.705 240.349 255.84 240.889 255.84 241.503V241.516C255.84 242.13 255.705 242.672 255.436 243.143C255.172 243.613 254.807 243.98 254.341 244.245C253.875 244.509 253.338 244.641 252.728 244.641H249.677ZM249.072 248.102V238.405H250.282V248.102H249.072ZM257.822 248.102V238.405H261.525C262.148 238.405 262.69 238.526 263.151 238.768C263.617 239.005 263.978 239.339 264.233 239.769C264.489 240.199 264.616 240.705 264.616 241.288V241.301C264.616 241.973 264.444 242.556 264.099 243.048C263.754 243.541 263.277 243.884 262.667 244.077L264.912 248.102H263.494L261.417 244.265C261.408 244.265 261.397 244.265 261.384 244.265C261.37 244.265 261.359 244.265 261.35 244.265H259.032V248.102H257.822ZM259.032 243.19H261.417C262.04 243.19 262.52 243.031 262.856 242.712C263.196 242.39 263.366 241.933 263.366 241.342V241.328C263.366 240.75 263.189 240.298 262.835 239.971C262.481 239.644 261.991 239.48 261.364 239.48H259.032V243.19ZM270.886 248.331C269.959 248.331 269.164 248.124 268.501 247.712C267.837 247.296 267.327 246.706 266.968 245.945C266.614 245.183 266.437 244.287 266.437 243.257V243.243C266.437 242.204 266.617 241.306 266.975 240.549C267.338 239.791 267.851 239.207 268.514 238.795C269.181 238.382 269.972 238.176 270.886 238.176C271.805 238.176 272.595 238.382 273.258 238.795C273.926 239.207 274.439 239.794 274.797 240.555C275.156 241.312 275.335 242.208 275.335 243.243V243.257C275.335 244.287 275.156 245.183 274.797 245.945C274.443 246.702 273.933 247.289 273.265 247.706C272.602 248.122 271.809 248.331 270.886 248.331ZM270.886 247.215C271.549 247.215 272.12 247.051 272.6 246.724C273.079 246.397 273.449 245.938 273.709 245.347C273.968 244.751 274.098 244.054 274.098 243.257V243.243C274.098 242.437 273.968 241.738 273.709 241.147C273.449 240.555 273.079 240.098 272.6 239.776C272.12 239.453 271.549 239.292 270.886 239.292C270.228 239.292 269.659 239.453 269.179 239.776C268.7 240.098 268.328 240.555 268.064 241.147C267.804 241.738 267.674 242.437 267.674 243.243V243.257C267.674 244.054 267.802 244.751 268.057 245.347C268.312 245.938 268.68 246.397 269.159 246.724C269.638 247.051 270.214 247.215 270.886 247.215ZM279.508 248.331C278.948 248.331 278.471 248.225 278.077 248.015C277.683 247.8 277.376 247.508 277.156 247.141C276.941 246.774 276.816 246.359 276.78 245.898L276.773 245.804H277.983L277.989 245.871C278.016 246.113 278.088 246.337 278.204 246.543C278.321 246.745 278.487 246.908 278.702 247.034C278.917 247.155 279.183 247.215 279.501 247.215C280.039 247.215 280.449 247.06 280.731 246.751C281.013 246.438 281.155 245.985 281.155 245.394V238.405H282.364V245.407C282.364 246.326 282.111 247.043 281.605 247.558C281.103 248.073 280.404 248.331 279.508 248.331ZM284.837 248.102V238.405H290.845V239.493H286.047V242.605H290.596V243.68H286.047V247.013H290.845V248.102H284.837ZM296.94 248.331C296.062 248.331 295.303 248.124 294.662 247.712C294.022 247.3 293.526 246.715 293.177 245.958C292.832 245.201 292.66 244.303 292.66 243.264V243.25C292.66 242.206 292.832 241.306 293.177 240.549C293.526 239.791 294.019 239.207 294.655 238.795C295.296 238.382 296.055 238.176 296.934 238.176C297.615 238.176 298.233 238.311 298.788 238.58C299.348 238.844 299.81 239.213 300.173 239.688C300.536 240.159 300.764 240.703 300.858 241.321L300.851 241.335H299.635L299.628 241.321C299.521 240.905 299.339 240.546 299.084 240.246C298.829 239.942 298.517 239.706 298.15 239.541C297.787 239.375 297.382 239.292 296.934 239.292C296.315 239.292 295.778 239.453 295.321 239.776C294.868 240.098 294.519 240.555 294.272 241.147C294.026 241.738 293.903 242.439 293.903 243.25V243.264C293.903 244.07 294.026 244.769 294.272 245.36C294.519 245.952 294.868 246.409 295.321 246.731C295.778 247.054 296.318 247.215 296.94 247.215C297.393 247.215 297.803 247.143 298.17 247C298.537 246.852 298.847 246.644 299.097 246.375C299.348 246.102 299.523 245.779 299.622 245.407L299.635 245.394H300.858V245.407C300.751 245.999 300.518 246.514 300.159 246.953C299.801 247.387 299.346 247.726 298.795 247.968C298.249 248.21 297.63 248.331 296.94 248.331ZM305.072 248.102V239.493H301.947V238.405H309.406V239.493H306.281V248.102H305.072ZM314.453 248.331C313.745 248.331 313.127 248.216 312.598 247.988C312.074 247.755 311.658 247.437 311.348 247.034C311.044 246.626 310.867 246.16 310.817 245.636L310.811 245.562H312.02L312.027 245.636C312.058 245.958 312.182 246.238 312.397 246.476C312.616 246.709 312.907 246.89 313.27 247.02C313.638 247.15 314.054 247.215 314.52 247.215C314.959 247.215 315.349 247.146 315.69 247.007C316.035 246.863 316.306 246.666 316.503 246.415C316.7 246.164 316.798 245.875 316.798 245.548V245.542C316.798 245.138 316.651 244.8 316.355 244.527C316.059 244.249 315.578 244.036 314.91 243.888L313.835 243.653C312.863 243.438 312.155 243.107 311.711 242.659C311.272 242.206 311.053 241.628 311.053 240.925V240.918C311.057 240.381 311.203 239.906 311.49 239.493C311.781 239.081 312.182 238.759 312.692 238.526C313.208 238.293 313.799 238.176 314.467 238.176C315.112 238.176 315.683 238.293 316.18 238.526C316.677 238.754 317.072 239.063 317.363 239.453C317.659 239.843 317.822 240.28 317.854 240.764L317.86 240.858H316.651L316.637 240.77C316.592 240.484 316.476 240.23 316.288 240.011C316.1 239.787 315.849 239.61 315.535 239.48C315.221 239.35 314.854 239.287 314.433 239.292C314.03 239.292 313.667 239.355 313.344 239.48C313.022 239.605 312.764 239.787 312.571 240.024C312.383 240.257 312.289 240.544 312.289 240.885V240.891C312.289 241.277 312.433 241.601 312.719 241.866C313.006 242.13 313.479 242.334 314.137 242.477L315.212 242.719C316.225 242.943 316.949 243.268 317.383 243.694C317.818 244.119 318.035 244.681 318.035 245.38V245.387C318.035 245.992 317.887 246.514 317.591 246.953C317.296 247.392 316.879 247.732 316.341 247.974C315.804 248.212 315.174 248.331 314.453 248.331Z" fill="#4A4A4A"/>
<line x1="34.4023" y1="267.733" x2="318.836" y2="267.733" stroke="#1F1F1F" stroke-width="1.14691"/>
<rect x="34.4023" y="290.069" width="6.88147" height="6.88147" rx="3.44073" fill="#F4D282"/>
<path d="M48.256 298.51V288.813H51.5825C52.5413 288.813 53.3611 289.005 54.0421 289.39C54.7276 289.771 55.2518 290.322 55.6146 291.044C55.9775 291.765 56.159 292.634 56.159 293.651V293.665C56.159 294.682 55.9775 295.553 55.6146 296.279C55.2518 297 54.7298 297.553 54.0488 297.939C53.3679 298.319 52.5458 298.51 51.5825 298.51H48.256ZM49.4657 297.421H51.5019C52.2232 297.421 52.8392 297.273 53.3499 296.978C53.8607 296.682 54.2504 296.254 54.5193 295.694C54.7881 295.134 54.9225 294.462 54.9225 293.678V293.665C54.9225 292.876 54.7858 292.202 54.5125 291.642C54.2437 291.077 53.854 290.647 53.3432 290.351C52.8325 290.051 52.2187 289.901 51.5019 289.901H49.4657V297.421ZM58.2557 298.51V288.813H64.2635V289.901H59.4653V293.013H64.0149V294.088H59.4653V297.421H64.2635V298.51H58.2557ZM69.2566 298.51L65.6815 288.813H66.9516L69.801 296.944H69.9085L72.7578 288.813H74.0279L70.4528 298.51H69.2566ZM75.7282 298.51V288.813H81.736V289.901H76.9378V293.013H81.4873V294.088H76.9378V297.421H81.736V298.51H75.7282ZM83.9268 298.51V288.813H85.1364V297.421H89.8137V298.51H83.9268ZM95.4183 298.738C94.4909 298.738 93.6957 298.532 93.0326 298.12C92.3696 297.703 91.8588 297.114 91.5004 296.353C91.1465 295.591 90.9695 294.695 90.9695 293.665V293.651C90.9695 292.612 91.1487 291.713 91.5071 290.956C91.87 290.199 92.383 289.614 93.0461 289.202C93.7136 288.79 94.5043 288.584 95.4183 288.584C96.3367 288.584 97.1275 288.79 97.7905 289.202C98.4581 289.614 98.971 290.201 99.3294 290.963C99.6878 291.72 99.8671 292.616 99.8671 293.651V293.665C99.8671 294.695 99.6878 295.591 99.3294 296.353C98.9755 297.11 98.4648 297.697 97.7972 298.113C97.1342 298.53 96.3412 298.738 95.4183 298.738ZM95.4183 297.623C96.0813 297.623 96.6526 297.459 97.1319 297.132C97.6113 296.805 97.9809 296.346 98.2408 295.754C98.5006 295.159 98.6305 294.462 98.6305 293.665V293.651C98.6305 292.845 98.5006 292.146 98.2408 291.554C97.9809 290.963 97.6113 290.506 97.1319 290.183C96.6526 289.861 96.0813 289.7 95.4183 289.7C94.7597 289.7 94.1907 289.861 93.7114 290.183C93.232 290.506 92.8601 290.963 92.5958 291.554C92.336 292.146 92.206 292.845 92.206 293.651V293.665C92.206 294.462 92.3337 295.159 92.5891 295.754C92.8445 296.346 93.2118 296.805 93.6912 297.132C94.1706 297.459 94.7463 297.623 95.4183 297.623ZM102.569 295.049V293.974H105.31C106.005 293.974 106.542 293.794 106.923 293.436C107.304 293.073 107.494 292.574 107.494 291.937V291.924C107.494 291.283 107.304 290.784 106.923 290.425C106.542 290.067 106.005 289.888 105.31 289.888H102.569V288.813H105.62C106.229 288.813 106.766 288.942 107.232 289.202C107.698 289.462 108.063 289.825 108.328 290.291C108.597 290.757 108.731 291.297 108.731 291.911V291.924C108.731 292.538 108.597 293.08 108.328 293.55C108.063 294.021 107.698 294.388 107.232 294.652C106.766 294.917 106.229 295.049 105.62 295.049H102.569ZM101.964 298.51V288.813H103.173V298.51H101.964ZM110.713 298.51V288.813H112.118L115.438 296.904H115.545L118.865 288.813H120.27V298.51H119.141V291.104H118.549L119.907 289.081L116.002 298.51H114.981L111.083 289.081L112.434 291.104H111.842V298.51H110.713ZM122.743 298.51V288.813H128.75V289.901H123.952V293.013H128.502V294.088H123.952V297.421H128.75V298.51H122.743ZM130.941 298.51V288.813H132.117L137.675 296.783L136.868 296.359H137.487V288.813H138.683V298.51H137.507L131.949 290.567L132.756 290.99H132.137V298.51H130.941ZM143.676 298.51V289.901H140.551V288.813H148.01V289.901H144.886V298.51H143.676Z" fill="#ABABAB"/>
<path d="M220.28 298.671C219.612 298.671 219.03 298.557 218.533 298.328C218.035 298.1 217.641 297.786 217.35 297.387C217.063 296.989 216.898 296.534 216.853 296.023L216.846 295.943H218.009L218.015 296.01C218.065 296.485 218.293 296.872 218.701 297.172C219.108 297.473 219.635 297.623 220.28 297.623C220.706 297.623 221.077 297.549 221.396 297.401C221.718 297.253 221.969 297.049 222.148 296.789C222.327 296.525 222.417 296.223 222.417 295.882V295.869C222.417 295.273 222.218 294.816 221.819 294.498C221.425 294.175 220.887 294.014 220.206 294.014H218.99V292.992H220.152C220.538 292.992 220.878 292.921 221.174 292.777C221.469 292.63 221.7 292.43 221.866 292.179C222.032 291.924 222.115 291.635 222.115 291.312V291.299C222.115 290.959 222.043 290.67 221.9 290.432C221.756 290.195 221.546 290.013 221.268 289.888C220.995 289.762 220.661 289.7 220.267 289.7C219.886 289.7 219.545 289.765 219.245 289.894C218.949 290.02 218.712 290.201 218.533 290.439C218.354 290.676 218.246 290.959 218.21 291.286L218.203 291.353H217.041L217.048 291.286C217.101 290.757 217.267 290.295 217.545 289.901C217.827 289.507 218.199 289.2 218.66 288.981C219.126 288.761 219.662 288.651 220.267 288.651C220.885 288.651 221.422 288.759 221.879 288.974C222.341 289.184 222.697 289.478 222.948 289.854C223.203 290.226 223.331 290.658 223.331 291.151V291.165C223.331 291.563 223.244 291.917 223.069 292.226C222.894 292.536 222.652 292.793 222.343 292.999C222.034 293.205 221.678 293.351 221.275 293.436V293.463C221.982 293.521 222.554 293.761 222.988 294.182C223.427 294.599 223.647 295.152 223.647 295.842V295.855C223.647 296.393 223.501 296.875 223.21 297.3C222.919 297.726 222.52 298.062 222.014 298.308C221.508 298.55 220.93 298.671 220.28 298.671Z" fill="#ABABAB"/>
<path d="M249.677 295.049V293.974H252.419C253.114 293.974 253.651 293.794 254.032 293.436C254.413 293.073 254.603 292.574 254.603 291.937V291.924C254.603 291.283 254.413 290.784 254.032 290.425C253.651 290.067 253.114 289.888 252.419 289.888H249.677V288.813H252.728C253.338 288.813 253.875 288.942 254.341 289.202C254.807 289.462 255.172 289.825 255.436 290.291C255.705 290.757 255.84 291.297 255.84 291.911V291.924C255.84 292.538 255.705 293.08 255.436 293.55C255.172 294.021 254.807 294.388 254.341 294.652C253.875 294.917 253.338 295.049 252.728 295.049H249.677ZM249.072 298.51V288.813H250.282V298.51H249.072ZM257.822 298.51V288.813H261.525C262.148 288.813 262.69 288.934 263.151 289.175C263.617 289.413 263.978 289.747 264.233 290.177C264.489 290.607 264.616 291.113 264.616 291.696V291.709C264.616 292.381 264.444 292.963 264.099 293.456C263.754 293.949 263.277 294.292 262.667 294.484L264.912 298.51H263.494L261.417 294.673C261.408 294.673 261.397 294.673 261.384 294.673C261.37 294.673 261.359 294.673 261.35 294.673H259.032V298.51H257.822ZM259.032 293.597H261.417C262.04 293.597 262.52 293.438 262.856 293.12C263.196 292.798 263.366 292.341 263.366 291.749V291.736C263.366 291.158 263.189 290.705 262.835 290.378C262.481 290.051 261.991 289.888 261.364 289.888H259.032V293.597ZM270.886 298.738C269.959 298.738 269.164 298.532 268.501 298.12C267.837 297.703 267.327 297.114 266.968 296.353C266.614 295.591 266.437 294.695 266.437 293.665V293.651C266.437 292.612 266.617 291.713 266.975 290.956C267.338 290.199 267.851 289.614 268.514 289.202C269.181 288.79 269.972 288.584 270.886 288.584C271.805 288.584 272.595 288.79 273.258 289.202C273.926 289.614 274.439 290.201 274.797 290.963C275.156 291.72 275.335 292.616 275.335 293.651V293.665C275.335 294.695 275.156 295.591 274.797 296.353C274.443 297.11 273.933 297.697 273.265 298.113C272.602 298.53 271.809 298.738 270.886 298.738ZM270.886 297.623C271.549 297.623 272.12 297.459 272.6 297.132C273.079 296.805 273.449 296.346 273.709 295.754C273.968 295.159 274.098 294.462 274.098 293.665V293.651C274.098 292.845 273.968 292.146 273.709 291.554C273.449 290.963 273.079 290.506 272.6 290.183C272.12 289.861 271.549 289.7 270.886 289.7C270.228 289.7 269.659 289.861 269.179 290.183C268.7 290.506 268.328 290.963 268.064 291.554C267.804 292.146 267.674 292.845 267.674 293.651V293.665C267.674 294.462 267.802 295.159 268.057 295.754C268.312 296.346 268.68 296.805 269.159 297.132C269.638 297.459 270.214 297.623 270.886 297.623ZM279.508 298.738C278.948 298.738 278.471 298.633 278.077 298.422C277.683 298.207 277.376 297.916 277.156 297.549C276.941 297.181 276.816 296.767 276.78 296.306L276.773 296.211H277.983L277.989 296.279C278.016 296.521 278.088 296.745 278.204 296.951C278.321 297.152 278.487 297.316 278.702 297.441C278.917 297.562 279.183 297.623 279.501 297.623C280.039 297.623 280.449 297.468 280.731 297.159C281.013 296.845 281.155 296.393 281.155 295.802V288.813H282.364V295.815C282.364 296.733 282.111 297.45 281.605 297.965C281.103 298.481 280.404 298.738 279.508 298.738ZM284.837 298.51V288.813H290.845V289.901H286.047V293.013H290.596V294.088H286.047V297.421H290.845V298.51H284.837ZM296.94 298.738C296.062 298.738 295.303 298.532 294.662 298.12C294.022 297.708 293.526 297.123 293.177 296.366C292.832 295.609 292.66 294.711 292.66 293.671V293.658C292.66 292.614 292.832 291.713 293.177 290.956C293.526 290.199 294.019 289.614 294.655 289.202C295.296 288.79 296.055 288.584 296.934 288.584C297.615 288.584 298.233 288.718 298.788 288.987C299.348 289.252 299.81 289.621 300.173 290.096C300.536 290.567 300.764 291.111 300.858 291.729L300.851 291.743H299.635L299.628 291.729C299.521 291.312 299.339 290.954 299.084 290.654C298.829 290.349 298.517 290.114 298.15 289.948C297.787 289.782 297.382 289.7 296.934 289.7C296.315 289.7 295.778 289.861 295.321 290.183C294.868 290.506 294.519 290.963 294.272 291.554C294.026 292.146 293.903 292.847 293.903 293.658V293.671C293.903 294.478 294.026 295.177 294.272 295.768C294.519 296.359 294.868 296.816 295.321 297.139C295.778 297.461 296.318 297.623 296.94 297.623C297.393 297.623 297.803 297.551 298.17 297.408C298.537 297.26 298.847 297.051 299.097 296.783C299.348 296.509 299.523 296.187 299.622 295.815L299.635 295.802H300.858V295.815C300.751 296.406 300.518 296.922 300.159 297.361C299.801 297.795 299.346 298.133 298.795 298.375C298.249 298.617 297.63 298.738 296.94 298.738ZM305.072 298.51V289.901H301.947V288.813H309.406V289.901H306.281V298.51H305.072ZM314.453 298.738C313.745 298.738 313.127 298.624 312.598 298.396C312.074 298.163 311.658 297.844 311.348 297.441C311.044 297.034 310.867 296.568 310.817 296.043L310.811 295.97H312.02L312.027 296.043C312.058 296.366 312.182 296.646 312.397 296.883C312.616 297.116 312.907 297.298 313.27 297.428C313.638 297.558 314.054 297.623 314.52 297.623C314.959 297.623 315.349 297.553 315.69 297.414C316.035 297.271 316.306 297.074 316.503 296.823C316.7 296.572 316.798 296.283 316.798 295.956V295.949C316.798 295.546 316.651 295.208 316.355 294.935C316.059 294.657 315.578 294.444 314.91 294.296L313.835 294.061C312.863 293.846 312.155 293.514 311.711 293.066C311.272 292.614 311.053 292.036 311.053 291.333V291.326C311.057 290.788 311.203 290.313 311.49 289.901C311.781 289.489 312.182 289.166 312.692 288.934C313.208 288.701 313.799 288.584 314.467 288.584C315.112 288.584 315.683 288.701 316.18 288.934C316.677 289.162 317.072 289.471 317.363 289.861C317.659 290.251 317.822 290.687 317.854 291.171L317.86 291.265H316.651L316.637 291.178C316.592 290.891 316.476 290.638 316.288 290.419C316.1 290.195 315.849 290.018 315.535 289.888C315.221 289.758 314.854 289.695 314.433 289.7C314.03 289.7 313.667 289.762 313.344 289.888C313.022 290.013 312.764 290.195 312.571 290.432C312.383 290.665 312.289 290.952 312.289 291.292V291.299C312.289 291.684 312.433 292.009 312.719 292.273C313.006 292.538 313.479 292.742 314.137 292.885L315.212 293.127C316.225 293.351 316.949 293.676 317.383 294.101C317.818 294.527 318.035 295.089 318.035 295.788V295.795C318.035 296.4 317.887 296.922 317.591 297.361C317.296 297.8 316.879 298.14 316.341 298.382C315.804 298.62 315.174 298.738 314.453 298.738Z" fill="#4A4A4A"/>
<defs>
<linearGradient id="paint0_linear_251_4949" x1="11.3267" y1="8.98853" x2="397.705" y2="269.127" gradientUnits="userSpaceOnUse">
<stop stop-color="#191919"/>
<stop offset="1" stop-color="#161616"/>
</linearGradient>
<linearGradient id="paint1_linear_251_4949" x1="240.227" y1="35.3828" x2="278.695" y2="74.6788" gradientUnits="userSpaceOnUse">
<stop stop-color="#191919"/>
<stop offset="1" stop-color="#1C1C1C"/>
</linearGradient>
<linearGradient id="paint2_linear_251_4949" x1="230.663" y1="35.3828" x2="243.794" y2="62.3704" gradientUnits="userSpaceOnUse">
<stop stop-color="#242424"/>
<stop offset="1" stop-color="#282828" stop-opacity="0"/>
</linearGradient>
</defs>
</svg>
