<svg width="20" height="18" viewBox="0 0 20 18" fill="none" xmlns="http://www.w3.org/2000/svg">
<path d="M4.47022 2.00051C4.46995 2.53094 4.25898 3.03955 3.88372 3.41443C3.50846 3.78932 2.99965 3.99978 2.46922 3.99951C1.93878 3.99925 1.43018 3.78828 1.05529 3.41302C0.680409 3.03776 0.46995 2.52894 0.470215 1.99851C0.47048 1.46808 0.681448 0.959476 1.05671 0.584591C1.43197 0.209706 1.94078 -0.000753247 2.47122 -0.000488031C3.00165 -0.000222814 3.51025 0.210745 3.88514 0.586005C4.26002 0.961266 4.47048 1.47008 4.47022 2.00051ZM4.53022 5.48051H0.530215L0.530215 18.0005H4.53022L4.53022 5.48051ZM10.8502 5.48051H6.87022L6.87022 18.0005H10.8102V11.4305C10.8102 7.77051 15.5802 7.43051 15.5802 11.4305V18.0005H19.5302V10.0705C19.5302 3.90051 12.4702 4.13051 10.8102 7.16051L10.8502 5.48051Z" fill="#C3C3C3"/>
</svg>
