<svg width="18" height="18" viewBox="0 0 18 18" fill="none" xmlns="http://www.w3.org/2000/svg">
<g id="teenyicons:dribbble-solid" clip-path="url(#clip0_37_36)">
<path id="Vector" d="M5.05341 1.45422C3.87375 2.06724 2.85414 2.94814 2.07633 4.02629C1.29852 5.10443 0.78416 6.34983 0.574482 7.66262H1.06748C4.24648 7.58896 6.73868 7.31356 8.77415 6.69022C7.89015 5.12282 6.81121 3.58489 5.51695 2.02089L5.51581 2.01976L5.05341 1.45422ZM0.472482 8.79596L0.470215 8.99996C0.470215 11.2859 1.37235 13.361 2.84001 14.8888L3.02248 14.5216C3.03262 14.5012 3.04397 14.4816 3.05648 14.4626C4.93555 11.6044 7.06168 9.90436 9.43941 9.14162C9.60035 9.08949 9.76355 9.04189 9.92675 8.99882C9.73637 8.56238 9.53342 8.13154 9.31815 7.70682C7.09115 8.42422 4.41422 8.71889 1.08675 8.79482H0.473615L0.472482 8.79596Z" fill="#C3C3C3"/>
<path id="Vector_2" d="M3.71143 15.6787C5.20891 16.8612 7.06202 17.503 8.97009 17.5C9.98216 17.5 10.9534 17.3232 11.8522 16.9991V16.1831C11.5756 13.9901 11.0894 11.9784 10.3584 10.0585C10.1658 10.1061 9.97423 10.1605 9.78496 10.2206C7.72003 10.8836 5.78996 12.3773 4.02196 15.0577L3.71256 15.6787H3.71143ZM12.9855 16.4936C14.081 15.9057 15.0345 15.085 15.779 14.0892C16.5234 13.0934 17.0407 11.9466 17.2944 10.7295L16.6541 10.4405C14.8113 9.89874 13.0943 9.67661 11.494 9.85681C12.2171 11.8061 12.7033 13.8529 12.981 16.0765C12.9844 16.0992 12.9855 16.1219 12.9855 16.1468V16.4936ZM17.452 9.55761C17.6016 7.33139 16.8664 5.13609 15.4063 3.44894L15.0697 3.82181C13.7437 5.43454 12.2296 6.55314 10.389 7.31474C10.6293 7.79528 10.8537 8.27921 11.0611 8.76994C12.956 8.49794 14.9484 8.75408 17.0122 9.36494C17.0374 9.37228 17.062 9.38137 17.0859 9.39214L17.452 9.55761ZM14.6096 2.63974C13.0561 1.2585 11.0488 0.49691 8.97009 0.500009C7.97503 0.500009 7.02076 0.670009 6.13336 0.985076L6.39176 1.30014C7.77443 2.96954 8.92136 4.61968 9.85749 6.30721C11.6062 5.60114 12.9923 4.56868 14.2027 3.09194C14.2082 3.08501 14.2139 3.0782 14.2197 3.07154L14.6096 2.64088V2.63974Z" fill="#C3C3C3"/>
</g>
<defs>
<clipPath id="clip0_37_36">
<rect width="17" height="17" fill="white" transform="translate(0.470215 0.5)"/>
</clipPath>
</defs>
</svg>
