<svg width="27" height="16" viewBox="0 0 27 16" fill="none" xmlns="http://www.w3.org/2000/svg">
<path d="M8.03309 0C8.78223 0 9.47449 0.0557213 10.1099 0.222885C10.7436 0.334327 11.2653 0.566764 11.7284 0.84537C12.1932 1.12557 12.536 1.52358 12.77 2.03462C12.9975 2.54407 13.1211 3.16655 13.1211 3.84476C13.1211 4.63441 12.9488 5.31262 12.5425 5.82207C12.1932 6.33152 11.6228 6.78684 10.9224 7.12276C11.9072 7.40295 12.6563 7.91241 13.1129 8.59061C13.5696 9.26882 13.8621 10.1142 13.8621 11.079C13.8621 11.8686 13.6914 12.5468 13.3989 13.1136C13.1071 13.684 12.6693 14.1706 12.1282 14.5257C11.6082 14.868 10.9728 15.1466 10.2805 15.3154C9.60238 15.4908 8.90501 15.5849 8.20372 15.5956L0.470215 15.6067L0.470215 0L8.03309 0ZM7.56996 6.33311C8.20372 6.33311 8.72373 6.16594 9.12511 5.87938C9.52487 5.59281 9.702 5.08814 9.702 4.46725C9.702 4.12337 9.64512 3.78904 9.53137 3.56456C9.40824 3.33705 9.2296 3.1429 9.01136 2.99939C8.77562 2.87346 8.52364 2.77922 8.26222 2.71919C7.97622 2.66347 7.68371 2.66347 7.34083 2.66347H3.99652V6.34107C3.99652 6.33311 7.56996 6.33311 7.56996 6.33311ZM7.74059 13.0085C8.08997 13.0085 8.43285 12.9528 8.72535 12.8971C9.01136 12.8413 9.30386 12.7283 9.53137 12.5532C9.75887 12.3781 9.93762 12.2109 10.1099 11.9323C10.2236 11.6521 10.3374 11.3098 10.3374 10.9118C10.3374 10.1221 10.1099 9.55538 9.64512 9.15738C9.18199 8.81509 8.5466 8.64792 7.79746 8.64792H3.99652V13.0005H7.74221L7.74059 13.0085ZM18.885 12.9528C19.3498 13.4065 20.0404 13.631 20.9618 13.631C21.5956 13.631 22.1741 13.4622 22.6388 13.1757C23.102 12.8334 23.3863 12.4975 23.5001 12.1568H26.3276C25.8629 13.5116 25.1706 14.4764 24.2509 15.0988C23.3311 15.664 22.231 15.9999 20.9033 15.9999C20.0543 16.0036 19.2123 15.8497 18.4219 15.5462C17.7105 15.2871 17.0757 14.8594 16.5742 14.3012C16.0394 13.7808 15.6422 13.1403 15.4172 12.4354C15.1328 11.7014 15.011 10.9118 15.011 10.0027C15.011 9.15738 15.1247 8.35977 15.4172 7.62584C15.7097 6.8935 16.1095 6.26943 16.6311 5.70426C17.1511 5.1948 17.7865 4.73948 18.4788 4.45929C19.2507 4.1582 20.0741 4.0042 20.9049 4.00556C21.8897 4.00556 22.7526 4.17272 23.5017 4.57073C24.2492 4.96874 24.8294 5.41769 25.2925 6.0959C25.7556 6.71679 26.0985 7.45072 26.3341 8.24196C26.4479 9.0316 26.5048 9.82762 26.4479 10.7303H18.079C18.079 11.6537 18.4203 12.4975 18.885 12.9528ZM22.5251 7.01131C22.1188 6.61331 21.4818 6.38883 20.7327 6.38883C20.2127 6.38883 19.8129 6.50027 19.4635 6.66903C19.1142 6.83619 18.885 7.06704 18.6575 7.28992C18.4451 7.50843 18.3037 7.78382 18.2513 8.08116C18.1928 8.35977 18.1375 8.59061 18.1375 8.8135H23.3311C23.2173 7.97609 22.9265 7.40932 22.5251 7.01131ZM17.4436 1.07621L23.908 1.07621V2.59979H17.4436V1.07621Z" fill="#C3C3C3"/>
</svg>
