<svg width="16" height="17" viewBox="0 0 16 17" fill="none" xmlns="http://www.w3.org/2000/svg">
<path id="visuals" d="M0.888889 7.61111H6.22222C6.45797 7.61111 6.68406 7.51746 6.85076 7.35076C7.01746 7.18406 7.11111 6.95797 7.11111 6.72222V1.38889C7.11111 1.15314 7.01746 0.927048 6.85076 0.760349C6.68406 0.59365 6.45797 0.5 6.22222 0.5H0.888889C0.653141 0.5 0.427048 0.59365 0.260349 0.760349C0.0936505 0.927048 0 1.15314 0 1.38889V6.72222C0 6.95797 0.0936505 7.18406 0.260349 7.35076C0.427048 7.51746 0.653141 7.61111 0.888889 7.61111ZM9.77778 7.61111H15.1111C15.3469 7.61111 15.573 7.51746 15.7397 7.35076C15.9064 7.18406 16 6.95797 16 6.72222V1.38889C16 1.15314 15.9064 0.927048 15.7397 0.760349C15.573 0.59365 15.3469 0.5 15.1111 0.5H9.77778C9.54203 0.5 9.31594 0.59365 9.14924 0.760349C8.98254 0.927048 8.88889 1.15314 8.88889 1.38889V6.72222C8.88889 6.95797 8.98254 7.18406 9.14924 7.35076C9.31594 7.51746 9.54203 7.61111 9.77778 7.61111ZM0.888889 16.5H6.22222C6.45797 16.5 6.68406 16.4064 6.85076 16.2397C7.01746 16.073 7.11111 15.8469 7.11111 15.6111V10.2778C7.11111 10.042 7.01746 9.81594 6.85076 9.64924C6.68406 9.48254 6.45797 9.38889 6.22222 9.38889H0.888889C0.653141 9.38889 0.427048 9.48254 0.260349 9.64924C0.0936505 9.81594 0 10.042 0 10.2778V15.6111C0 15.8469 0.0936505 16.073 0.260349 16.2397C0.427048 16.4064 0.653141 16.5 0.888889 16.5ZM9.77778 16.5H15.1111C15.3469 16.5 15.573 16.4064 15.7397 16.2397C15.9064 16.073 16 15.8469 16 15.6111V10.2778C16 10.042 15.9064 9.81594 15.7397 9.64924C15.573 9.48254 15.3469 9.38889 15.1111 9.38889H9.77778C9.54203 9.38889 9.31594 9.48254 9.14924 9.64924C8.98254 9.81594 8.88889 10.042 8.88889 10.2778V15.6111C8.88889 15.8469 8.98254 16.073 9.14924 16.2397C9.31594 16.4064 9.54203 16.5 9.77778 16.5Z" fill="#616161"/>
</svg>
